<?xml version="1.0" encoding="UTF-8" standalone="no"?>
<svg
   xmlns:dc="http://purl.org/dc/elements/1.1/"
   xmlns:cc="http://creativecommons.org/ns#"
   xmlns:rdf="http://www.w3.org/1999/02/22-rdf-syntax-ns#"
   xmlns:svg="http://www.w3.org/2000/svg"
   xmlns="http://www.w3.org/2000/svg"
   xmlns:sodipodi="http://sodipodi.sourceforge.net/DTD/sodipodi-0.dtd"
   xmlns:inkscape="http://www.inkscape.org/namespaces/inkscape"
   version="1.0"
   width="160mm"
   height="230mm"
   id="svg155"
   sodipodi:docname="GridLMM_gxe_no_cov_cis001_rotated.svg"
   inkscape:export-filename="C:\Users\James\Documents\GitHub\sar_qtl\figures\qtl_ci_linkage_map\gxe_qtl_linkage_no_cov_rotated.png"
   inkscape:export-xdpi="600"
   inkscape:export-ydpi="600"
   inkscape:version="0.92.4 (5da689c313, 2019-01-14)">
  <metadata
     id="metadata159">
    <rdf:RDF>
      <cc:Work
         rdf:about="">
        <dc:format>image/svg+xml</dc:format>
        <dc:type
           rdf:resource="http://purl.org/dc/dcmitype/StillImage" />
        <dc:title></dc:title>
      </cc:Work>
    </rdf:RDF>
  </metadata>
  <sodipodi:namedview
     pagecolor="#ffffff"
     bordercolor="#666666"
     borderopacity="1"
     objecttolerance="10"
     gridtolerance="10"
     guidetolerance="10"
     inkscape:pageopacity="0"
     inkscape:pageshadow="2"
     inkscape:window-width="1920"
     inkscape:window-height="1027"
     id="namedview157"
     showgrid="false"
     inkscape:zoom="0.34660059"
     inkscape:cx="432.77479"
     inkscape:cy="313.71967"
     inkscape:window-x="2552"
     inkscape:window-y="-8"
     inkscape:window-maximized="1"
     inkscape:current-layer="g236" />
  <defs
     id="defs3">
    <pattern
       id="EMFhbasepattern"
       patternUnits="userSpaceOnUse"
       width="6"
       height="6"
       x="0"
       y="0" />
  </defs>
  <g
     id="g236"
     transform="translate(0,241.85199)">
    <g
       id="g313"
       transform="rotate(-90,319.80304,299.33347)">
      <path
         style="fill:none;stroke:#000000;stroke-width:3.75999856px;stroke-linecap:round;stroke-linejoin:round;stroke-miterlimit:10;stroke-dasharray:none;stroke-opacity:1"
         d="m 1.9999993,0 m 0,0 m 0,0 m 0,111.35996 c 0,-3.13698 2.5430217,-5.68 5.679998,-5.68 v 0 c 3.1369767,0 5.6799977,2.54302 5.6799977,5.68 V 553.5998 c 0,3.13698 -2.543021,5.68 -5.6799977,5.68 v 0 c -3.1369763,0 -5.679998,-2.54302 -5.679998,-5.68 z m 0,0 m 3.7599986,0 h 7.5999971 m -11.3599957,2.32 m 3.7599986,0 h 7.5999971 m -11.3599957,2.32 m 3.7599986,0 h 7.5999971 m -11.3599957,1.92 m 3.7599986,0 h 7.5999971 m -11.3599957,2.64 m 3.7599986,0 h 7.5999971 m -11.3599957,0.4 m 3.7599986,0 h 7.5999971 m -11.3599957,4.64 m 3.7599986,0 h 7.5999971 m -11.3599957,2.31999 m 3.7599986,0 h 7.5999971 m -11.3599957,0.72 m 3.7599986,0 h 7.5999971 m -11.3599957,2.32 m 3.7599986,0 h 7.5999971 m -11.3599957,1.92 m 3.7599986,0 h 7.5999971 m -11.3599957,3.12 m 3.7599986,0 h 7.5999971 m -11.3599957,2.24 m 3.7599986,0 h 7.5999971 m -11.3599957,0.8 m 3.7599986,0 h 7.5999971 m -11.3599957,2.32 m 3.7599986,0 h 7.5999971 m -11.3599957,0.8 m 3.7599986,0 h 7.5999971 m -11.3599957,0.72 m 3.7599986,0 h 7.5999971 m -11.3599957,1.92 m 3.7599986,0 h 7.5999971 m -11.3599957,1.92 m 3.7599986,0 h 7.5999971 m -11.3599957,3.12 m 3.7599986,0 h 7.5999971 m -11.3599957,0.32 m 3.7599986,0 h 7.5999971 m -11.3599957,0.4 m 3.7599986,0 h 7.5999971 m -11.3599957,1.92 m 3.7599986,0 h 7.5999971 m -11.3599957,4.23999 m 3.7599986,0 h 7.5999971 m -11.3599957,0.4 m 3.7599986,0 h 7.5999971 m -11.3599957,0.8 m 3.7599986,0 h 7.5999971 m -11.3599957,2.64 m 3.7599986,0 h 7.5999971 m -11.3599957,4.24 m 3.7599986,0 h 7.5999971 m -11.3599957,1.92 m 3.7599986,0 h 7.5999971 m -11.3599957,4.64 m 3.7599986,0 h 7.5999971 m -11.3599957,3.04 m 3.7599986,0 h 7.5999971 m -11.3599957,2.32 m 3.7599986,0 h 7.5999971 m -11.3599957,3.44 m 3.7599986,0 h 7.5999971 m -11.3599957,2.71999 m 3.7599986,0 h 7.5999971 m -11.3599957,1.92 m 3.7599986,0 h 7.5999971 m -11.3599957,1.92 m 3.7599986,0 h 7.5999971 m -11.3599957,1.2 m 3.7599986,0 h 7.5999971 m -11.3599957,1.92 m 3.7599986,0 h 7.5999971 m -11.3599957,1.12 m 3.7599986,0 h 7.5999971 m -11.3599957,2.32 m 3.7599986,0 h 7.5999971 m -11.3599957,0.4 m 3.7599986,0 h 7.5999971 m -11.3599957,1.52 m 3.7599986,0 h 7.5999971 m -11.3599957,3.84 m 3.7599986,0 h 7.5999971 m -11.3599957,2.32 m 3.7599986,0 h 7.5999971 m -11.3599957,4.96 m 3.7599986,0 h 7.5999971 m -11.3599957,1.2 m 3.7599986,0 h 7.5999971 m -11.3599957,1.92 m 3.7599986,0 h 7.5999971 m -11.3599957,4.55999 m 3.7599986,0 h 7.5999971 m -11.3599957,6.56 m 3.7599986,0 h 7.5999971 m -11.3599957,3.12 m 3.7599986,0 h 7.5999971 m -11.3599957,2.24 m 3.7599986,0 h 7.5999971 m -11.3599957,1.92 m 3.7599986,0 h 7.5999971 m -11.3599957,3.12 m 3.7599986,0 h 7.5999971 m -11.3599957,0.4 m 3.7599986,0 h 7.5999971 m -11.3599957,1.92 m 3.7599986,0 h 7.5999971 m -11.3599957,0.32 m 3.7599986,0 h 7.5999971 m -11.3599957,2.32 m 3.7599986,0 h 7.5999971 m -11.3599957,2.31999 m 3.7599986,0 h 7.5999971 m -11.3599957,3.44 m 3.7599986,0 h 7.5999971 m -11.3599957,4.24 m 3.7599986,0 h 7.5999971 m -11.3599957,5.76 m 3.7599986,0 h 7.5999971 m -11.3599957,2.32 m 3.7599986,0 h 7.5999971 m -11.3599957,4.24 m 3.7599986,0 h 7.5999971 m -11.3599957,1.2 m 3.7599986,0 h 7.5999971 m -11.3599957,1.92 m 3.7599986,0 H 13.359995 M 1.9999993,269.0399 m 3.7599986,0 h 7.5999971 m -11.3599957,1.92 m 3.7599986,0 h 7.5999971 m -11.3599957,3.04 m 3.7599986,0 h 7.5999971 m -11.3599957,0.8 m 3.7599986,0 h 7.5999971 m -11.3599957,1.12 m 3.7599986,0 h 7.5999971 m -11.3599957,1.92 m 3.7599986,0 h 7.5999971 m -11.3599957,2.72 m 3.7599986,0 h 7.5999971 m -11.3599957,2.72 m 3.7599986,0 h 7.5999971 m -11.3599957,1.12 m 3.7599986,0 h 7.5999971 m -11.3599957,0.8 m 3.7599986,0 h 7.5999971 m -11.3599957,0.72 m 3.7599986,0 h 7.5999971 m -11.3599957,2.72 m 3.7599986,0 h 7.5999971 m -11.3599957,1.52 m 3.7599986,0 h 7.5999971 m -11.3599957,2.32 m 3.7599986,0 h 7.5999971 m -11.3599957,4.23999 m 3.7599986,0 h 7.5999971 m -11.3599957,6.48 m 3.7599986,0 h 7.5999971 m -11.3599957,11.2 m 3.7599986,0 h 7.5999971 m -11.3599957,4.64 m 3.7599986,0 h 7.5999971 m -11.3599957,1.12 m 3.7599986,0 h 7.5999971 m -11.3599957,3.03999 m 3.7599986,0 h 7.5999971 m -11.3599957,0.8 m 3.7599986,0 h 7.5999971 m -11.3599957,1.12 m 3.7599986,0 h 7.5999971 m -11.3599957,0.8 m 3.7599986,0 h 7.5999971 m -11.3599957,1.52 m 3.7599986,0 h 7.5999971 m -11.3599957,0.8 m 3.7599986,0 h 7.5999971 m -11.3599957,0.4 m 3.7599986,0 h 7.5999971 m -11.3599957,0.72 m 3.7599986,0 h 7.5999971 m -11.3599957,3.52 m 3.7599986,0 h 7.5999971 m -11.3599957,4.56 m 3.7599986,0 h 7.5999971 m -11.3599957,5.04 m 3.7599986,0 h 7.5999971 m -11.3599957,2.32 m 3.7599986,0 h 7.5999971 m -11.3599957,3.44 m 3.7599986,0 h 7.5999971 m -11.3599957,3.43999 m 3.7599986,0 h 7.5999971 m -11.3599957,1.92 m 3.7599986,0 h 7.5999971 m -11.3599957,3.12 m 3.7599986,0 h 7.5999971 m -11.3599957,5.76 m 3.7599986,0 h 7.5999971 m -11.3599957,1.12 m 3.7599986,0 h 7.5999971 m -11.3599957,1.2 m 3.7599986,0 h 7.5999971 m -11.3599957,1.92 m 3.7599986,0 h 7.5999971 m -11.3599957,3.84 m 3.7599986,0 h 7.5999971 m -11.3599957,1.12 m 3.7599986,0 h 7.5999971 m -11.3599957,2.32 m 3.7599986,0 h 7.5999971 m -11.3599957,2.72 m 3.7599986,0 h 7.5999971 m -11.3599957,4.55999 m 3.7599986,0 h 7.5999971 m -11.3599957,1.2 m 3.7599986,0 h 7.5999971 m -11.3599957,3.04 m 3.7599986,0 h 7.5999971 m -11.3599957,1.2 m 3.7599986,0 h 7.5999971 m -11.3599957,1.12 m 3.7599986,0 h 7.5999971 m -11.3599957,3.84 m 3.7599986,0 h 7.5999971 m -11.3599957,0.8 m 3.7599986,0 h 7.5999971 m -11.3599957,3.44 m 3.7599986,0 h 7.5999971 m -11.3599957,1.52 m 3.7599986,0 h 7.5999971 m -11.3599957,3.12 m 3.7599986,0 h 7.5999971 m -11.3599957,1.92 m 3.7599986,0 h 7.5999971 m -11.3599957,1.92 m 3.7599986,0 h 7.5999971 m -11.3599957,1.52 m 3.7599986,0 h 7.5999971 m -11.3599957,0.39999 m 3.7599986,0 h 7.5999971 m -11.3599957,1.52 m 3.7599986,0 h 7.5999971 m -11.3599957,1.92 m 3.7599986,0 h 7.5999971 m -11.3599957,3.84 m 3.7599986,0 h 7.5999971 m -11.3599957,1.52 m 3.7599986,0 h 7.5999971 m -11.3599957,3.44 m 3.7599986,0 h 7.5999971 m -11.3599957,0.8 m 3.7599986,0 h 7.5999971 m -11.3599957,0.4 m 3.7599986,0 h 7.5999971 m -11.3599957,0.72 m 3.7599986,0 h 7.5999971 m -11.3599957,0.8 m 3.7599986,0 h 7.5999971 m -11.3599957,1.52 m 3.7599986,0 h 7.5999971 m -11.3599957,1.92 m 3.7599986,0 h 7.5999971 m -11.3599957,1.6 m 3.7599986,0 h 7.5999971 m -11.3599957,2.64 m 3.7599986,0 h 7.5999971 m -11.3599957,6.55999 m 3.7599986,0 h 7.5999971 m -11.3599957,2.32 m 3.7599986,0 h 7.5999971 m -11.3599957,3.44 m 3.7599986,0 h 7.5999971 m -11.3599957,2.32 m 3.7599986,0 h 7.5999971 m -11.3599957,1.52 m 3.7599986,0 h 7.5999971 m -11.3599957,1.2 m 3.7599986,0 h 7.5999971 m -11.3599957,2.24 m 3.7599986,0 h 7.5999971 m -11.3599957,0.4 m 3.7599986,0 h 7.5999971 m -11.3599957,0.8 m 3.7599986,0 h 7.5999971 m -11.3599957,0.72 m 3.7599986,0 h 7.5999971 m -11.3599957,1.2 m 3.7599986,0 h 7.5999971 m -11.3599957,1.52 m 3.7599986,0 h 7.5999971 m -11.3599957,1.12 m 3.7599986,0 h 7.5999971 m -11.3599957,4.64 m 3.7599986,0 h 7.5999971 m -11.3599957,0.4 m 3.7599986,0 h 7.5999971 m -11.3599957,3.83999 m 3.7599986,0 h 7.5999971 m -11.3599957,5.36 m 3.7599986,0 h 7.5999971 m -11.3599957,5.04 m 3.7599986,0 h 7.5999971 m -11.3599957,3.84 m 3.7599986,0 h 7.5999971 m -11.3599957,1.12 m 3.7599986,0 h 7.5999971 m -11.3599957,4.24 m 3.7599986,0 h 7.5999971 m -11.3599957,0.4 m 3.7599986,0 h 7.5999971 m -11.3599957,3.04 m 3.7599986,0 h 7.5999971 m -11.3599957,1.2 m 3.7599986,0 h 7.5999971 m -11.3599957,0.72 m 3.7599986,0 h 7.5999971 m -11.3599957,2.71999 m 3.7599986,0 h 7.5999971 m -11.3599957,0.8 m 3.7599986,0 h 7.5999971 m -11.3599957,1.52 m 3.7599986,0 h 7.5999971 m -11.3599957,2.32 m 3.7599986,0 h 7.5999971 m -11.3599957,5.76 m 3.7599986,0 h 7.5999971 m -11.3599957,8.48 m 3.7599986,0 h 7.5999971 m -11.3599957,1.12 m 3.7599986,0 h 7.5999971 m -11.3599957,0.8 m 3.7599986,0 h 7.5999971 m -11.3599957,1.12 m 3.7599986,0 h 7.5999971 m -11.3599957,3.12 m 3.7599986,0 h 7.5999971 m -11.3599957,0.32 m 3.7599986,0 h 7.5999971 m -11.3599957,1.92 m 3.7599986,0 h 7.5999971 m -11.3599957,1.91999 m 3.7599986,0 h 7.5999971 m -11.3599957,0.8 m 3.7599986,0 h 7.5999971 m -11.3599957,1.92 m 3.7599986,0 h 7.5999971 m -11.3599957,3.44 m 3.7599986,0 h 7.5999971 m -11.3599957,0.4 m 3.7599986,0 h 7.5999971 m -11.3599957,3.84 m 3.7599986,0 h 7.5999971 m -11.3599957,2.72 m 3.7599986,0 h 7.5999971 m -11.3599957,2.64 m 3.7599986,0 h 7.5999971 m -11.3599957,2.72 m 3.7599986,0 h 7.5999971 m -11.3599957,1.92 m 3.7599986,0 h 7.5999971 m -11.3599957,1.92 m 3.7599986,0 H 13.359995 M 1.9999993,550.0798 m 3.7599986,0 h 7.5999971 m -11.3599957,1.6 m 3.7599986,0 h 7.5999971 m -11.3599957,1.12 m 3.7599986,0 h 7.5999971 m -11.3599957,0.4 m 3.7599986,0 h 7.5999971 m -11.3599957,0.4 m 3.7599986,0 h 7.5999971"
         id="path5"
         inkscape:connector-curvature="0" />
      <text
         xml:space="preserve"
         style="font-style:normal;font-variant:normal;font-weight:700;font-size:18.625px;line-height:125%;font-family:Arial;text-align:start;letter-spacing:0px;word-spacing:0px;text-anchor:start;fill:#000000;fill-opacity:1;stroke:none"
         transform="translate(2.479999)"
         x="0"
         y="16.860718"
         id="text11"><tspan
           sodipodi:role="line"
           x="0"
           y="16.860718"
           id="tspan9"><tspan
             dx="0"
             dy="0"
             style="font-style:normal;font-variant:normal;font-weight:700;font-size:18.625px;font-family:Arial;fill:#000000"
             id="tspan7">1</tspan></tspan></text>
      <path
         style="fill:none;stroke:#000000;stroke-width:3.75999856px;stroke-linecap:round;stroke-linejoin:round;stroke-miterlimit:10;stroke-dasharray:none;stroke-opacity:1"
         d="M 12.879995,0 M 1.9999993,0 M 88.959968,0 m 0,111.35996 c 0,-3.13698 2.543022,-5.68 5.679998,-5.68 v 0 c 3.136976,0 5.679994,2.54302 5.679994,5.68 v 284.9599 c 0,3.13697 -2.543018,5.68 -5.679994,5.68 v 0 c -3.136976,0 -5.679998,-2.54303 -5.679998,-5.68 z m 0,0 m 3.759999,0 h 7.599993 m -11.359992,3.44 m 3.759999,0 h 7.599993 m -11.359992,0.8 m 3.759999,0 h 7.599993 m -11.359992,3.84 m 3.759999,0 h 7.599993 m -11.359992,1.92 m 3.759999,0 h 7.599993 m -11.359992,2.72 m 3.759999,0 h 7.599993 m -11.359992,0.72 m 3.759999,0 h 7.599993 m -11.359992,1.91999 m 3.759999,0 h 7.599993 m -11.359992,0.8 m 3.759999,0 h 7.599993 m -11.359992,2.32 m 3.759999,0 h 7.599993 m -11.359992,3.44 m 3.759999,0 h 7.599993 m -11.359992,5.76 m 3.759999,0 h 7.599993 m -11.359992,1.12 m 3.759999,0 h 7.599993 m -11.359992,1.2 m 3.759999,0 h 7.599993 m -11.359992,1.12 m 3.759999,0 h 7.599993 m -11.359992,1.2 m 3.759999,0 h 7.599993 m -11.359992,2.64 m 3.759999,0 h 7.599993 m -11.359992,6.96 m 3.759999,0 h 7.599993 m -11.359992,0.8 m 3.759999,0 h 7.599993 m -11.359992,0.71999 m 3.759999,0 h 7.599993 m -11.359992,1.52 m 3.759999,0 h 7.599993 m -11.359992,0.4 m 3.759999,0 h 7.599993 m -11.359992,1.52 m 3.759999,0 h 7.599993 m -11.359992,1.6 m 3.759999,0 h 7.599993 m -11.359992,1.52 m 3.759999,0 h 7.599993 m -11.359992,1.52 m 3.759999,0 h 7.599993 m -11.359992,2.32 m 3.759999,0 h 7.599993 m -11.359992,0.8 m 3.759999,0 h 7.599993 m -11.359992,4.96 m 3.759999,0 h 7.599993 m -11.359992,3.44 m 3.759999,0 h 7.599993 m -11.359992,5.04 m 3.759999,0 h 7.599993 m -11.359992,0.4 m 3.759999,0 h 7.599993 m -11.359992,1.52 m 3.759999,0 h 7.599993 m -11.359992,9.19999 m 3.759999,0 h 7.599993 m -11.359992,6.16 m 3.759999,0 h 7.599993 m -11.359992,3.12 m 3.759999,0 h 7.599993 m -11.359992,2.64 m 3.759999,0 h 7.599993 m -11.359992,3.12 m 3.759999,0 h 7.599993 m -11.359992,6.87999 m 3.759999,0 h 7.599993 m -11.359992,1.52 m 3.759999,0 h 7.599993 m -11.359992,1.2 m 3.759999,0 h 7.599993 m -11.359992,1.92 m 3.759999,0 h 7.599993 m -11.359992,2.64 m 3.759999,0 h 7.599993 m -11.359992,2.72 m 3.759999,0 h 7.599993 m -11.359992,0.4 m 3.759999,0 h 7.599993 m -11.359992,1.92 m 3.759999,0 h 7.599993 m -11.359992,1.92 m 3.759999,0 h 7.599993 m -11.359992,3.44 m 3.759999,0 h 7.599993 m -11.359992,1.92 m 3.759999,0 h 7.599993 m -11.359992,2.32 m 3.759999,0 h 7.599993 m -11.359992,2.32 m 3.759999,0 h 7.599993 m -11.359992,6.87999 m 3.759999,0 h 7.599993 m -11.359992,3.92 m 3.759999,0 h 7.599993 m -11.359992,3.04 m 3.759999,0 h 7.599993 m -11.359992,4.96 m 3.759999,0 h 7.599993 m -11.359992,5.04 m 3.759999,0 h 7.599993 m -11.359992,0.8 m 3.759999,0 h 7.599993 m -11.359992,2.24 m 3.759999,0 h 7.599993 m -11.359992,2.32 m 3.759999,0 h 7.599993 m -11.359992,1.19999 m 3.759999,0 h 7.599993 m -11.359992,0.72 m 3.759999,0 h 7.599993 m -11.359992,1.2 m 3.759999,0 h 7.599993 m -11.359992,3.44 m 3.759999,0 h 7.599993 m -11.359992,6.56 m 3.759999,0 h 7.599993 m -11.359992,1.52 m 3.759999,0 h 7.599993 m -11.359992,1.52 m 3.759999,0 h 7.599993 m -11.359992,1.92 m 3.759999,0 h 7.599993 m -11.359992,5.76 m 3.759999,0 h 7.599993 m -11.359992,0.8 m 3.759999,0 h 7.599993 m -11.359992,3.44 m 3.759999,0 h 7.599993 m -11.359992,1.19999 m 3.759999,0 h 7.599993 m -11.359992,1.52 m 3.759999,0 h 7.599993 m -11.359992,0.72 m 3.759999,0 h 7.599993 m -11.359992,5.44 m 3.759999,0 h 7.599993 m -11.359992,2.64 m 3.759999,0 h 7.599993 m -11.359992,0.8 m 3.759999,0 h 7.599993 m -11.359992,2.32 m 3.759999,0 h 7.599993 m -11.359992,0.72 m 3.759999,0 h 7.599993 m -11.359992,0.8 m 3.759999,0 h 7.599993 m -11.359992,0.4 m 3.759999,0 h 7.599993 m -11.359992,1.12 m 3.759999,0 h 7.599993 m -11.359992,0.8 m 3.759999,0 h 7.599993 m -11.359992,0.4 m 3.759999,0 h 7.599993 m -11.359992,0.72 m 3.759999,0 h 7.599993 m -11.359992,1.52 m 3.759999,0 h 7.599993 m -11.359992,2.32 m 3.759999,0 h 7.599993 m -11.359992,1.2 m 3.759999,0 h 7.599993 m -11.359992,7.27999 m 3.759999,0 h 7.599993 m -11.359992,1.92 m 3.759999,0 h 7.599993 m -11.359992,0.4 m 3.759999,0 h 7.599993 m -11.359992,4.24 m 3.759999,0 h 7.599993 m -11.359992,1.12 m 3.759999,0 h 7.599993 m -11.359992,5.04 m 3.759999,0 h 7.599993 m -11.359992,4.56 m 3.759999,0 h 7.599993 m -11.359992,4.64 m 3.759999,0 h 7.599993 m -11.359992,2.32 m 3.759999,0 h 7.599993 m -11.359992,2.71999 m 3.759999,0 h 7.599993 m -11.359992,3.04 m 3.759999,0 h 7.599993 m -11.359992,0.4 m 3.759999,0 h 7.599993 m -11.359992,1.92 m 3.759999,0 h 7.599993 m -11.359992,1.92 m 3.759999,0 h 7.599993 m -11.359992,0.4 m 3.759999,0 h 7.599993 m -11.359992,2.24 m 3.759999,0 h 7.599993 m -11.359992,0.4 m 3.759999,0 h 7.599993 m -11.359992,1.92 m 3.759999,0 h 7.599993 m -11.359992,2.72 m 3.759999,0 h 7.599993 m -11.359992,2.72 m 3.759999,0 h 7.599993 m -11.359992,0.72 m 3.759999,0 h 7.599993 m -11.359992,2.32 m 3.759999,0 h 7.599993 m -11.359992,3.12 m 3.759999,0 h 7.599993 m -11.359992,1.52 m 3.759999,0 h 7.599993 m -11.359992,1.91999 m 3.759999,0 h 7.599993 m -11.359992,2.32 m 3.759999,0 h 7.599993 m -11.359992,5.76 m 3.759999,0 h 7.599993 m -11.359992,3.04 m 3.759999,0 h 7.599993 m -11.359992,0.4 m 3.759999,0 h 7.599993 m -11.359992,3.04 m 3.759999,0 h 7.599993 m -11.359992,1.6 m 3.759999,0 h 7.599993"
         id="path13"
         inkscape:connector-curvature="0" />
      <path
         style="fill:none;stroke:#ff0000;stroke-width:3.75999856px;stroke-linecap:round;stroke-linejoin:round;stroke-miterlimit:10;stroke-dasharray:none;stroke-opacity:1"
         d="m 121.83996,269.0399 v 0 m -9.52,0 h 18.87999"
         id="path15"
         inkscape:connector-curvature="0" />
      <path
         style="fill:#ff0000;fill-opacity:1;fill-rule:evenodd;stroke:#ff0000;stroke-width:3.75999856px;stroke-linecap:round;stroke-linejoin:round;stroke-miterlimit:10;stroke-dasharray:none;stroke-opacity:1"
         d="m 112.31996,269.0399 v 0 h 9.52 9.35999 v 0 h -9.35999 z m 9.52,0 v 14.96 m -9.52,0 h 18.87999"
         id="path17"
         inkscape:connector-curvature="0" />
      <text
         xml:space="preserve"
         style="font-style:normal;font-variant:normal;font-weight:700;font-size:24px;line-height:125%;font-family:Arial;text-align:start;letter-spacing:0px;word-spacing:0px;text-anchor:start;fill:#000000;fill-opacity:1;stroke:none"
         transform="rotate(90,-40.239986,201.51993)"
         x="0"
         y="21.726562"
         id="text23"><tspan
           sodipodi:role="line"
           x="0"
           y="21.726562"
           id="tspan21"><tspan
             dx="0"
             dy="0"
             style="font-style:normal;font-variant:normal;font-weight:700;font-size:24px;font-family:Arial;fill:#ff0000"
             id="tspan19">h3_h1</tspan></tspan></text>
      <text
         xml:space="preserve"
         style="font-style:normal;font-variant:normal;font-weight:700;font-size:18.625px;line-height:125%;font-family:Arial;text-align:start;letter-spacing:0px;word-spacing:0px;text-anchor:start;fill:#000000;fill-opacity:1;stroke:none"
         transform="translate(89.439968)"
         x="0"
         y="16.860718"
         id="text29"><tspan
           sodipodi:role="line"
           x="0"
           y="16.860718"
           id="tspan27"><tspan
             dx="0"
             dy="0"
             style="font-style:normal;font-variant:normal;font-weight:700;font-size:18.625px;font-family:Arial;fill:#000000"
             id="tspan25">2</tspan></tspan></text>
      <path
         style="fill:none;stroke:#000000;stroke-width:3.75999856px;stroke-linecap:round;stroke-linejoin:round;stroke-miterlimit:10;stroke-dasharray:none;stroke-opacity:1"
         d="M 99.839964,0 M 1.9999993,0 M 236.87992,0 m 0,111.35996 c 0,-3.13698 2.54302,-5.68 5.67999,-5.68 v 0 c 3.13698,0 5.68,2.54302 5.68,5.68 v 313.35989 c 0,3.13697 -2.54302,5.68 -5.68,5.68 v 0 c -3.13697,0 -5.67999,-2.54303 -5.67999,-5.68 z m 0,0 m 3.75999,0 h 7.6 m -11.35999,0.8 m 3.75999,0 h 7.6 m -11.35999,2.64 m 3.75999,0 h 7.6 m -11.35999,1.2 m 3.75999,0 h 7.6 m -11.35999,1.92 m 3.75999,0 h 7.6 m -11.35999,1.12 m 3.75999,0 h 7.6 m -11.35999,0.4 m 3.75999,0 h 7.6 m -11.35999,0.8 m 3.75999,0 h 7.6 m -11.35999,1.12 m 3.75999,0 h 7.6 m -11.35999,2.72 m 3.75999,0 h 7.6 m -11.35999,0.72 m 3.75999,0 h 7.6 m -11.35999,3.43999 m 3.75999,0 h 7.6 m -11.35999,1.6 m 3.75999,0 h 7.6 m -11.35999,2.64 m 3.75999,0 h 7.6 m -11.35999,2.32 m 3.75999,0 h 7.6 m -11.35999,1.52 m 3.75999,0 h 7.6 m -11.35999,4.24 m 3.75999,0 h 7.6 m -11.35999,1.2 m 3.75999,0 h 7.6 m -11.35999,0.72 m 3.75999,0 h 7.6 m -11.35999,1.2 m 3.75999,0 h 7.6 m -11.35999,2.32 m 3.75999,0 h 7.6 m -11.35999,1.52 m 3.75999,0 h 7.6 m -11.35999,2.64 m 3.75999,0 h 7.6 m -11.35999,0.4 m 3.75999,0 h 7.6 m -11.35999,3.12 m 3.75999,0 h 7.6 m -11.35999,1.91999 m 3.75999,0 h 7.6 m -11.35999,0.72 m 3.75999,0 h 7.6 m -11.35999,0.4 m 3.75999,0 h 7.6 m -11.35999,2.72 m 3.75999,0 h 7.6 m -11.35999,0.72 m 3.75999,0 h 7.6 m -11.35999,1.92 m 3.75999,0 h 7.6 m -11.35999,1.6 m 3.75999,0 h 7.6 m -11.35999,1.92 m 3.75999,0 h 7.6 m -11.35999,1.12 m 3.75999,0 h 7.6 m -11.35999,1.52 m 3.75999,0 h 7.6 m -11.35999,3.52 m 3.75999,0 h 7.6 m -11.35999,0.72 m 3.75999,0 h 7.6 m -11.35999,1.52 m 3.75999,0 h 7.6 m -11.35999,2.32 m 3.75999,0 h 7.6 m -11.35999,1.2 m 3.75999,0 h 7.6 m -11.35999,1.92 m 3.75999,0 h 7.6 m -11.35999,1.12 m 3.75999,0 h 7.6 m -11.35999,0.8 m 3.75999,0 h 7.6 m -11.35999,1.91999 m 3.75999,0 h 7.6 m -11.35999,0.72 m 3.75999,0 h 7.6 m -11.35999,0.8 m 3.75999,0 h 7.6 m -11.35999,1.92 m 3.75999,0 h 7.6 m -11.35999,1.2 m 3.75999,0 h 7.6 m -11.35999,1.52 m 3.75999,0 h 7.6 m -11.35999,1.12 m 3.75999,0 h 7.6 m -11.35999,1.2 m 3.75999,0 h 7.6 m -11.35999,1.12 m 3.75999,0 h 7.6 m -11.35999,0.4 m 3.75999,0 h 7.6 m -11.35999,3.04 m 3.75999,0 h 7.6 m -11.35999,3.12 m 3.75999,0 h 7.6 m -11.35999,1.12 m 3.75999,0 h 7.6 m -11.35999,1.2 m 3.75999,0 h 7.6 m -11.35999,0.32 m 3.75999,0 h 7.6 m -11.35999,9.99999 m 3.75999,0 h 7.6 m -11.35999,0.8 m 3.75999,0 h 7.6 m -11.35999,3.44 m 3.75999,0 h 7.6 m -11.35999,4.24 m 3.75999,0 h 7.6 m -11.35999,1.12 m 3.75999,0 h 7.6 m -11.35999,4.64 m 3.75999,0 h 7.6 m -11.35999,0.8 m 3.75999,0 h 7.6 m -11.35999,9.6 m 3.75999,0 h 7.6 m -11.35999,4.23999 m 3.75999,0 h 7.6 m -11.35999,1.12 m 3.75999,0 h 7.6 m -11.35999,1.52 m 3.75999,0 h 7.6 m -11.35999,3.12 m 3.75999,0 h 7.6 m -11.35999,2.32 m 3.75999,0 h 7.6 m -11.35999,1.92 m 3.75999,0 h 7.6 m -11.35999,3.44 m 3.75999,0 h 7.6 m -11.35999,2.32 m 3.75999,0 h 7.6 m -11.35999,0.72 m 3.75999,0 h 7.6 m -11.35999,5.04 m 3.75999,0 h 7.6 m -11.35999,1.12 m 3.75999,0 h 7.6 m -11.35999,13.83999 m 3.75999,0 h 7.6 m -11.35999,6.96 m 3.75999,0 h 7.6 m -11.35999,2.72 m 3.75999,0 h 7.6 m -11.35999,1.92 m 3.75999,0 h 7.6 m -11.35999,1.92 m 3.75999,0 h 7.6 m -11.35999,8.07999 m 3.75999,0 h 7.6 m -11.35999,1.92 m 3.75999,0 h 7.6 m -11.35999,0.32 m 3.75999,0 h 7.6 m -11.35999,0.4 m 3.75999,0 h 7.6 m -11.35999,0.4 m 3.75999,0 h 7.6 m -11.35999,1.92 m 3.75999,0 h 7.6 m -11.35999,1.2 m 3.75999,0 h 7.6 m -11.35999,0.72 m 3.75999,0 h 7.6 m -11.35999,0.4 m 3.75999,0 h 7.6 m -11.35999,1.52 m 3.75999,0 h 7.6 m -11.35999,2.72 m 3.75999,0 h 7.6 m -11.35999,0.4 m 3.75999,0 h 7.6 m -11.35999,3.44 m 3.75999,0 h 7.6 m -11.35999,3.04 m 3.75999,0 h 7.6 m -11.35999,1.6 m 3.75999,0 h 7.6 m -11.35999,4.55999 m 3.75999,0 h 7.6 m -11.35999,9.6 m 3.75999,0 h 7.6 m -11.35999,2.72 m 3.75999,0 h 7.6 m -11.35999,2.72 m 3.75999,0 h 7.6 m -11.35999,0.72 m 3.75999,0 h 7.6 m -11.35999,1.6 m 3.75999,0 h 7.6 m -11.35999,0.72 m 3.75999,0 h 7.6 m -11.35999,0.8 m 3.75999,0 h 7.6 m -11.35999,1.12 m 3.75999,0 h 7.6 m -11.35999,4.64 m 3.75999,0 h 7.6 m -11.35999,0.4 m 3.75999,0 h 7.6 m -11.35999,0.32 m 3.75999,0 h 7.6 m -11.35999,0.8 m 3.75999,0 h 7.6 m -11.35999,5.03999 m 3.75999,0 h 7.6 m -11.35999,0.72 m 3.75999,0 h 7.6 m -11.35999,8.48 m 3.75999,0 h 7.6 m -11.35999,2.72 m 3.75999,0 h 7.6 m -11.35999,0.32 m 3.75999,0 h 7.6 m -11.35999,3.12 m 3.75999,0 h 7.6 m -11.35999,1.92 m 3.75999,0 h 7.6 m -11.35999,2.72 m 3.75999,0 h 7.6 m -11.35999,0.32 m 3.75999,0 h 7.6 m -11.35999,3.51999 m 3.75999,0 h 7.6 m -11.35999,1.12 m 3.75999,0 h 7.6 m -11.35999,2.72 m 3.75999,0 h 7.6 m -11.35999,1.12 m 3.75999,0 h 7.6 m -11.35999,2.72 m 3.75999,0 h 7.6 m -11.35999,1.12 m 3.75999,0 h 7.6 m -11.35999,1.2 m 3.75999,0 h 7.6 m -11.35999,5.76 m 3.75999,0 h 7.6 m -11.35999,2.24 m 3.75999,0 h 7.6 m -11.35999,4.24 m 3.75999,0 h 7.6 m -11.35999,0.4 m 3.75999,0 h 7.6 m -11.35999,1.92 m 3.75999,0 h 7.6 m -11.35999,3.83999 m 3.75999,0 h 7.6 m -11.35999,0.8 m 3.75999,0 h 7.6 m -11.35999,1.92 m 3.75999,0 h 7.6 m -11.35999,0.4 m 3.75999,0 h 7.6 m -11.35999,7.28 m 3.75999,0 h 7.6 m -11.35999,1.52 m 3.75999,0 h 7.6 m -11.35999,0.4 m 3.75999,0 h 7.6 m -11.35999,0.8 m 3.75999,0 h 7.6 m -11.35999,3.04 m 3.75999,0 h 7.6 m -11.35999,0.4 m 3.75999,0 h 7.6 m -11.35999,1.12 m 3.75999,0 h 7.6"
         id="path31"
         inkscape:connector-curvature="0" />
      <text
         xml:space="preserve"
         style="font-style:normal;font-variant:normal;font-weight:700;font-size:18.625px;line-height:125%;font-family:Arial;text-align:start;letter-spacing:0px;word-spacing:0px;text-anchor:start;fill:#000000;fill-opacity:1;stroke:none"
         transform="translate(237.35991)"
         x="0"
         y="16.860718"
         id="text37"><tspan
           sodipodi:role="line"
           x="0"
           y="16.860718"
           id="tspan35"><tspan
             dx="0"
             dy="0"
             style="font-style:normal;font-variant:normal;font-weight:700;font-size:18.625px;font-family:Arial;fill:#000000"
             id="tspan33">3</tspan></tspan></text>
      <path
         style="fill:none;stroke:#000000;stroke-width:3.75999856px;stroke-linecap:round;stroke-linejoin:round;stroke-miterlimit:10;stroke-dasharray:none;stroke-opacity:1"
         d="M 247.75991,0 M 1.9999993,0 M 323.83988,0 m 0,111.35996 c 0,-3.13698 2.54303,-5.68 5.68,-5.68 v 0 c 3.13698,0 5.68,2.54302 5.68,5.68 v 279.5199 c 0,3.13698 -2.54302,5.68 -5.68,5.68 v 0 c -3.13697,0 -5.68,-2.54302 -5.68,-5.68 z m 0,0 m 3.76,0 h 7.6 m -11.36,1.12 m 3.76,0 h 7.6 m -11.36,8.48 m 3.76,0 h 7.6 m -11.36,1.52 m 3.76,0 h 7.6 m -11.36,6.55999 m 3.76,0 h 7.6 m -11.36,2.32 m 3.76,0 h 7.6 m -11.36,2.72 m 3.76,0 h 7.6 m -11.36,2.64 m 3.76,0 h 7.6 m -11.36,0.4 m 3.76,0 h 7.6 m -11.36,1.52 m 3.76,0 h 7.6 m -11.36,1.92 m 3.76,0 h 7.6 m -11.36,0.4 m 3.76,0 h 7.6 m -11.36,5.36 m 3.76,0 h 7.6 m -11.36,2.32 m 3.76,0 h 7.6 m -11.36,5.44 m 3.76,0 h 7.6 m -11.36,0.31999 m 3.76,0 h 7.6 m -11.36,0.8 m 3.76,0 h 7.6 m -11.36,0.4 m 3.76,0 h 7.6 m -11.36,0.72 m 3.76,0 h 7.6 m -11.36,1.92 m 3.76,0 h 7.6 m -11.36,1.2 m 3.76,0 h 7.6 m -11.36,1.12 m 3.76,0 h 7.6 m -11.36,1.92 m 3.76,0 h 7.6 m -11.36,7.36 m 3.76,0 h 7.6 m -11.36,4.96 m 3.76,0 h 7.6 m -11.36,3.44 m 3.76,0 h 7.6 m -11.36,6.95999 m 3.76,0 h 7.6 m -11.36,3.04 m 3.76,0 h 7.6 m -11.36,2.72 m 3.76,0 h 7.6 m -11.36,1.12 m 3.76,0 h 7.6 m -11.36,10 m 3.76,0 h 7.6 m -11.36,8.87999 m 3.76,0 h 7.6 m -11.36,3.44 m 3.76,0 h 7.6 m -11.36,4.24 m 3.76,0 h 7.6 m -11.36,1.52 m 3.76,0 h 7.6 m -11.36,9.28 m 3.76,0 h 7.6 m -11.36,5.76 m 3.76,0 h 7.6 m -11.36,3.83999 m 3.76,0 h 7.6 m -11.36,1.12 m 3.76,0 h 7.6 m -11.36,2.72 m 3.76,0 h 7.6 m -11.36,3.04 m 3.76,0 h 7.6 m -11.36,0.4 m 3.76,0 h 7.6 m -11.36,2.32 m 3.76,0 h 7.6 m -11.36,2.32 m 3.76,0 h 7.6 m -11.36,1.12 m 3.76,0 h 7.6 m -11.36,1.52 m 3.76,0 h 7.6 m -11.36,2.32 m 3.76,0 h 7.6 m -11.36,1.2 m 3.76,0 h 7.6 m -11.36,3.44 m 3.76,0 h 7.6 m -11.36,1.12 m 3.76,0 h 7.6 m -11.36,1.6 m 3.76,0 h 7.6 m -11.36,0.72 m 3.76,0 h 7.6 m -11.36,3.43999 m 3.76,0 h 7.6 m -11.36,0.4 m 3.76,0 h 7.6 m -11.36,2.32 m 3.76,0 h 7.6 m -11.36,5.76 m 3.76,0 h 7.6 m -11.36,1.92 m 3.76,0 h 7.6 m -11.36,1.52 m 3.76,0 h 7.6 m -11.36,2 m 3.76,0 h 7.6 m -11.36,0.32 m 3.76,0 h 7.6 m -11.36,2.32 m 3.76,0 h 7.6 m -11.36,0.4 m 3.76,0 h 7.6 m -11.36,2.32 m 3.76,0 h 7.6 m -11.36,9.19999 m 3.76,0 h 7.6 m -11.36,1.2 m 3.76,0 h 7.6 m -11.36,6.08 m 3.76,0 h 7.6 m -11.36,0.8 m 3.76,0 h 7.6 m -11.36,4.24 m 3.76,0 h 7.6 m -11.36,2.72 m 3.76,0 h 7.6 m -11.36,1.52 m 3.76,0 h 7.6 m -11.36,2.64 m 3.76,0 h 7.6 m -11.36,4.64 m 3.76,0 h 7.6 m -11.36,2.32 m 3.76,0 h 7.6 m -11.36,0.39999 m 3.76,0 h 7.6 m -11.36,2.64 m 3.76,0 h 7.6 m -11.36,2.32 m 3.76,0 h 7.6 m -11.36,2.32 m 3.76,0 h 7.6 m -11.36,0.8 m 3.76,0 h 7.6 m -11.36,0.4 m 3.76,0 h 7.6 m -11.36,1.52 m 3.76,0 h 7.6 m -11.36,4.24 m 3.76,0 h 7.6 m -11.36,4.24 m 3.76,0 h 7.6 m -11.36,0.72 m 3.76,0 h 7.6 m -11.36,0.4 m 3.76,0 h 7.6 m -11.36,1.12 m 3.76,0 h 7.6 m -11.36,2.72 m 3.76,0 h 7.6 m -11.36,1.12 m 3.76,0 h 7.6 m -11.36,1.6 m 3.76,0 h 7.6 m -11.36,1.91999 m 3.76,0 h 7.6 m -11.36,1.12 m 3.76,0 h 7.6 m -11.36,1.2 m 3.76,0 h 7.6 m -11.36,3.04 m 3.76,0 h 7.6 m -11.36,1.52 m 3.76,0 h 7.6 m -11.36,3.12 m 3.76,0 h 7.6 m -11.36,3.84 m 3.76,0 h 7.6 m -11.36,2.32 m 3.76,0 h 7.6 m -11.36,1.52 m 3.76,0 h 7.6 m -11.36,1.92 m 3.76,0 h 7.6 m -11.36,1.92 m 3.76,0 h 7.6 m -11.36,0.72 m 3.76,0 h 7.6 m -11.36,3.52 m 3.76,0 h 7.6 m -11.36,0.72 m 3.76,0 h 7.6 m -11.36,10.39999 m 3.76,0 h 7.6 m -11.36,0.4 m 3.76,0 h 7.6 m -11.36,0.8 m 3.76,0 h 7.6 m -11.36,1.52 m 3.76,0 h 7.6 m -11.36,0.72 m 3.76,0 h 7.6"
         id="path39"
         inkscape:connector-curvature="0" />
      <path
         style="fill:none;stroke:#000000;stroke-width:3.75999856px;stroke-linecap:round;stroke-linejoin:round;stroke-miterlimit:10;stroke-dasharray:none;stroke-opacity:1"
         d="m 356.71987,111.35996 v 0 m -9.51999,0 h 18.87999"
         id="path41"
         inkscape:connector-curvature="0" />
      <path
         style="fill:#000000;fill-opacity:1;fill-rule:evenodd;stroke:#000000;stroke-width:3.75999856px;stroke-linecap:round;stroke-linejoin:round;stroke-miterlimit:10;stroke-dasharray:none;stroke-opacity:1"
         d="m 347.19988,111.35996 v 0 h 9.51999 9.36 v 0 h -9.36 z m 9.51999,0 v 9.6 m -9.51999,0 h 18.87999"
         id="path43"
         inkscape:connector-curvature="0" />
      <text
         xml:space="preserve"
         style="font-style:normal;font-variant:normal;font-weight:700;font-size:24px;line-height:125%;font-family:Arial;text-align:start;letter-spacing:0px;word-spacing:0px;text-anchor:start;fill:#000000;fill-opacity:1;stroke:none"
         transform="rotate(90,160.99994,235.15992)"
         x="0"
         y="21.726562"
         id="text49"><tspan
           sodipodi:role="line"
           x="0"
           y="21.726562"
           id="tspan47"><tspan
             dx="0"
             dy="0"
             style="font-style:normal;font-variant:normal;font-weight:700;font-size:24px;font-family:Arial;fill:#000000"
             id="tspan45">bd_gxe</tspan></tspan></text>
      <path
         style="fill:none;stroke:#000000;stroke-width:3.75999856px;stroke-linecap:round;stroke-linejoin:round;stroke-miterlimit:10;stroke-dasharray:none;stroke-opacity:1"
         d="m 356.71987,240.15991 v 0 m -9.51999,0 h 18.87999"
         id="path51"
         inkscape:connector-curvature="0" />
      <path
         style="fill:#000000;fill-opacity:1;fill-rule:evenodd;stroke:#000000;stroke-width:3.75999856px;stroke-linecap:round;stroke-linejoin:round;stroke-miterlimit:10;stroke-dasharray:none;stroke-opacity:1"
         d="m 347.19988,240.15991 v 0 h 9.51999 9.36 v 0 h -9.36 z m 9.51999,0 v 35.75999 m -9.51999,0 h 18.87999"
         id="path53"
         inkscape:connector-curvature="0" />
      <text
         xml:space="preserve"
         style="font-style:normal;font-variant:normal;font-weight:700;font-size:24px;line-height:125%;font-family:Arial;text-align:start;letter-spacing:0px;word-spacing:0px;text-anchor:start;fill:#000000;fill-opacity:1;stroke:none"
         transform="rotate(90,90.079968,306.07989)"
         x="0"
         y="21.726562"
         id="text59"><tspan
           sodipodi:role="line"
           x="0"
           y="21.726562"
           id="tspan57"><tspan
             dx="0"
             dy="0"
             style="font-style:normal;font-variant:normal;font-weight:700;font-size:24px;font-family:Arial;fill:#000000"
             id="tspan55">bd_gxe</tspan></tspan></text>
      <path
         style="fill:none;stroke:#008000;stroke-width:3.75999856px;stroke-linecap:round;stroke-linejoin:round;stroke-miterlimit:10;stroke-dasharray:none;stroke-opacity:1"
         d="m 417.67985,111.35996 v 0 m -9.52,0 h 18.88"
         id="path61"
         inkscape:connector-curvature="0" />
      <path
         style="fill:#008000;fill-opacity:1;fill-rule:evenodd;stroke:#008000;stroke-width:3.75999856px;stroke-linecap:round;stroke-linejoin:round;stroke-miterlimit:10;stroke-dasharray:none;stroke-opacity:1"
         d="m 408.15985,111.35996 v 0 h 9.52 9.36 v 0 h -9.36 z m 9.52,0 v 9.6 m -9.52,0 h 18.88"
         id="path63"
         inkscape:connector-curvature="0" />
      <text
         xml:space="preserve"
         style="font-style:normal;font-variant:normal;font-weight:700;font-size:24px;line-height:125%;font-family:Arial;text-align:start;letter-spacing:0px;word-spacing:0px;text-anchor:start;fill:#000000;fill-opacity:1;stroke:none"
         transform="rotate(90,184.83993,272.2799)"
         x="0"
         y="21.726562"
         id="text69"><tspan
           sodipodi:role="line"
           x="0"
           y="21.726562"
           id="tspan67"><tspan
             dx="0"
             dy="0"
             style="font-style:normal;font-variant:normal;font-weight:700;font-size:24px;font-family:Arial;fill:#008000"
             id="tspan65">i_dry</tspan></tspan></text>
      <path
         style="fill:none;stroke:#000080;stroke-width:3.75999856px;stroke-linecap:round;stroke-linejoin:round;stroke-miterlimit:10;stroke-dasharray:none;stroke-opacity:1"
         d="m 478.63983,111.35996 v 0 m -9.52,0 h 18.88"
         id="path71"
         inkscape:connector-curvature="0" />
      <path
         style="fill:#000080;fill-opacity:1;fill-rule:evenodd;stroke:#000080;stroke-width:3.75999856px;stroke-linecap:round;stroke-linejoin:round;stroke-miterlimit:10;stroke-dasharray:none;stroke-opacity:1"
         d="m 469.11983,111.35996 v 0 h 9.52 9.36 v 0 h -9.36 z m 9.52,0 v 9.6 m -9.52,0 h 18.88"
         id="path73"
         inkscape:connector-curvature="0" />
      <text
         xml:space="preserve"
         style="font-style:normal;font-variant:normal;font-weight:700;font-size:24px;line-height:125%;font-family:Arial;text-align:start;letter-spacing:0px;word-spacing:0px;text-anchor:start;fill:#000000;fill-opacity:1;stroke:none"
         transform="rotate(90,215.99992,302.07989)"
         x="0"
         y="21.726562"
         id="text79"><tspan
           sodipodi:role="line"
           x="0"
           y="21.726562"
           id="tspan77"><tspan
             dx="0"
             dy="0"
             style="font-style:normal;font-variant:normal;font-weight:700;font-size:24px;font-family:Arial;fill:#000080"
             id="tspan75">r_dry</tspan></tspan></text>
      <path
         style="fill:none;stroke:#000080;stroke-width:3.75999856px;stroke-linecap:round;stroke-linejoin:round;stroke-miterlimit:10;stroke-dasharray:none;stroke-opacity:1"
         d="m 478.63983,248.63991 v 0 m -9.52,0 h 18.88"
         id="path81"
         inkscape:connector-curvature="0" />
      <path
         style="fill:#000080;fill-opacity:1;fill-rule:evenodd;stroke:#000080;stroke-width:3.75999856px;stroke-linecap:round;stroke-linejoin:round;stroke-miterlimit:10;stroke-dasharray:none;stroke-opacity:1"
         d="m 469.11983,248.63991 v 0 h 9.52 9.36 v 0 h -9.36 z m 9.52,0 v 14.64 m -9.52,0 h 18.88"
         id="path83"
         inkscape:connector-curvature="0" />
      <text
         xml:space="preserve"
         style="font-style:normal;font-variant:normal;font-weight:700;font-size:24px;line-height:125%;font-family:Arial;text-align:start;letter-spacing:0px;word-spacing:0px;text-anchor:start;fill:#000000;fill-opacity:1;stroke:none"
         transform="rotate(90,146.11995,371.95987)"
         x="0"
         y="21.726562"
         id="text89"><tspan
           sodipodi:role="line"
           x="0"
           y="21.726562"
           id="tspan87"><tspan
             dx="0"
             dy="0"
             style="font-style:normal;font-variant:normal;font-weight:700;font-size:24px;font-family:Arial;fill:#000080"
             id="tspan85">r_dry</tspan></tspan></text>
      <text
         xml:space="preserve"
         style="font-style:normal;font-variant:normal;font-weight:700;font-size:18.625px;line-height:125%;font-family:Arial;text-align:start;letter-spacing:0px;word-spacing:0px;text-anchor:start;fill:#000000;fill-opacity:1;stroke:none"
         transform="translate(324.31988)"
         x="0"
         y="16.860718"
         id="text95"><tspan
           sodipodi:role="line"
           x="0"
           y="16.860718"
           id="tspan93"><tspan
             dx="0"
             dy="0"
             style="font-style:normal;font-variant:normal;font-weight:700;font-size:18.625px;font-family:Arial;fill:#000000"
             id="tspan91">4</tspan></tspan></text>
      <path
         style="fill:none;stroke:#000000;stroke-width:3.75999856px;stroke-linecap:round;stroke-linejoin:round;stroke-miterlimit:10;stroke-dasharray:none;stroke-opacity:1"
         d="M 334.71988,0 M 1.9999993,0 M 593.67979,0 m 0,111.35996 c 0,-3.13698 2.54302,-5.68 5.68,-5.68 v 0 c 3.13697,0 5.67999,2.54302 5.67999,5.68 v 411.83985 c 0,3.13698 -2.54302,5.68 -5.67999,5.68 v 0 c -3.13698,0 -5.68,-2.54302 -5.68,-5.68 z m 0,0 m 3.76,0 h 7.59999 m -11.35999,0.8 m 3.76,0 h 7.59999 m -11.35999,3.44 m 3.76,0 h 7.59999 m -11.35999,6.88 m 3.76,0 h 7.59999 m -11.35999,0.4 m 3.76,0 h 7.59999 m -11.35999,3.43999 m 3.76,0 h 7.59999 m -11.35999,1.92 m 3.76,0 h 7.59999 m -11.35999,3.92 m 3.76,0 h 7.59999 m -11.35999,2.64 m 3.76,0 h 7.59999 m -11.35999,2.32 m 3.76,0 h 7.59999 m -11.35999,0.8 m 3.76,0 h 7.59999 m -11.35999,5.76 m 3.76,0 h 7.59999 m -11.35999,0.72 m 3.76,0 h 7.59999 m -11.35999,2.32 m 3.76,0 h 7.59999 m -11.35999,2.32 m 3.76,0 h 7.59999 m -11.35999,1.52 m 3.76,0 h 7.59999 m -11.35999,0.8 m 3.76,0 h 7.59999 m -11.35999,1.12 m 3.76,0 h 7.59999 m -11.35999,1.2 m 3.76,0 h 7.59999 m -11.35999,0.71999 m 3.76,0 h 7.59999 m -11.35999,1.2 m 3.76,0 h 7.59999 m -11.35999,1.52 m 3.76,0 h 7.59999 m -11.35999,1.92 m 3.76,0 h 7.59999 m -11.35999,1.92 m 3.76,0 h 7.59999 m -11.35999,1.52 m 3.76,0 h 7.59999 m -11.35999,6.96 m 3.76,0 h 7.59999 m -11.35999,0.72 m 3.76,0 h 7.59999 m -11.35999,0.8 m 3.76,0 h 7.59999 m -11.35999,0.4 m 3.76,0 h 7.59999 m -11.35999,4.24 m 3.76,0 h 7.59999 m -11.35999,1.92 m 3.76,0 h 7.59999 m -11.35999,4.56 m 3.76,0 h 7.59999 m -11.35999,1.59999 m 3.76,0 h 7.59999 m -11.35999,1.92 m 3.76,0 h 7.59999 m -11.35999,1.92 m 3.76,0 h 7.59999 m -11.35999,1.92 m 3.76,0 h 7.59999 m -11.35999,3.04 m 3.76,0 h 7.59999 m -11.35999,1.92 m 3.76,0 h 7.59999 m -11.35999,4.24 m 3.76,0 h 7.59999 m -11.35999,3.44 m 3.76,0 h 7.59999 m -11.35999,2.72 m 3.76,0 h 7.59999 m -11.35999,0.4 m 3.76,0 h 7.59999 m -11.35999,4.24 m 3.76,0 h 7.59999 m -11.35999,5.75999 m 3.76,0 h 7.59999 m -11.35999,3.04 m 3.76,0 h 7.59999 m -11.35999,3.84 m 3.76,0 h 7.59999 m -11.35999,1.6 m 3.76,0 h 7.59999 m -11.35999,1.92 m 3.76,0 h 7.59999 m -11.35999,3.44 m 3.76,0 h 7.59999 m -11.35999,2.32 m 3.76,0 h 7.59999 m -11.35999,5.36 m 3.76,0 h 7.59999 m -11.35999,4.63999 m 3.76,0 h 7.59999 m -11.35999,6.88 m 3.76,0 h 7.59999 m -11.35999,2.32 m 3.76,0 h 7.59999 m -11.35999,1.52 m 3.76,0 h 7.59999 m -11.35999,0.8 m 3.76,0 h 7.59999 m -11.35999,2.64 m 3.76,0 h 7.59999 m -11.35999,3.12 m 3.76,0 h 7.59999 m -11.35999,8.79999 m 3.76,0 h 7.59999 m -11.35999,1.2 m 3.76,0 h 7.59999 m -11.35999,3.84 m 3.76,0 h 7.59999 m -11.35999,7.28 m 3.76,0 h 7.59999 m -11.35999,8.08 m 3.76,0 h 7.59999 m -11.35999,1.92 m 3.76,0 h 7.59999 m -11.35999,3.84 m 3.76,0 h 7.59999 m -11.35999,0.4 m 3.76,0 h 7.59999 m -11.35999,1.91999 m 3.76,0 h 7.59999 m -11.35999,0.4 m 3.76,0 h 7.59999 m -11.35999,0.4 m 3.76,0 h 7.59999 m -11.35999,2.32 m 3.76,0 h 7.59999 m -11.35999,2.64 m 3.76,0 h 7.59999 m -11.35999,2.72 m 3.76,0 h 7.59999 m -11.35999,1.52 m 3.76,0 h 7.59999 m -11.35999,5.36 m 3.76,0 h 7.59999 m -11.35999,0.4 m 3.76,0 h 7.59999 m -11.35999,3.84 m 3.76,0 h 7.59999 m -11.35999,5.04 m 3.76,0 h 7.59999 m -11.35999,2.63999 m 3.76,0 h 7.59999 m -11.35999,3.52 m 3.76,0 h 7.59999 m -11.35999,1.52 m 3.76,0 h 7.59999 m -11.35999,1.52 m 3.76,0 h 7.59999 m -11.35999,1.52 m 3.76,0 h 7.59999 m -11.35999,1.6 m 3.76,0 h 7.59999 m -11.35999,3.04 m 3.76,0 h 7.59999 m -11.35999,1.12 m 3.76,0 h 7.59999 m -11.35999,4.24 m 3.76,0 h 7.59999 m -11.35999,0.8 m 3.76,0 h 7.59999 m -11.35999,1.12 m 3.76,0 h 7.59999 m -11.35999,1.92 m 3.76,0 h 7.59999 m -11.35999,1.92 m 3.76,0 h 7.59999 m -11.35999,2.72 m 3.76,0 h 7.59999 m -11.35999,3.83999 m 3.76,0 h 7.59999 m -11.35999,0.8 m 3.76,0 h 7.59999 m -11.35999,3.84 m 3.76,0 h 7.59999 m -11.35999,1.92 m 3.76,0 h 7.59999 m -11.35999,2.64 m 3.76,0 h 7.59999 m -11.35999,2 m 3.76,0 h 7.59999 m -11.35999,0.32 m 3.76,0 h 7.59999 m -11.35999,5.76 m 3.76,0 h 7.59999 m -11.35999,0.8 m 3.76,0 h 7.59999 m -11.35999,1.12 m 3.76,0 h 7.59999 m -11.35999,0.4 m 3.76,0 h 7.59999 m -11.35999,1.6 m 3.76,0 h 7.59999 m -11.35999,1.92 m 3.76,0 h 7.59999 m -11.35999,0.72 m 3.76,0 h 7.59999 m -11.35999,0.8 m 3.76,0 h 7.59999 m -11.35999,2.31999 m 3.76,0 h 7.59999 m -11.35999,2.24 m 3.76,0 h 7.59999 m -11.35999,1.2 m 3.76,0 h 7.59999 m -11.35999,4.24 m 3.76,0 h 7.59999 m -11.35999,3.84 m 3.76,0 h 7.59999 m -11.35999,3.04 m 3.76,0 h 7.59999 m -11.35999,3.12 m 3.76,0 h 7.59999 m -11.35999,0.72 m 3.76,0 h 7.59999 m -11.35999,1.2 m 3.76,0 h 7.59999 m -11.35999,1.52 m 3.76,0 h 7.59999 m -11.35999,0.8 m 3.76,0 h 7.59999 m -11.35999,0.72 m 3.76,0 h 7.59999 m -11.35999,1.2 m 3.76,0 h 7.59999 m -11.35999,1.52 m 3.76,0 h 7.59999 m -11.35999,7.67999 m 3.76,0 h 7.59999 m -11.35999,1.12 m 3.76,0 h 7.59999 m -11.35999,3.52 m 3.76,0 h 7.59999 m -11.35999,2.24 m 3.76,0 h 7.59999 m -11.35999,2 m 3.76,0 h 7.59999 m -11.35999,0.32 m 3.76,0 h 7.59999 m -11.35999,0.8 m 3.76,0 h 7.59999 m -11.35999,3.04 m 3.76,0 h 7.59999 m -11.35999,1.6 m 3.76,0 h 7.59999 m -11.35999,3.44 m 3.76,0 h 7.59999 m -11.35999,0.72 m 3.76,0 h 7.59999 m -11.35999,1.6 m 3.76,0 h 7.59999 m -11.35999,2.31999 m 3.76,0 h 7.59999 m -11.35999,8 m 3.76,0 h 7.59999 m -11.35999,3.52 m 3.76,0 h 7.59999 m -11.35999,1.52 m 3.76,0 h 7.59999 m -11.35999,2.72 m 3.76,0 h 7.59999 m -11.35999,1.12 m 3.76,0 h 7.59999 m -11.35999,1.12 m 3.76,0 h 7.59999 m -11.35999,5.04 m 3.76,0 h 7.59999 m -11.35999,4.63999 m 3.76,0 h 7.59999 m -11.35999,1.12 m 3.76,0 h 7.59999 m -11.35999,0.4 m 3.76,0 h 7.59999 m -11.35999,1.92 m 3.76,0 h 7.59999 m -11.35999,0.72 m 3.76,0 h 7.59999 m -11.35999,2 m 3.76,0 h 7.59999 m -11.35999,1.52 m 3.76,0 h 7.59999 m -11.35999,3.04 m 3.76,0 h 7.59999 m -11.35999,1.92 m 3.76,0 h 7.59999 m -11.35999,1.52 m 3.76,0 h 7.59999 m -11.35999,4.24 m 3.76,0 h 7.59999 m -11.35999,1.6 m 3.76,0 h 7.59999 m -11.35999,0.72 m 3.76,0 h 7.59999 m -11.35999,9.59999 m 3.76,0 h 7.59999 m -11.35999,1.2 m 3.76,0 h 7.59999 m -11.35999,4.24 m 3.76,0 h 7.59999 m -11.35999,1.92 m 3.76,0 h 7.59999 m -11.35999,1.12 m 3.76,0 h 7.59999 m -11.35999,4.64 m 3.76,0 h 7.59999 m -11.35999,4.56 m 3.76,0 h 7.59999 m -11.35999,5.84 m 3.76,0 h 7.59999 m -11.35999,2.23999 m 3.76,0 h 7.59999 m -11.35999,1.2 m 3.76,0 h 7.59999 m -11.35999,1.12 m 3.76,0 h 7.59999 m -11.35999,0.8 m 3.76,0 h 7.59999"
         id="path97"
         inkscape:connector-curvature="0" />
      <path
         style="fill:none;stroke:#000000;stroke-width:3.75999856px;stroke-linecap:round;stroke-linejoin:round;stroke-miterlimit:10;stroke-dasharray:none;stroke-opacity:1"
         d="m 626.55978,162.47994 v 0 m -9.52,0 h 18.87999"
         id="path99"
         inkscape:connector-curvature="0" />
      <path
         style="fill:#000000;fill-opacity:1;fill-rule:evenodd;stroke:#000000;stroke-width:3.75999856px;stroke-linecap:round;stroke-linejoin:round;stroke-miterlimit:10;stroke-dasharray:none;stroke-opacity:1"
         d="m 617.03978,162.47994 v 0 h 9.52 9.35999 v 0 h -9.35999 z m 9.52,0 v 6.96 m -9.52,0 h 18.87999"
         id="path101"
         inkscape:connector-curvature="0" />
      <text
         xml:space="preserve"
         style="font-style:normal;font-variant:normal;font-weight:700;font-size:24px;line-height:125%;font-family:Arial;text-align:start;letter-spacing:0px;word-spacing:0px;text-anchor:start;fill:#000000;fill-opacity:1;stroke:none"
         transform="rotate(90,270.9999,394.99986)"
         x="0"
         y="21.726562"
         id="text107"><tspan
           sodipodi:role="line"
           x="0"
           y="21.726562"
           id="tspan105"><tspan
             dx="0"
             dy="0"
             style="font-style:normal;font-variant:normal;font-weight:700;font-size:24px;font-family:Arial;fill:#000000"
             id="tspan103">bd_gxe</tspan></tspan></text>
      <path
         style="fill:none;stroke:#ff0000;stroke-width:3.75999856px;stroke-linecap:round;stroke-linejoin:round;stroke-miterlimit:10;stroke-dasharray:none;stroke-opacity:1"
         d="m 687.51975,162.47994 v 0 m -9.51999,0 h 18.87999"
         id="path109"
         inkscape:connector-curvature="0" />
      <path
         style="fill:#ff0000;fill-opacity:1;fill-rule:evenodd;stroke:#ff0000;stroke-width:3.75999856px;stroke-linecap:round;stroke-linejoin:round;stroke-miterlimit:10;stroke-dasharray:none;stroke-opacity:1"
         d="m 677.99976,162.47994 v 0 h 9.51999 9.36 v 0 h -9.36 z m 9.51999,0 v 21.19999 m -9.51999,0 h 18.87999"
         id="path111"
         inkscape:connector-curvature="0" />
      <text
         xml:space="preserve"
         style="font-style:normal;font-variant:normal;font-weight:700;font-size:24px;line-height:125%;font-family:Arial;text-align:start;letter-spacing:0px;word-spacing:0px;text-anchor:start;fill:#000000;fill-opacity:1;stroke:none"
         transform="rotate(90,294.31989,432.63985)"
         x="0"
         y="21.726562"
         id="text117"><tspan
           sodipodi:role="line"
           x="0"
           y="21.726562"
           id="tspan115"><tspan
             dx="0"
             dy="0"
             style="font-style:normal;font-variant:normal;font-weight:700;font-size:24px;font-family:Arial;fill:#ff0000"
             id="tspan113">h3_h1</tspan></tspan></text>
      <path
         style="fill:none;stroke:#008000;stroke-width:3.75999856px;stroke-linecap:round;stroke-linejoin:round;stroke-miterlimit:10;stroke-dasharray:none;stroke-opacity:1"
         d="m 748.47973,162.47994 v 0 m -9.51999,0 h 18.87999"
         id="path119"
         inkscape:connector-curvature="0" />
      <path
         style="fill:#008000;fill-opacity:1;fill-rule:evenodd;stroke:#008000;stroke-width:3.75999856px;stroke-linecap:round;stroke-linejoin:round;stroke-miterlimit:10;stroke-dasharray:none;stroke-opacity:1"
         d="m 738.95974,162.47994 v 0 h 9.51999 9.36 v 0 h -9.36 z m 9.51999,0 v 19.6 m -9.51999,0 h 18.87999"
         id="path121"
         inkscape:connector-curvature="0" />
      <text
         xml:space="preserve"
         style="font-style:normal;font-variant:normal;font-weight:700;font-size:24px;line-height:125%;font-family:Arial;text-align:start;letter-spacing:0px;word-spacing:0px;text-anchor:start;fill:#000000;fill-opacity:1;stroke:none"
         transform="rotate(90,322.15988,465.75983)"
         x="0"
         y="21.726562"
         id="text127"><tspan
           sodipodi:role="line"
           x="0"
           y="21.726562"
           id="tspan125"><tspan
             dx="0"
             dy="0"
             style="font-style:normal;font-variant:normal;font-weight:700;font-size:24px;font-family:Arial;fill:#008000"
             id="tspan123">i_dry</tspan></tspan></text>
      <path
         style="fill:none;stroke:#000080;stroke-width:3.75999856px;stroke-linecap:round;stroke-linejoin:round;stroke-miterlimit:10;stroke-dasharray:none;stroke-opacity:1"
         d="m 748.47973,501.67982 v 0 m -9.51999,0 h 18.87999"
         id="path129"
         inkscape:connector-curvature="0" />
      <path
         style="fill:#000080;fill-opacity:1;fill-rule:evenodd;stroke:#000080;stroke-width:3.75999856px;stroke-linecap:round;stroke-linejoin:round;stroke-miterlimit:10;stroke-dasharray:none;stroke-opacity:1"
         d="m 738.95974,501.67982 v 0 h 9.51999 9.36 v 0 h -9.36 z m 9.51999,0 v 10.32 m -9.51999,0 h 18.87999"
         id="path131"
         inkscape:connector-curvature="0" />
      <text
         xml:space="preserve"
         style="font-style:normal;font-variant:normal;font-weight:700;font-size:24px;line-height:125%;font-family:Arial;text-align:start;letter-spacing:0px;word-spacing:0px;text-anchor:start;fill:#000000;fill-opacity:1;stroke:none"
         transform="rotate(90,155.55994,632.35977)"
         x="0"
         y="21.726562"
         id="text137"><tspan
           sodipodi:role="line"
           x="0"
           y="21.726562"
           id="tspan135"><tspan
             dx="0"
             dy="0"
             style="font-style:normal;font-variant:normal;font-weight:700;font-size:24px;font-family:Arial;fill:#000080"
             id="tspan133">r_dry</tspan></tspan></text>
      <path
         style="fill:none;stroke:#000080;stroke-width:3.75999856px;stroke-linecap:round;stroke-linejoin:round;stroke-miterlimit:10;stroke-dasharray:none;stroke-opacity:1"
         d="m 809.43971,152.47995 v 0 m -9.52,0 h 18.88"
         id="path139"
         inkscape:connector-curvature="0" />
      <path
         style="fill:#000080;fill-opacity:1;fill-rule:evenodd;stroke:#000080;stroke-width:3.75999856px;stroke-linecap:round;stroke-linejoin:round;stroke-miterlimit:10;stroke-dasharray:none;stroke-opacity:1"
         d="m 799.91971,152.47995 v 0 h 9.52 9.36 v 0 h -9.36 z m 9.52,0 v 23.11999 m -9.52,0 h 18.88"
         id="path141"
         inkscape:connector-curvature="0" />
      <text
         xml:space="preserve"
         style="font-style:normal;font-variant:normal;font-weight:700;font-size:24px;line-height:125%;font-family:Arial;text-align:start;letter-spacing:0px;word-spacing:0px;text-anchor:start;fill:#000000;fill-opacity:1;stroke:none"
         transform="rotate(90,357.43987,491.43982)"
         x="0"
         y="21.726562"
         id="text147"><tspan
           sodipodi:role="line"
           x="0"
           y="21.726562"
           id="tspan145"><tspan
             dx="0"
             dy="0"
             style="font-style:normal;font-variant:normal;font-weight:700;font-size:24px;font-family:Arial;fill:#000080"
             id="tspan143">r_dry</tspan></tspan></text>
      <text
         xml:space="preserve"
         style="font-style:normal;font-variant:normal;font-weight:700;font-size:18.625px;line-height:125%;font-family:Arial;text-align:start;letter-spacing:0px;word-spacing:0px;text-anchor:start;fill:#000000;fill-opacity:1;stroke:none"
         transform="translate(594.15979)"
         x="0"
         y="16.860718"
         id="text153"><tspan
           sodipodi:role="line"
           x="0"
           y="16.860718"
           id="tspan151"><tspan
             dx="0"
             dy="0"
             style="font-style:normal;font-variant:normal;font-weight:700;font-size:18.625px;font-family:Arial;fill:#000000"
             id="tspan149">5</tspan></tspan></text>
    </g>
  </g>
</svg>
