<?xml version="1.0" encoding="UTF-8" standalone="no"?>
<svg
   xmlns:dc="http://purl.org/dc/elements/1.1/"
   xmlns:cc="http://creativecommons.org/ns#"
   xmlns:rdf="http://www.w3.org/1999/02/22-rdf-syntax-ns#"
   xmlns:svg="http://www.w3.org/2000/svg"
   xmlns="http://www.w3.org/2000/svg"
   xmlns:sodipodi="http://sodipodi.sourceforge.net/DTD/sodipodi-0.dtd"
   xmlns:inkscape="http://www.inkscape.org/namespaces/inkscape"
   version="1.0"
   width="229.00999mm"
   height="166.00999mm"
   id="svg155"
   sodipodi:docname="GridLMM_gxe_cov_cis001_rotated.svg"
   inkscape:export-filename="C:\Users\James\Documents\GitHub\sar_qtl\figures\qtl_ci_linkage_map\img\gxe_qtl_linkage_cov_rotated.png"
   inkscape:export-xdpi="599.94305"
   inkscape:export-ydpi="599.94305"
   inkscape:version="0.92.4 (5da689c313, 2019-01-14)">
  <metadata
     id="metadata159">
    <rdf:RDF>
      <cc:Work
         rdf:about="">
        <dc:format>image/svg+xml</dc:format>
        <dc:type
           rdf:resource="http://purl.org/dc/dcmitype/StillImage" />
        <dc:title></dc:title>
      </cc:Work>
    </rdf:RDF>
  </metadata>
  <sodipodi:namedview
     pagecolor="#ffffff"
     bordercolor="#666666"
     borderopacity="1"
     objecttolerance="10"
     gridtolerance="10"
     guidetolerance="10"
     inkscape:pageopacity="0"
     inkscape:pageshadow="2"
     inkscape:window-width="1077"
     inkscape:window-height="751"
     id="namedview157"
     showgrid="false"
     inkscape:zoom="0.34660059"
     inkscape:cx="432.77479"
     inkscape:cy="313.71967"
     inkscape:window-x="1237"
     inkscape:window-y="273"
     inkscape:window-maximized="0"
     inkscape:current-layer="svg155" />
  <defs
     id="defs3">
    <pattern
       id="EMFhbasepattern"
       patternUnits="userSpaceOnUse"
       width="6"
       height="6"
       x="0"
       y="0" />
  </defs>
  <g
     id="g3939"
     transform="rotate(-90,347.39292,298.67241)">
    <path
       id="path5"
       d="m 2.0799993,0 m 0,0 m 0,0 m 0,111.35996 c 0,-3.09279 2.5072045,-5.6 5.599998,-5.6 h 0.1599999 c 3.0927938,0 5.5999978,2.50721 5.5999978,5.6 V 553.5998 c 0,3.0928 -2.507204,5.6 -5.5999978,5.6 H 7.6799973 c -3.0927935,0 -5.599998,-2.5072 -5.599998,-5.6 z m 0,0 m 3.8399986,0 h 7.5199971 m -11.3599957,2.24 m 3.8399986,0 h 7.5199971 m -11.3599957,2.4 m 3.8399986,0 h 7.5199971 m -11.3599957,1.92 m 3.8399986,0 h 7.5199971 m -11.3599957,2.72 m 3.8399986,0 h 7.5199971 m -11.3599957,0.32 m 3.8399986,0 h 7.5199971 m -11.3599957,4.64 m 3.8399986,0 h 7.5199971 m -11.3599957,2.23999 m 3.8399986,0 h 7.5199971 m -11.3599957,0.8 m 3.8399986,0 h 7.5199971 m -11.3599957,2.4 m 3.8399986,0 h 7.5199971 m -11.3599957,1.92 m 3.8399986,0 h 7.5199971 m -11.3599957,3.04 m 3.8399986,0 h 7.5199971 m -11.3599957,2.24 m 3.8399986,0 h 7.5199971 m -11.3599957,0.8 m 3.8399986,0 h 7.5199971 m -11.3599957,2.24 m 3.8399986,0 h 7.5199971 m -11.3599957,0.8 m 3.8399986,0 h 7.5199971 m -11.3599957,0.8 m 3.8399986,0 h 7.5199971 m -11.3599957,1.92 m 3.8399986,0 h 7.5199971 m -11.3599957,1.92 m 3.8399986,0 h 7.5199971 m -11.3599957,3.04 m 3.8399986,0 h 7.5199971 m -11.3599957,0.48 m 3.8399986,0 h 7.5199971 m -11.3599957,0.32 m 3.8399986,0 h 7.5199971 m -11.3599957,1.92 m 3.8399986,0 h 7.5199971 m -11.3599957,4.31999 m 3.8399986,0 h 7.5199971 m -11.3599957,0.32 m 3.8399986,0 h 7.5199971 m -11.3599957,0.8 m 3.8399986,0 h 7.5199971 m -11.3599957,2.72 m 3.8399986,0 h 7.5199971 m -11.3599957,4.16 m 3.8399986,0 h 7.5199971 m -11.3599957,1.92 m 3.8399986,0 h 7.5199971 m -11.3599957,4.64 m 3.8399986,0 h 7.5199971 m -11.3599957,3.04 m 3.8399986,0 h 7.5199971 m -11.3599957,2.4 m 3.8399986,0 h 7.5199971 m -11.3599957,3.36 m 3.8399986,0 h 7.5199971 m -11.3599957,2.71999 m 3.8399986,0 h 7.5199971 m -11.3599957,1.92 m 3.8399986,0 h 7.5199971 m -11.3599957,1.92 m 3.8399986,0 h 7.5199971 m -11.3599957,1.12 m 3.8399986,0 h 7.5199971 m -11.3599957,1.92 m 3.8399986,0 h 7.5199971 m -11.3599957,1.12 m 3.8399986,0 h 7.5199971 m -11.3599957,2.4 m 3.8399986,0 h 7.5199971 m -11.3599957,0.32 m 3.8399986,0 h 7.5199971 m -11.3599957,1.6 m 3.8399986,0 h 7.5199971 m -11.3599957,3.84 m 3.8399986,0 h 7.5199971 m -11.3599957,2.24 m 3.8399986,0 h 7.5199971 m -11.3599957,5.12 m 3.8399986,0 h 7.5199971 m -11.3599957,1.12 m 3.8399986,0 h 7.5199971 m -11.3599957,1.92 m 3.8399986,0 h 7.5199971 m -11.3599957,4.63999 m 3.8399986,0 h 7.5199971 m -11.3599957,6.56 m 3.8399986,0 h 7.5199971 m -11.3599957,3.04 m 3.8399986,0 h 7.5199971 m -11.3599957,2.24 m 3.8399986,0 h 7.5199971 m -11.3599957,1.92 m 3.8399986,0 h 7.5199971 m -11.3599957,3.04 m 3.8399986,0 h 7.5199971 m -11.3599957,0.48 m 3.8399986,0 h 7.5199971 m -11.3599957,1.92 m 3.8399986,0 h 7.5199971 m -11.3599957,0.32 m 3.8399986,0 h 7.5199971 m -11.3599957,2.4 m 3.8399986,0 h 7.5199971 m -11.3599957,2.23999 m 3.8399986,0 h 7.5199971 m -11.3599957,3.52 m 3.8399986,0 h 7.5199971 m -11.3599957,4.16 m 3.8399986,0 h 7.5199971 m -11.3599957,5.76 m 3.8399986,0 h 7.5199971 m -11.3599957,2.4 m 3.8399986,0 h 7.5199971 m -11.3599957,4.16 m 3.8399986,0 h 7.5199971 m -11.3599957,1.12 m 3.8399986,0 h 7.5199971 m -11.3599957,1.92 m 3.8399986,0 H 13.439995 M 2.0799993,268.9599 m 3.8399986,0 h 7.5199971 m -11.3599957,1.92 m 3.8399986,0 h 7.5199971 m -11.3599957,3.2 m 3.8399986,0 h 7.5199971 m -11.3599957,0.64 m 3.8399986,0 h 7.5199971 m -11.3599957,1.28 m 3.8399986,0 h 7.5199971 m -11.3599957,1.92 m 3.8399986,0 h 7.5199971 m -11.3599957,2.56 m 3.8399986,0 h 7.5199971 m -11.3599957,2.72 m 3.8399986,0 h 7.5199971 m -11.3599957,1.12 m 3.8399986,0 h 7.5199971 m -11.3599957,0.8 m 3.8399986,0 h 7.5199971 m -11.3599957,0.8 m 3.8399986,0 h 7.5199971 m -11.3599957,2.72 m 3.8399986,0 h 7.5199971 m -11.3599957,1.6 m 3.8399986,0 h 7.5199971 m -11.3599957,2.24 m 3.8399986,0 h 7.5199971 m -11.3599957,4.15999 m 3.8399986,0 h 7.5199971 m -11.3599957,6.56 m 3.8399986,0 h 7.5199971 m -11.3599957,11.2 m 3.8399986,0 h 7.5199971 m -11.3599957,4.64 m 3.8399986,0 h 7.5199971 m -11.3599957,1.12 m 3.8399986,0 h 7.5199971 m -11.3599957,3.03999 m 3.8399986,0 h 7.5199971 m -11.3599957,0.8 m 3.8399986,0 h 7.5199971 m -11.3599957,1.12 m 3.8399986,0 h 7.5199971 m -11.3599957,0.8 m 3.8399986,0 h 7.5199971 m -11.3599957,1.6 m 3.8399986,0 h 7.5199971 m -11.3599957,0.64 m 3.8399986,0 h 7.5199971 m -11.3599957,0.48 m 3.8399986,0 h 7.5199971 m -11.3599957,0.8 m 3.8399986,0 h 7.5199971 m -11.3599957,3.36 m 3.8399986,0 h 7.5199971 m -11.3599957,4.64 m 3.8399986,0 h 7.5199971 m -11.3599957,4.96 m 3.8399986,0 h 7.5199971 m -11.3599957,2.4 m 3.8399986,0 h 7.5199971 m -11.3599957,3.36 m 3.8399986,0 h 7.5199971 m -11.3599957,3.51999 m 3.8399986,0 h 7.5199971 m -11.3599957,1.92 m 3.8399986,0 h 7.5199971 m -11.3599957,3.04 m 3.8399986,0 h 7.5199971 m -11.3599957,5.76 m 3.8399986,0 h 7.5199971 m -11.3599957,1.28 m 3.8399986,0 h 7.5199971 m -11.3599957,1.12 m 3.8399986,0 h 7.5199971 m -11.3599957,1.92 m 3.8399986,0 h 7.5199971 m -11.3599957,3.84 m 3.8399986,0 h 7.5199971 m -11.3599957,1.12 m 3.8399986,0 h 7.5199971 m -11.3599957,2.24 m 3.8399986,0 h 7.5199971 m -11.3599957,2.72 m 3.8399986,0 h 7.5199971 m -11.3599957,4.63999 m 3.8399986,0 h 7.5199971 m -11.3599957,1.12 m 3.8399986,0 h 7.5199971 m -11.3599957,3.2 m 3.8399986,0 h 7.5199971 m -11.3599957,1.12 m 3.8399986,0 h 7.5199971 m -11.3599957,1.12 m 3.8399986,0 h 7.5199971 m -11.3599957,3.84 m 3.8399986,0 h 7.5199971 m -11.3599957,0.8 m 3.8399986,0 h 7.5199971 m -11.3599957,3.36 m 3.8399986,0 h 7.5199971 m -11.3599957,1.6 m 3.8399986,0 h 7.5199971 m -11.3599957,3.04 m 3.8399986,0 h 7.5199971 m -11.3599957,1.92 m 3.8399986,0 h 7.5199971 m -11.3599957,1.92 m 3.8399986,0 h 7.5199971 m -11.3599957,1.6 m 3.8399986,0 h 7.5199971 m -11.3599957,0.32 m 3.8399986,0 h 7.5199971 m -11.3599957,1.59999 m 3.8399986,0 h 7.5199971 m -11.3599957,1.92 m 3.8399986,0 h 7.5199971 m -11.3599957,3.84 m 3.8399986,0 h 7.5199971 m -11.3599957,1.6 m 3.8399986,0 h 7.5199971 m -11.3599957,3.36 m 3.8399986,0 h 7.5199971 m -11.3599957,0.8 m 3.8399986,0 h 7.5199971 m -11.3599957,0.32 m 3.8399986,0 h 7.5199971 m -11.3599957,0.8 m 3.8399986,0 h 7.5199971 m -11.3599957,0.8 m 3.8399986,0 h 7.5199971 m -11.3599957,1.6 m 3.8399986,0 h 7.5199971 m -11.3599957,1.92 m 3.8399986,0 h 7.5199971 m -11.3599957,1.44 m 3.8399986,0 h 7.5199971 m -11.3599957,2.72 m 3.8399986,0 h 7.5199971 m -11.3599957,6.55999 m 3.8399986,0 h 7.5199971 m -11.3599957,2.24 m 3.8399986,0 h 7.5199971 m -11.3599957,3.52 m 3.8399986,0 h 7.5199971 m -11.3599957,2.24 m 3.8399986,0 h 7.5199971 m -11.3599957,1.6 m 3.8399986,0 h 7.5199971 m -11.3599957,1.12 m 3.8399986,0 h 7.5199971 m -11.3599957,2.4 m 3.8399986,0 h 7.5199971 m -11.3599957,0.32 m 3.8399986,0 h 7.5199971 m -11.3599957,0.8 m 3.8399986,0 h 7.5199971 m -11.3599957,0.8 m 3.8399986,0 h 7.5199971 m -11.3599957,1.12 m 3.8399986,0 h 7.5199971 m -11.3599957,1.6 m 3.8399986,0 h 7.5199971 m -11.3599957,1.12 m 3.8399986,0 h 7.5199971 m -11.3599957,4.64 m 3.8399986,0 h 7.5199971 m -11.3599957,0.32 m 3.8399986,0 h 7.5199971 m -11.3599957,3.83999 m 3.8399986,0 h 7.5199971 m -11.3599957,5.44 m 3.8399986,0 h 7.5199971 m -11.3599957,4.96 m 3.8399986,0 h 7.5199971 m -11.3599957,3.84 m 3.8399986,0 h 7.5199971 m -11.3599957,1.12 m 3.8399986,0 h 7.5199971 m -11.3599957,4.32 m 3.8399986,0 h 7.5199971 m -11.3599957,0.32 m 3.8399986,0 h 7.5199971 m -11.3599957,3.04 m 3.8399986,0 h 7.5199971 m -11.3599957,1.12 m 3.8399986,0 h 7.5199971 m -11.3599957,0.8 m 3.8399986,0 h 7.5199971 m -11.3599957,2.71999 m 3.8399986,0 h 7.5199971 m -11.3599957,0.8 m 3.8399986,0 h 7.5199971 m -11.3599957,1.44 m 3.8399986,0 h 7.5199971 m -11.3599957,2.4 m 3.8399986,0 h 7.5199971 m -11.3599957,5.76 m 3.8399986,0 h 7.5199971 m -11.3599957,8.48 m 3.8399986,0 h 7.5199971 m -11.3599957,1.12 m 3.8399986,0 h 7.5199971 m -11.3599957,0.8 m 3.8399986,0 h 7.5199971 m -11.3599957,1.12 m 3.8399986,0 h 7.5199971 m -11.3599957,3.04 m 3.8399986,0 h 7.5199971 m -11.3599957,0.48 m 3.8399986,0 h 7.5199971 m -11.3599957,1.92 m 3.8399986,0 h 7.5199971 m -11.3599957,1.91999 m 3.8399986,0 h 7.5199971 m -11.3599957,0.8 m 3.8399986,0 h 7.5199971 m -11.3599957,1.92 m 3.8399986,0 h 7.5199971 m -11.3599957,3.36 m 3.8399986,0 h 7.5199971 m -11.3599957,0.48 m 3.8399986,0 h 7.5199971 m -11.3599957,3.84 m 3.8399986,0 h 7.5199971 m -11.3599957,2.56 m 3.8399986,0 h 7.5199971 m -11.3599957,2.72 m 3.8399986,0 h 7.5199971 m -11.3599957,2.72 m 3.8399986,0 h 7.5199971 m -11.3599957,1.92 m 3.8399986,0 h 7.5199971 m -11.3599957,1.92 m 3.8399986,0 H 13.439995 M 2.0799993,550.0798 m 3.8399986,0 h 7.5199971 m -11.3599957,1.6 m 3.8399986,0 h 7.5199971 m -11.3599957,1.12 m 3.8399986,0 h 7.5199971 m -11.3599957,0.32 m 3.8399986,0 h 7.5199971 m -11.3599957,0.48 m 3.8399986,0 h 7.5199971"
       style="fill:none;stroke:#000000;stroke-width:3.83999872px;stroke-linecap:round;stroke-linejoin:round;stroke-miterlimit:10;stroke-dasharray:none;stroke-opacity:1"
       inkscape:connector-curvature="0" />
    <path
       id="path7"
       d="m 31.199989,530.55981 v 0 m -5.759998,0 h 11.359996"
       style="fill:none;stroke:#000000;stroke-width:3.83999872px;stroke-linecap:round;stroke-linejoin:round;stroke-miterlimit:10;stroke-dasharray:none;stroke-opacity:1"
       inkscape:connector-curvature="0" />
    <path
       id="path9"
       d="m 25.439991,530.55981 v 0 h 5.759998 5.599998 v 0 h -5.599998 z m 5.759998,0 v 19.51999 m -5.759998,0 h 11.359996"
       style="fill:#000000;fill-opacity:1;fill-rule:evenodd;stroke:#000000;stroke-width:3.83999872px;stroke-linecap:round;stroke-linejoin:round;stroke-miterlimit:10;stroke-dasharray:none;stroke-opacity:1"
       inkscape:connector-curvature="0" />
    <text
       id="text15"
       y="21.726562"
       x="0"
       transform="rotate(90,-212.23992,279.1199)"
       style="font-style:normal;font-variant:normal;font-weight:700;font-size:24px;line-height:125%;font-family:Arial;text-align:start;letter-spacing:0px;word-spacing:0px;text-anchor:start;fill:#000000;fill-opacity:1;stroke:none"
       xml:space="preserve"><tspan
         id="tspan13"
         y="21.726562"
         x="0"
         sodipodi:role="line"><tspan
           id="tspan11"
           style="font-style:normal;font-variant:normal;font-weight:700;font-size:24px;font-family:Arial;fill:#000000"
           dy="0"
           dx="0">BD_SAR</tspan></tspan></text>
    <path
       id="path17"
       d="m 84.63997,542.39981 v 0 m -5.759998,0 h 11.359996"
       style="fill:none;stroke:#000000;stroke-width:3.83999872px;stroke-linecap:round;stroke-linejoin:round;stroke-miterlimit:10;stroke-dasharray:none;stroke-opacity:1"
       inkscape:connector-curvature="0" />
    <path
       id="path19"
       d="m 78.879972,542.39981 v 0 h 5.759998 5.599998 v 0 H 84.63997 Z m 5.759998,0 v 10.39999 m -5.759998,0 h 11.359996"
       style="fill:#000000;fill-opacity:1;fill-rule:evenodd;stroke:#000000;stroke-width:3.83999872px;stroke-linecap:round;stroke-linejoin:round;stroke-miterlimit:10;stroke-dasharray:none;stroke-opacity:1"
       inkscape:connector-curvature="0" />
    <text
       id="text25"
       y="21.726562"
       x="0"
       transform="rotate(90,-189.19993,309.51989)"
       style="font-style:normal;font-variant:normal;font-weight:700;font-size:24px;line-height:125%;font-family:Arial;text-align:start;letter-spacing:0px;word-spacing:0px;text-anchor:start;fill:#000000;fill-opacity:1;stroke:none"
       xml:space="preserve"><tspan
         id="tspan23"
         y="21.726562"
         x="0"
         sodipodi:role="line"><tspan
           id="tspan21"
           style="font-style:normal;font-variant:normal;font-weight:700;font-size:24px;font-family:Arial;fill:#000000"
           dy="0"
           dx="0">BD_SAR</tspan></tspan></text>
    <text
       id="text31"
       y="16.973877"
       x="0"
       transform="translate(2.559999)"
       style="font-style:normal;font-variant:normal;font-weight:700;font-size:18.75px;line-height:125%;font-family:Arial;text-align:start;letter-spacing:0px;word-spacing:0px;text-anchor:start;fill:#000000;fill-opacity:1;stroke:none"
       xml:space="preserve"><tspan
         id="tspan29"
         y="16.973877"
         x="0"
         sodipodi:role="line"><tspan
           id="tspan27"
           style="font-style:normal;font-variant:normal;font-weight:700;font-size:18.75px;font-family:Arial;fill:#000000"
           dy="0"
           dx="0">1</tspan></tspan></text>
    <path
       id="path33"
       d="M 12.959995,0 M 2.0799993,0 M 146.71995,0 m 0,111.35996 c 0,-3.09279 2.5072,-5.6 5.6,-5.6 h 0.16 c 3.09279,0 5.59999,2.50721 5.59999,5.6 v 284.9599 c 0,3.09279 -2.5072,5.6 -5.59999,5.6 h -0.16 c -3.0928,0 -5.6,-2.50721 -5.6,-5.6 z m 0,0 m 3.84,0 h 7.51999 m -11.35999,3.52 m 3.84,0 h 7.51999 m -11.35999,0.64 m 3.84,0 h 7.51999 m -11.35999,3.84 m 3.84,0 h 7.51999 m -11.35999,1.92 m 3.84,0 h 7.51999 m -11.35999,2.72 m 3.84,0 h 7.51999 m -11.35999,0.8 m 3.84,0 h 7.51999 m -11.35999,1.91999 m 3.84,0 h 7.51999 m -11.35999,0.8 m 3.84,0 h 7.51999 m -11.35999,2.24 m 3.84,0 h 7.51999 m -11.35999,3.52 m 3.84,0 h 7.51999 m -11.35999,5.76 m 3.84,0 h 7.51999 m -11.35999,1.12 m 3.84,0 h 7.51999 m -11.35999,1.12 m 3.84,0 h 7.51999 m -11.35999,1.28 m 3.84,0 h 7.51999 m -11.35999,1.12 m 3.84,0 h 7.51999 m -11.35999,2.72 m 3.84,0 h 7.51999 m -11.35999,6.88 m 3.84,0 h 7.51999 m -11.35999,0.8 m 3.84,0 h 7.51999 m -11.35999,0.79999 m 3.84,0 h 7.51999 m -11.35999,1.44 m 3.84,0 h 7.51999 m -11.35999,0.48 m 3.84,0 h 7.51999 m -11.35999,1.44 m 3.84,0 h 7.51999 m -11.35999,1.6 m 3.84,0 h 7.51999 m -11.35999,1.44 m 3.84,0 h 7.51999 m -11.35999,1.6 m 3.84,0 h 7.51999 m -11.35999,2.24 m 3.84,0 h 7.51999 m -11.35999,0.8 m 3.84,0 h 7.51999 m -11.35999,5.12 m 3.84,0 h 7.51999 m -11.35999,3.36 m 3.84,0 h 7.51999 m -11.35999,4.96 m 3.84,0 h 7.51999 m -11.35999,0.48 m 3.84,0 h 7.51999 m -11.35999,1.44 m 3.84,0 h 7.51999 m -11.35999,9.27999 m 3.84,0 h 7.51999 m -11.35999,6.24 m 3.84,0 h 7.51999 m -11.35999,3.04 m 3.84,0 h 7.51999 m -11.35999,2.72 m 3.84,0 h 7.51999 m -11.35999,3.04 m 3.84,0 h 7.51999 m -11.35999,6.87999 m 3.84,0 h 7.51999 m -11.35999,1.6 m 3.84,0 h 7.51999 m -11.35999,1.12 m 3.84,0 h 7.51999 m -11.35999,1.92 m 3.84,0 h 7.51999 m -11.35999,2.72 m 3.84,0 h 7.51999 m -11.35999,2.72 m 3.84,0 h 7.51999 m -11.35999,0.32 m 3.84,0 h 7.51999 m -11.35999,1.92 m 3.84,0 h 7.51999 m -11.35999,1.92 m 3.84,0 h 7.51999 m -11.35999,3.52 m 3.84,0 h 7.51999 m -11.35999,1.92 m 3.84,0 h 7.51999 m -11.35999,2.24 m 3.84,0 h 7.51999 m -11.35999,2.24 m 3.84,0 h 7.51999 m -11.35999,7.03999 m 3.84,0 h 7.51999 m -11.35999,3.84 m 3.84,0 h 7.51999 m -11.35999,3.04 m 3.84,0 h 7.51999 m -11.35999,4.96 m 3.84,0 h 7.51999 m -11.35999,4.96 m 3.84,0 h 7.51999 m -11.35999,0.8 m 3.84,0 h 7.51999 m -11.35999,2.4 m 3.84,0 h 7.51999 m -11.35999,2.24 m 3.84,0 h 7.51999 m -11.35999,1.11999 m 3.84,0 h 7.51999 m -11.35999,0.8 m 3.84,0 h 7.51999 m -11.35999,1.12 m 3.84,0 h 7.51999 m -11.35999,3.52 m 3.84,0 h 7.51999 m -11.35999,6.56 m 3.84,0 h 7.51999 m -11.35999,1.44 m 3.84,0 h 7.51999 m -11.35999,1.6 m 3.84,0 h 7.51999 m -11.35999,1.92 m 3.84,0 h 7.51999 m -11.35999,5.76 m 3.84,0 h 7.51999 m -11.35999,0.8 m 3.84,0 h 7.51999 m -11.35999,3.52 m 3.84,0 h 7.51999 m -11.35999,1.11999 m 3.84,0 h 7.51999 m -11.35999,1.44 m 3.84,0 h 7.51999 m -11.35999,0.8 m 3.84,0 h 7.51999 m -11.35999,5.44 m 3.84,0 h 7.51999 m -11.35999,2.72 m 3.84,0 h 7.51999 m -11.35999,0.64 m 3.84,0 h 7.51999 m -11.35999,2.4 m 3.84,0 h 7.51999 m -11.35999,0.8 m 3.84,0 h 7.51999 m -11.35999,0.64 m 3.84,0 h 7.51999 m -11.35999,0.48 m 3.84,0 h 7.51999 m -11.35999,1.12 m 3.84,0 h 7.51999 m -11.35999,0.8 m 3.84,0 h 7.51999 m -11.35999,0.32 m 3.84,0 h 7.51999 m -11.35999,0.8 m 3.84,0 h 7.51999 m -11.35999,1.6 m 3.84,0 h 7.51999 m -11.35999,2.24 m 3.84,0 h 7.51999 m -11.35999,1.12 m 3.84,0 h 7.51999 m -11.35999,7.35999 m 3.84,0 h 7.51999 m -11.35999,1.92 m 3.84,0 h 7.51999 m -11.35999,0.32 m 3.84,0 h 7.51999 m -11.35999,4.32 m 3.84,0 h 7.51999 m -11.35999,1.12 m 3.84,0 h 7.51999 m -11.35999,4.96 m 3.84,0 h 7.51999 m -11.35999,4.64 m 3.84,0 h 7.51999 m -11.35999,4.64 m 3.84,0 h 7.51999 m -11.35999,2.24 m 3.84,0 h 7.51999 m -11.35999,2.71999 m 3.84,0 h 7.51999 m -11.35999,3.04 m 3.84,0 h 7.51999 m -11.35999,0.48 m 3.84,0 h 7.51999 m -11.35999,1.92 m 3.84,0 h 7.51999 m -11.35999,1.92 m 3.84,0 h 7.51999 m -11.35999,0.32 m 3.84,0 h 7.51999 m -11.35999,2.4 m 3.84,0 h 7.51999 m -11.35999,0.32 m 3.84,0 h 7.51999 m -11.35999,1.92 m 3.84,0 h 7.51999 m -11.35999,2.72 m 3.84,0 h 7.51999 m -11.35999,2.72 m 3.84,0 h 7.51999 m -11.35999,0.8 m 3.84,0 h 7.51999 m -11.35999,2.24 m 3.84,0 h 7.51999 m -11.35999,3.04 m 3.84,0 h 7.51999 m -11.35999,1.6 m 3.84,0 h 7.51999 m -11.35999,1.91999 m 3.84,0 h 7.51999 m -11.35999,2.24 m 3.84,0 h 7.51999 m -11.35999,5.76 m 3.84,0 h 7.51999 m -11.35999,3.2 m 3.84,0 h 7.51999 m -11.35999,0.32 m 3.84,0 h 7.51999 m -11.35999,3.04 m 3.84,0 h 7.51999 m -11.35999,1.6 m 3.84,0 h 7.51999"
       style="fill:none;stroke:#000000;stroke-width:3.83999872px;stroke-linecap:round;stroke-linejoin:round;stroke-miterlimit:10;stroke-dasharray:none;stroke-opacity:1"
       inkscape:connector-curvature="0" />
    <path
       id="path35"
       d="m 175.83994,268.9599 v 0 m -5.76,0 h 11.36"
       style="fill:none;stroke:#ff0000;stroke-width:3.83999872px;stroke-linecap:round;stroke-linejoin:round;stroke-miterlimit:10;stroke-dasharray:none;stroke-opacity:1"
       inkscape:connector-curvature="0" />
    <path
       id="path37"
       d="m 170.07994,268.9599 v 0 h 5.76 5.6 v 0 h -5.6 z m 5.76,0 v 13.12 m -5.76,0 h 11.36"
       style="fill:#ff0000;fill-opacity:1;fill-rule:evenodd;stroke:#ff0000;stroke-width:3.83999872px;stroke-linecap:round;stroke-linejoin:round;stroke-miterlimit:10;stroke-dasharray:none;stroke-opacity:1"
       inkscape:connector-curvature="0" />
    <text
       id="text43"
       y="21.726562"
       x="0"
       transform="rotate(90,-9.839996,221.35992)"
       style="font-style:normal;font-variant:normal;font-weight:700;font-size:24px;line-height:125%;font-family:Arial;text-align:start;letter-spacing:0px;word-spacing:0px;text-anchor:start;fill:#000000;fill-opacity:1;stroke:none"
       xml:space="preserve"><tspan
         id="tspan41"
         y="21.726562"
         x="0"
         sodipodi:role="line"><tspan
           id="tspan39"
           style="font-style:normal;font-variant:normal;font-weight:700;font-size:24px;font-family:Arial;fill:#ff0000"
           dy="0"
           dx="0">IG_SAR</tspan></tspan></text>
    <text
       id="text49"
       y="16.973877"
       x="0"
       transform="translate(147.19995)"
       style="font-style:normal;font-variant:normal;font-weight:700;font-size:18.75px;line-height:125%;font-family:Arial;text-align:start;letter-spacing:0px;word-spacing:0px;text-anchor:start;fill:#000000;fill-opacity:1;stroke:none"
       xml:space="preserve"><tspan
         id="tspan47"
         y="16.973877"
         x="0"
         sodipodi:role="line"><tspan
           id="tspan45"
           style="font-style:normal;font-variant:normal;font-weight:700;font-size:18.75px;font-family:Arial;fill:#000000"
           dy="0"
           dx="0">2</tspan></tspan></text>
    <path
       id="path51"
       d="M 157.59994,0 M 2.0799993,0 M 237.91992,0 m 0,111.35996 c 0,-3.09279 2.5072,-5.6 5.59999,-5.6 h 0.16 c 3.0928,0 5.6,2.50721 5.6,5.6 v 313.43989 c 0,3.09279 -2.5072,5.6 -5.6,5.6 h -0.16 c -3.09279,0 -5.59999,-2.50721 -5.59999,-5.6 z m 0,0 m 3.83999,0 h 7.52 m -11.35999,0.8 m 3.83999,0 h 7.52 m -11.35999,2.72 m 3.83999,0 h 7.52 m -11.35999,1.12 m 3.83999,0 h 7.52 m -11.35999,1.92 m 3.83999,0 h 7.52 m -11.35999,1.12 m 3.83999,0 h 7.52 m -11.35999,0.32 m 3.83999,0 h 7.52 m -11.35999,0.8 m 3.83999,0 h 7.52 m -11.35999,1.12 m 3.83999,0 h 7.52 m -11.35999,2.72 m 3.83999,0 h 7.52 m -11.35999,0.8 m 3.83999,0 h 7.52 m -11.35999,3.51999 m 3.83999,0 h 7.52 m -11.35999,1.44 m 3.83999,0 h 7.52 m -11.35999,2.72 m 3.83999,0 h 7.52 m -11.35999,2.4 m 3.83999,0 h 7.52 m -11.35999,1.44 m 3.83999,0 h 7.52 m -11.35999,4.32 m 3.83999,0 h 7.52 m -11.35999,1.12 m 3.83999,0 h 7.52 m -11.35999,0.8 m 3.83999,0 h 7.52 m -11.35999,1.12 m 3.83999,0 h 7.52 m -11.35999,2.24 m 3.83999,0 h 7.52 m -11.35999,1.6 m 3.83999,0 h 7.52 m -11.35999,2.72 m 3.83999,0 h 7.52 m -11.35999,0.32 m 3.83999,0 h 7.52 m -11.35999,3.04 m 3.83999,0 h 7.52 m -11.35999,1.91999 m 3.83999,0 h 7.52 m -11.35999,0.8 m 3.83999,0 h 7.52 m -11.35999,0.48 m 3.83999,0 h 7.52 m -11.35999,2.56 m 3.83999,0 h 7.52 m -11.35999,0.8 m 3.83999,0 h 7.52 m -11.35999,1.92 m 3.83999,0 h 7.52 m -11.35999,1.6 m 3.83999,0 h 7.52 m -11.35999,1.92 m 3.83999,0 h 7.52 m -11.35999,1.12 m 3.83999,0 h 7.52 m -11.35999,1.6 m 3.83999,0 h 7.52 m -11.35999,3.36 m 3.83999,0 h 7.52 m -11.35999,0.8 m 3.83999,0 h 7.52 m -11.35999,1.6 m 3.83999,0 h 7.52 m -11.35999,2.24 m 3.83999,0 h 7.52 m -11.35999,1.12 m 3.83999,0 h 7.52 m -11.35999,1.92 m 3.83999,0 h 7.52 m -11.35999,1.28 m 3.83999,0 h 7.52 m -11.35999,0.64 m 3.83999,0 h 7.52 m -11.35999,1.91999 m 3.83999,0 h 7.52 m -11.35999,0.8 m 3.83999,0 h 7.52 m -11.35999,0.8 m 3.83999,0 h 7.52 m -11.35999,1.92 m 3.83999,0 h 7.52 m -11.35999,1.12 m 3.83999,0 h 7.52 m -11.35999,1.6 m 3.83999,0 h 7.52 m -11.35999,1.12 m 3.83999,0 h 7.52 m -11.35999,1.12 m 3.83999,0 h 7.52 m -11.35999,1.12 m 3.83999,0 h 7.52 m -11.35999,0.48 m 3.83999,0 h 7.52 m -11.35999,3.04 m 3.83999,0 h 7.52 m -11.35999,3.04 m 3.83999,0 h 7.52 m -11.35999,1.28 m 3.83999,0 h 7.52 m -11.35999,1.12 m 3.83999,0 h 7.52 m -11.35999,0.32 m 3.83999,0 h 7.52 m -11.35999,10.07999 m 3.83999,0 h 7.52 m -11.35999,0.64 m 3.83999,0 h 7.52 m -11.35999,3.52 m 3.83999,0 h 7.52 m -11.35999,4.32 m 3.83999,0 h 7.52 m -11.35999,1.12 m 3.83999,0 h 7.52 m -11.35999,4.64 m 3.83999,0 h 7.52 m -11.35999,0.64 m 3.83999,0 h 7.52 m -11.35999,9.6 m 3.83999,0 h 7.52 m -11.35999,4.31999 m 3.83999,0 h 7.52 m -11.35999,1.12 m 3.83999,0 h 7.52 m -11.35999,1.6 m 3.83999,0 h 7.52 m -11.35999,3.04 m 3.83999,0 h 7.52 m -11.35999,2.24 m 3.83999,0 h 7.52 m -11.35999,1.92 m 3.83999,0 h 7.52 m -11.35999,3.52 m 3.83999,0 h 7.52 m -11.35999,2.24 m 3.83999,0 h 7.52 m -11.35999,0.8 m 3.83999,0 h 7.52 m -11.35999,4.96 m 3.83999,0 h 7.52 m -11.35999,1.28 m 3.83999,0 h 7.52 m -11.35999,13.75999 m 3.83999,0 h 7.52 m -11.35999,6.88 m 3.83999,0 h 7.52 m -11.35999,2.72 m 3.83999,0 h 7.52 m -11.35999,1.92 m 3.83999,0 h 7.52 m -11.35999,1.92 m 3.83999,0 h 7.52 m -11.35999,8.15999 m 3.83999,0 h 7.52 m -11.35999,1.92 m 3.83999,0 h 7.52 m -11.35999,0.32 m 3.83999,0 h 7.52 m -11.35999,0.48 m 3.83999,0 h 7.52 m -11.35999,0.32 m 3.83999,0 h 7.52 m -11.35999,1.92 m 3.83999,0 h 7.52 m -11.35999,1.12 m 3.83999,0 h 7.52 m -11.35999,0.8 m 3.83999,0 h 7.52 m -11.35999,0.32 m 3.83999,0 h 7.52 m -11.35999,1.6 m 3.83999,0 h 7.52 m -11.35999,2.72 m 3.83999,0 h 7.52 m -11.35999,0.32 m 3.83999,0 h 7.52 m -11.35999,3.52 m 3.83999,0 h 7.52 m -11.35999,3.04 m 3.83999,0 h 7.52 m -11.35999,1.6 m 3.83999,0 h 7.52 m -11.35999,4.63999 m 3.83999,0 h 7.52 m -11.35999,9.6 m 3.83999,0 h 7.52 m -11.35999,2.72 m 3.83999,0 h 7.52 m -11.35999,2.56 m 3.83999,0 h 7.52 m -11.35999,0.8 m 3.83999,0 h 7.52 m -11.35999,1.6 m 3.83999,0 h 7.52 m -11.35999,0.8 m 3.83999,0 h 7.52 m -11.35999,0.64 m 3.83999,0 h 7.52 m -11.35999,1.28 m 3.83999,0 h 7.52 m -11.35999,4.48 m 3.83999,0 h 7.52 m -11.35999,0.48 m 3.83999,0 h 7.52 m -11.35999,0.32 m 3.83999,0 h 7.52 m -11.35999,0.8 m 3.83999,0 h 7.52 m -11.35999,4.95999 m 3.83999,0 h 7.52 m -11.35999,0.8 m 3.83999,0 h 7.52 m -11.35999,8.48 m 3.83999,0 h 7.52 m -11.35999,2.72 m 3.83999,0 h 7.52 m -11.35999,0.32 m 3.83999,0 h 7.52 m -11.35999,3.04 m 3.83999,0 h 7.52 m -11.35999,1.92 m 3.83999,0 h 7.52 m -11.35999,2.72 m 3.83999,0 h 7.52 m -11.35999,0.48 m 3.83999,0 h 7.52 m -11.35999,3.35999 m 3.83999,0 h 7.52 m -11.35999,1.12 m 3.83999,0 h 7.52 m -11.35999,2.72 m 3.83999,0 h 7.52 m -11.35999,1.28 m 3.83999,0 h 7.52 m -11.35999,2.56 m 3.83999,0 h 7.52 m -11.35999,1.28 m 3.83999,0 h 7.52 m -11.35999,1.12 m 3.83999,0 h 7.52 m -11.35999,5.76 m 3.83999,0 h 7.52 m -11.35999,2.24 m 3.83999,0 h 7.52 m -11.35999,4.32 m 3.83999,0 h 7.52 m -11.35999,0.32 m 3.83999,0 h 7.52 m -11.35999,1.92 m 3.83999,0 h 7.52 m -11.35999,3.83999 m 3.83999,0 h 7.52 m -11.35999,0.8 m 3.83999,0 h 7.52 m -11.35999,1.92 m 3.83999,0 h 7.52 m -11.35999,0.32 m 3.83999,0 h 7.52 m -11.35999,7.36 m 3.83999,0 h 7.52 m -11.35999,1.6 m 3.83999,0 h 7.52 m -11.35999,0.32 m 3.83999,0 h 7.52 m -11.35999,0.8 m 3.83999,0 h 7.52 m -11.35999,3.04 m 3.83999,0 h 7.52 m -11.35999,0.32 m 3.83999,0 h 7.52 m -11.35999,1.28 m 3.83999,0 h 7.52"
       style="fill:none;stroke:#000000;stroke-width:3.83999872px;stroke-linecap:round;stroke-linejoin:round;stroke-miterlimit:10;stroke-dasharray:none;stroke-opacity:1"
       inkscape:connector-curvature="0" />
    <path
       id="path53"
       d="m 267.0399,202.07993 v 0 m -5.75999,0 h 11.35999"
       style="fill:none;stroke:#000000;stroke-width:3.83999872px;stroke-linecap:round;stroke-linejoin:round;stroke-miterlimit:10;stroke-dasharray:none;stroke-opacity:1"
       inkscape:connector-curvature="0" />
    <path
       id="path55"
       d="m 261.27991,202.07993 v 0 h 5.75999 5.6 v 0 h -5.6 z m 5.75999,0 v 24.31999 m -5.75999,0 h 11.35999"
       style="fill:#000000;fill-opacity:1;fill-rule:evenodd;stroke:#000000;stroke-width:3.83999872px;stroke-linecap:round;stroke-linejoin:round;stroke-miterlimit:10;stroke-dasharray:none;stroke-opacity:1"
       inkscape:connector-curvature="0" />
    <text
       id="text61"
       y="21.726562"
       x="0"
       transform="rotate(90,68.719976,233.99992)"
       style="font-style:normal;font-variant:normal;font-weight:700;font-size:24px;line-height:125%;font-family:Arial;text-align:start;letter-spacing:0px;word-spacing:0px;text-anchor:start;fill:#000000;fill-opacity:1;stroke:none"
       xml:space="preserve"><tspan
         id="tspan59"
         y="21.726562"
         x="0"
         sodipodi:role="line"><tspan
           id="tspan57"
           style="font-style:normal;font-variant:normal;font-weight:700;font-size:24px;font-family:Arial;fill:#000000"
           dy="0"
           dx="0">BD_SAR</tspan></tspan></text>
    <text
       id="text67"
       y="16.973877"
       x="0"
       transform="translate(238.39991)"
       style="font-style:normal;font-variant:normal;font-weight:700;font-size:18.75px;line-height:125%;font-family:Arial;text-align:start;letter-spacing:0px;word-spacing:0px;text-anchor:start;fill:#000000;fill-opacity:1;stroke:none"
       xml:space="preserve"><tspan
         id="tspan65"
         y="16.973877"
         x="0"
         sodipodi:role="line"><tspan
           id="tspan63"
           style="font-style:normal;font-variant:normal;font-weight:700;font-size:18.75px;font-family:Arial;fill:#000000"
           dy="0"
           dx="0">3</tspan></tspan></text>
    <path
       id="path69"
       d="M 248.79991,0 M 2.0799993,0 M 329.11988,0 m 0,111.35996 c 0,-3.09279 2.50721,-5.6 5.6,-5.6 h 0.16 c 3.09279,0 5.6,2.50721 5.6,5.6 v 279.5199 c 0,3.09279 -2.50721,5.6 -5.6,5.6 h -0.16 c -3.09279,0 -5.6,-2.50721 -5.6,-5.6 z m 0,0 m 3.84,0 h 7.52 m -11.36,1.12 m 3.84,0 h 7.52 m -11.36,8.48 m 3.84,0 h 7.52 m -11.36,1.6 m 3.84,0 h 7.52 m -11.36,6.55999 m 3.84,0 h 7.52 m -11.36,2.24 m 3.84,0 h 7.52 m -11.36,2.72 m 3.84,0 h 7.52 m -11.36,2.72 m 3.84,0 h 7.52 m -11.36,0.32 m 3.84,0 h 7.52 m -11.36,1.6 m 3.84,0 h 7.52 m -11.36,1.92 m 3.84,0 h 7.52 m -11.36,0.32 m 3.84,0 h 7.52 m -11.36,5.44 m 3.84,0 h 7.52 m -11.36,2.24 m 3.84,0 h 7.52 m -11.36,5.44 m 3.84,0 h 7.52 m -11.36,0.31999 m 3.84,0 h 7.52 m -11.36,0.8 m 3.84,0 h 7.52 m -11.36,0.32 m 3.84,0 h 7.52 m -11.36,0.8 m 3.84,0 h 7.52 m -11.36,1.92 m 3.84,0 h 7.52 m -11.36,1.12 m 3.84,0 h 7.52 m -11.36,1.28 m 3.84,0 h 7.52 m -11.36,1.92 m 3.84,0 h 7.52 m -11.36,7.2 m 3.84,0 h 7.52 m -11.36,5.12 m 3.84,0 h 7.52 m -11.36,3.36 m 3.84,0 h 7.52 m -11.36,6.87999 m 3.84,0 h 7.52 m -11.36,3.2 m 3.84,0 h 7.52 m -11.36,2.56 m 3.84,0 h 7.52 m -11.36,1.28 m 3.84,0 h 7.52 m -11.36,9.92 m 3.84,0 h 7.52 m -11.36,8.79999 m 3.84,0 h 7.52 m -11.36,3.52 m 3.84,0 h 7.52 m -11.36,4.32 m 3.84,0 h 7.52 m -11.36,1.44 m 3.84,0 h 7.52 m -11.36,9.28 m 3.84,0 h 7.52 m -11.36,5.76 m 3.84,0 h 7.52 m -11.36,3.83999 m 3.84,0 h 7.52 m -11.36,1.12 m 3.84,0 h 7.52 m -11.36,2.72 m 3.84,0 h 7.52 m -11.36,3.04 m 3.84,0 h 7.52 m -11.36,0.48 m 3.84,0 h 7.52 m -11.36,2.24 m 3.84,0 h 7.52 m -11.36,2.24 m 3.84,0 h 7.52 m -11.36,1.28 m 3.84,0 h 7.52 m -11.36,1.44 m 3.84,0 h 7.52 m -11.36,2.4 m 3.84,0 h 7.52 m -11.36,1.12 m 3.84,0 h 7.52 m -11.36,3.36 m 3.84,0 h 7.52 m -11.36,1.28 m 3.84,0 h 7.52 m -11.36,1.44 m 3.84,0 h 7.52 m -11.36,0.8 m 3.84,0 h 7.52 m -11.36,3.51999 m 3.84,0 h 7.52 m -11.36,0.32 m 3.84,0 h 7.52 m -11.36,2.4 m 3.84,0 h 7.52 m -11.36,5.76 m 3.84,0 h 7.52 m -11.36,1.92 m 3.84,0 h 7.52 m -11.36,1.44 m 3.84,0 h 7.52 m -11.36,1.92 m 3.84,0 h 7.52 m -11.36,0.48 m 3.84,0 h 7.52 m -11.36,2.24 m 3.84,0 h 7.52 m -11.36,0.32 m 3.84,0 h 7.52 m -11.36,2.4 m 3.84,0 h 7.52 m -11.36,9.27999 m 3.84,0 h 7.52 m -11.36,1.12 m 3.84,0 h 7.52 m -11.36,6.08 m 3.84,0 h 7.52 m -11.36,0.8 m 3.84,0 h 7.52 m -11.36,4.16 m 3.84,0 h 7.52 m -11.36,2.72 m 3.84,0 h 7.52 m -11.36,1.6 m 3.84,0 h 7.52 m -11.36,2.72 m 3.84,0 h 7.52 m -11.36,4.64 m 3.84,0 h 7.52 m -11.36,2.24 m 3.84,0 h 7.52 m -11.36,0.31999 m 3.84,0 h 7.52 m -11.36,2.72 m 3.84,0 h 7.52 m -11.36,2.4 m 3.84,0 h 7.52 m -11.36,2.24 m 3.84,0 h 7.52 m -11.36,0.8 m 3.84,0 h 7.52 m -11.36,0.32 m 3.84,0 h 7.52 m -11.36,1.6 m 3.84,0 h 7.52 m -11.36,4.16 m 3.84,0 h 7.52 m -11.36,4.32 m 3.84,0 h 7.52 m -11.36,0.8 m 3.84,0 h 7.52 m -11.36,0.32 m 3.84,0 h 7.52 m -11.36,1.12 m 3.84,0 h 7.52 m -11.36,2.72 m 3.84,0 h 7.52 m -11.36,1.12 m 3.84,0 h 7.52 m -11.36,1.6 m 3.84,0 h 7.52 m -11.36,1.91999 m 3.84,0 h 7.52 m -11.36,1.12 m 3.84,0 h 7.52 m -11.36,1.12 m 3.84,0 h 7.52 m -11.36,3.04 m 3.84,0 h 7.52 m -11.36,1.6 m 3.84,0 h 7.52 m -11.36,3.04 m 3.84,0 h 7.52 m -11.36,3.84 m 3.84,0 h 7.52 m -11.36,2.4 m 3.84,0 h 7.52 m -11.36,1.44 m 3.84,0 h 7.52 m -11.36,1.92 m 3.84,0 h 7.52 m -11.36,1.92 m 3.84,0 h 7.52 m -11.36,0.8 m 3.84,0 h 7.52 m -11.36,3.52 m 3.84,0 h 7.52 m -11.36,0.8 m 3.84,0 h 7.52 m -11.36,10.39999 m 3.84,0 h 7.52 m -11.36,0.32 m 3.84,0 h 7.52 m -11.36,0.8 m 3.84,0 h 7.52 m -11.36,1.44 m 3.84,0 h 7.52 m -11.36,0.8 m 3.84,0 h 7.52"
       style="fill:none;stroke:#000000;stroke-width:3.83999872px;stroke-linecap:round;stroke-linejoin:round;stroke-miterlimit:10;stroke-dasharray:none;stroke-opacity:1"
       inkscape:connector-curvature="0" />
    <path
       id="path71"
       d="m 358.23987,111.35996 v 0 m -5.76,0 h 11.36"
       style="fill:none;stroke:#000000;stroke-width:3.83999872px;stroke-linecap:round;stroke-linejoin:round;stroke-miterlimit:10;stroke-dasharray:none;stroke-opacity:1"
       inkscape:connector-curvature="0" />
    <path
       id="path73"
       d="m 352.47987,111.35996 v 0 h 5.76 5.6 v 0 h -5.6 z m 5.76,0 v 9.6 m -5.76,0 h 11.36"
       style="fill:#000000;fill-opacity:1;fill-rule:evenodd;stroke:#000000;stroke-width:3.83999872px;stroke-linecap:round;stroke-linejoin:round;stroke-miterlimit:10;stroke-dasharray:none;stroke-opacity:1"
       inkscape:connector-curvature="0" />
    <text
       id="text79"
       y="21.726562"
       x="0"
       transform="rotate(90,163.35994,230.55992)"
       style="font-style:normal;font-variant:normal;font-weight:700;font-size:24px;line-height:125%;font-family:Arial;text-align:start;letter-spacing:0px;word-spacing:0px;text-anchor:start;fill:#000000;fill-opacity:1;stroke:none"
       xml:space="preserve"><tspan
         id="tspan77"
         y="21.726562"
         x="0"
         sodipodi:role="line"><tspan
           id="tspan75"
           style="font-style:normal;font-variant:normal;font-weight:700;font-size:24px;font-family:Arial;fill:#000000"
           dy="0"
           dx="0">BD_SAR</tspan></tspan></text>
    <path
       id="path81"
       d="m 358.23987,240.15991 v 0 m -5.76,0 h 11.36"
       style="fill:none;stroke:#000000;stroke-width:3.83999872px;stroke-linecap:round;stroke-linejoin:round;stroke-miterlimit:10;stroke-dasharray:none;stroke-opacity:1"
       inkscape:connector-curvature="0" />
    <path
       id="path83"
       d="m 352.47987,240.15991 v 0 h 5.76 5.6 v 0 h -5.6 z m 5.76,0 v 23.04 m -5.76,0 h 11.36"
       style="fill:#000000;fill-opacity:1;fill-rule:evenodd;stroke:#000000;stroke-width:3.83999872px;stroke-linecap:round;stroke-linejoin:round;stroke-miterlimit:10;stroke-dasharray:none;stroke-opacity:1"
       inkscape:connector-curvature="0" />
    <text
       id="text89"
       y="21.726562"
       x="0"
       transform="rotate(90,95.599965,298.31989)"
       style="font-style:normal;font-variant:normal;font-weight:700;font-size:24px;line-height:125%;font-family:Arial;text-align:start;letter-spacing:0px;word-spacing:0px;text-anchor:start;fill:#000000;fill-opacity:1;stroke:none"
       xml:space="preserve"><tspan
         id="tspan87"
         y="21.726562"
         x="0"
         sodipodi:role="line"><tspan
           id="tspan85"
           style="font-style:normal;font-variant:normal;font-weight:700;font-size:24px;font-family:Arial;fill:#000000"
           dy="0"
           dx="0">BD_SAR</tspan></tspan></text>
    <text
       id="text95"
       y="16.973877"
       x="0"
       transform="translate(329.59988)"
       style="font-style:normal;font-variant:normal;font-weight:700;font-size:18.75px;line-height:125%;font-family:Arial;text-align:start;letter-spacing:0px;word-spacing:0px;text-anchor:start;fill:#000000;fill-opacity:1;stroke:none"
       xml:space="preserve"><tspan
         id="tspan93"
         y="16.973877"
         x="0"
         sodipodi:role="line"><tspan
           id="tspan91"
           style="font-style:normal;font-variant:normal;font-weight:700;font-size:18.75px;font-family:Arial;fill:#000000"
           dy="0"
           dx="0">4</tspan></tspan></text>
    <path
       id="path97"
       d="M 339.99988,0 M 2.0799993,0 M 420.31985,0 m 0,111.35996 c 0,-3.09279 2.5072,-5.6 5.6,-5.6 h 0.16 c 3.09279,0 5.6,2.50721 5.6,5.6 v 411.83985 c 0,3.0928 -2.50721,5.6 -5.6,5.6 h -0.16 c -3.0928,0 -5.6,-2.5072 -5.6,-5.6 z m 0,0 m 3.84,0 h 7.52 m -11.36,0.8 m 3.84,0 h 7.52 m -11.36,3.36 m 3.84,0 h 7.52 m -11.36,7.04 m 3.84,0 h 7.52 m -11.36,0.32 m 3.84,0 h 7.52 m -11.36,3.51999 m 3.84,0 h 7.52 m -11.36,1.92 m 3.84,0 h 7.52 m -11.36,3.84 m 3.84,0 h 7.52 m -11.36,2.72 m 3.84,0 h 7.52 m -11.36,2.24 m 3.84,0 h 7.52 m -11.36,0.8 m 3.84,0 h 7.52 m -11.36,5.76 m 3.84,0 h 7.52 m -11.36,0.8 m 3.84,0 h 7.52 m -11.36,2.24 m 3.84,0 h 7.52 m -11.36,2.4 m 3.84,0 h 7.52 m -11.36,1.44 m 3.84,0 h 7.52 m -11.36,0.8 m 3.84,0 h 7.52 m -11.36,1.12 m 3.84,0 h 7.52 m -11.36,1.12 m 3.84,0 h 7.52 m -11.36,0.79999 m 3.84,0 h 7.52 m -11.36,1.12 m 3.84,0 h 7.52 m -11.36,1.6 m 3.84,0 h 7.52 m -11.36,1.92 m 3.84,0 h 7.52 m -11.36,1.92 m 3.84,0 h 7.52 m -11.36,1.6 m 3.84,0 h 7.52 m -11.36,6.88 m 3.84,0 h 7.52 m -11.36,0.8 m 3.84,0 h 7.52 m -11.36,0.8 m 3.84,0 h 7.52 m -11.36,0.32 m 3.84,0 h 7.52 m -11.36,4.16 m 3.84,0 h 7.52 m -11.36,1.92 m 3.84,0 h 7.52 m -11.36,4.64 m 3.84,0 h 7.52 m -11.36,1.59999 m 3.84,0 h 7.52 m -11.36,1.92 m 3.84,0 h 7.52 m -11.36,1.92 m 3.84,0 h 7.52 m -11.36,1.92 m 3.84,0 h 7.52 m -11.36,3.04 m 3.84,0 h 7.52 m -11.36,1.92 m 3.84,0 h 7.52 m -11.36,4.32 m 3.84,0 h 7.52 m -11.36,3.36 m 3.84,0 h 7.52 m -11.36,2.72 m 3.84,0 h 7.52 m -11.36,0.32 m 3.84,0 h 7.52 m -11.36,4.32 m 3.84,0 h 7.52 m -11.36,5.75999 m 3.84,0 h 7.52 m -11.36,3.04 m 3.84,0 h 7.52 m -11.36,3.84 m 3.84,0 h 7.52 m -11.36,1.6 m 3.84,0 h 7.52 m -11.36,1.92 m 3.84,0 h 7.52 m -11.36,3.36 m 3.84,0 h 7.52 m -11.36,2.4 m 3.84,0 h 7.52 m -11.36,5.28 m 3.84,0 h 7.52 m -11.36,4.63999 m 3.84,0 h 7.52 m -11.36,7.04 m 3.84,0 h 7.52 m -11.36,2.24 m 3.84,0 h 7.52 m -11.36,1.6 m 3.84,0 h 7.52 m -11.36,0.64 m 3.84,0 h 7.52 m -11.36,2.72 m 3.84,0 h 7.52 m -11.36,3.04 m 3.84,0 h 7.52 m -11.36,8.95999 m 3.84,0 h 7.52 m -11.36,1.12 m 3.84,0 h 7.52 m -11.36,3.84 m 3.84,0 h 7.52 m -11.36,7.36 m 3.84,0 h 7.52 m -11.36,8 m 3.84,0 h 7.52 m -11.36,1.92 m 3.84,0 h 7.52 m -11.36,3.84 m 3.84,0 h 7.52 m -11.36,0.48 m 3.84,0 h 7.52 m -11.36,1.91999 m 3.84,0 h 7.52 m -11.36,0.32 m 3.84,0 h 7.52 m -11.36,0.32 m 3.84,0 h 7.52 m -11.36,2.4 m 3.84,0 h 7.52 m -11.36,2.72 m 3.84,0 h 7.52 m -11.36,2.56 m 3.84,0 h 7.52 m -11.36,1.6 m 3.84,0 h 7.52 m -11.36,5.44 m 3.84,0 h 7.52 m -11.36,0.32 m 3.84,0 h 7.52 m -11.36,3.84 m 3.84,0 h 7.52 m -11.36,4.96 m 3.84,0 h 7.52 m -11.36,2.71999 m 3.84,0 h 7.52 m -11.36,3.52 m 3.84,0 h 7.52 m -11.36,1.44 m 3.84,0 h 7.52 m -11.36,1.6 m 3.84,0 h 7.52 m -11.36,1.6 m 3.84,0 h 7.52 m -11.36,1.44 m 3.84,0 h 7.52 m -11.36,3.2 m 3.84,0 h 7.52 m -11.36,1.12 m 3.84,0 h 7.52 m -11.36,4.16 m 3.84,0 h 7.52 m -11.36,0.8 m 3.84,0 h 7.52 m -11.36,1.12 m 3.84,0 h 7.52 m -11.36,1.92 m 3.84,0 h 7.52 m -11.36,1.92 m 3.84,0 h 7.52 m -11.36,2.72 m 3.84,0 h 7.52 m -11.36,3.83999 m 3.84,0 h 7.52 m -11.36,0.8 m 3.84,0 h 7.52 m -11.36,3.84 m 3.84,0 h 7.52 m -11.36,1.92 m 3.84,0 h 7.52 m -11.36,2.72 m 3.84,0 h 7.52 m -11.36,1.92 m 3.84,0 h 7.52 m -11.36,0.32 m 3.84,0 h 7.52 m -11.36,5.76 m 3.84,0 h 7.52 m -11.36,0.8 m 3.84,0 h 7.52 m -11.36,1.12 m 3.84,0 h 7.52 m -11.36,0.48 m 3.84,0 h 7.52 m -11.36,1.44 m 3.84,0 h 7.52 m -11.36,1.92 m 3.84,0 h 7.52 m -11.36,0.8 m 3.84,0 h 7.52 m -11.36,0.8 m 3.84,0 h 7.52 m -11.36,2.23999 m 3.84,0 h 7.52 m -11.36,2.4 m 3.84,0 h 7.52 m -11.36,1.12 m 3.84,0 h 7.52 m -11.36,4.16 m 3.84,0 h 7.52 m -11.36,3.84 m 3.84,0 h 7.52 m -11.36,3.2 m 3.84,0 h 7.52 m -11.36,3.04 m 3.84,0 h 7.52 m -11.36,0.8 m 3.84,0 h 7.52 m -11.36,1.12 m 3.84,0 h 7.52 m -11.36,1.44 m 3.84,0 h 7.52 m -11.36,0.8 m 3.84,0 h 7.52 m -11.36,0.8 m 3.84,0 h 7.52 m -11.36,1.12 m 3.84,0 h 7.52 m -11.36,1.6 m 3.84,0 h 7.52 m -11.36,7.67999 m 3.84,0 h 7.52 m -11.36,1.12 m 3.84,0 h 7.52 m -11.36,3.52 m 3.84,0 h 7.52 m -11.36,2.24 m 3.84,0 h 7.52 m -11.36,1.92 m 3.84,0 h 7.52 m -11.36,0.48 m 3.84,0 h 7.52 m -11.36,0.64 m 3.84,0 h 7.52 m -11.36,3.2 m 3.84,0 h 7.52 m -11.36,1.44 m 3.84,0 h 7.52 m -11.36,3.52 m 3.84,0 h 7.52 m -11.36,0.8 m 3.84,0 h 7.52 m -11.36,1.44 m 3.84,0 h 7.52 m -11.36,2.39999 m 3.84,0 h 7.52 m -11.36,8 m 3.84,0 h 7.52 m -11.36,3.52 m 3.84,0 h 7.52 m -11.36,1.44 m 3.84,0 h 7.52 m -11.36,2.72 m 3.84,0 h 7.52 m -11.36,1.28 m 3.84,0 h 7.52 m -11.36,1.12 m 3.84,0 h 7.52 m -11.36,4.96 m 3.84,0 h 7.52 m -11.36,4.63999 m 3.84,0 h 7.52 m -11.36,1.12 m 3.84,0 h 7.52 m -11.36,0.32 m 3.84,0 h 7.52 m -11.36,1.92 m 3.84,0 h 7.52 m -11.36,0.8 m 3.84,0 h 7.52 m -11.36,1.92 m 3.84,0 h 7.52 m -11.36,1.6 m 3.84,0 h 7.52 m -11.36,3.04 m 3.84,0 h 7.52 m -11.36,1.92 m 3.84,0 h 7.52 m -11.36,1.6 m 3.84,0 h 7.52 m -11.36,4.16 m 3.84,0 h 7.52 m -11.36,1.6 m 3.84,0 h 7.52 m -11.36,0.8 m 3.84,0 h 7.52 m -11.36,9.59999 m 3.84,0 h 7.52 m -11.36,1.12 m 3.84,0 h 7.52 m -11.36,4.16 m 3.84,0 h 7.52 m -11.36,1.92 m 3.84,0 h 7.52 m -11.36,1.28 m 3.84,0 h 7.52 m -11.36,4.48 m 3.84,0 h 7.52 m -11.36,4.64 m 3.84,0 h 7.52 m -11.36,5.76 m 3.84,0 h 7.52 m -11.36,2.39999 m 3.84,0 h 7.52 m -11.36,1.12 m 3.84,0 h 7.52 m -11.36,1.12 m 3.84,0 h 7.52 m -11.36,0.8 m 3.84,0 h 7.52"
       style="fill:none;stroke:#000000;stroke-width:3.83999872px;stroke-linecap:round;stroke-linejoin:round;stroke-miterlimit:10;stroke-dasharray:none;stroke-opacity:1"
       inkscape:connector-curvature="0" />
    <path
       id="path99"
       d="m 449.43984,502.87982 v 0 m -5.76,0 h 11.36"
       style="fill:none;stroke:#000000;stroke-width:3.83999872px;stroke-linecap:round;stroke-linejoin:round;stroke-miterlimit:10;stroke-dasharray:none;stroke-opacity:1"
       inkscape:connector-curvature="0" />
    <path
       id="path101"
       d="m 443.67984,502.87982 v 0 h 5.76 5.6 v 0 h -5.6 z m 5.76,0 v 14.88 m -5.76,0 h 11.36"
       style="fill:#000000;fill-opacity:1;fill-rule:evenodd;stroke:#000000;stroke-width:3.83999872px;stroke-linecap:round;stroke-linejoin:round;stroke-miterlimit:10;stroke-dasharray:none;stroke-opacity:1"
       inkscape:connector-curvature="0" />
    <text
       id="text107"
       y="21.726562"
       x="0"
       transform="rotate(90,11.919996,473.19983)"
       style="font-style:normal;font-variant:normal;font-weight:700;font-size:24px;line-height:125%;font-family:Arial;text-align:start;letter-spacing:0px;word-spacing:0px;text-anchor:start;fill:#000000;fill-opacity:1;stroke:none"
       xml:space="preserve"><tspan
         id="tspan105"
         y="21.726562"
         x="0"
         sodipodi:role="line"><tspan
           id="tspan103"
           style="font-style:normal;font-variant:normal;font-weight:700;font-size:24px;font-family:Arial;fill:#000000"
           dy="0"
           dx="0">BD_SAR</tspan></tspan></text>
    <path
       id="path109"
       d="m 502.87982,153.59995 v 0 m -5.76,0 h 11.36"
       style="fill:none;stroke:#000000;stroke-width:3.83999872px;stroke-linecap:round;stroke-linejoin:round;stroke-miterlimit:10;stroke-dasharray:none;stroke-opacity:1"
       inkscape:connector-curvature="0" />
    <path
       id="path111"
       d="m 497.11982,153.59995 v 0 h 5.76 5.6 v 0 h -5.6 z m 5.76,0 v 7.35999 m -5.76,0 h 11.36"
       style="fill:#000000;fill-opacity:1;fill-rule:evenodd;stroke:#000000;stroke-width:3.83999872px;stroke-linecap:round;stroke-linejoin:round;stroke-miterlimit:10;stroke-dasharray:none;stroke-opacity:1"
       inkscape:connector-curvature="0" />
    <text
       id="text117"
       y="21.726562"
       x="0"
       transform="rotate(90,215.11992,323.43988)"
       style="font-style:normal;font-variant:normal;font-weight:700;font-size:24px;line-height:125%;font-family:Arial;text-align:start;letter-spacing:0px;word-spacing:0px;text-anchor:start;fill:#000000;fill-opacity:1;stroke:none"
       xml:space="preserve"><tspan
         id="tspan115"
         y="21.726562"
         x="0"
         sodipodi:role="line"><tspan
           id="tspan113"
           style="font-style:normal;font-variant:normal;font-weight:700;font-size:24px;font-family:Arial;fill:#000000"
           dy="0"
           dx="0">BD_SAR</tspan></tspan></text>
    <path
       id="path119"
       d="m 556.3198,209.43993 v 0 m -5.76,0 h 11.36"
       style="fill:none;stroke:#000000;stroke-width:3.83999872px;stroke-linecap:round;stroke-linejoin:round;stroke-miterlimit:10;stroke-dasharray:none;stroke-opacity:1"
       inkscape:connector-curvature="0" />
    <path
       id="path121"
       d="m 550.5598,209.43993 v 0 h 5.76 5.6 v 0 h -5.6 z m 5.76,0 v 31.83998 m -5.76,0 h 11.36"
       style="fill:#000000;fill-opacity:1;fill-rule:evenodd;stroke:#000000;stroke-width:3.83999872px;stroke-linecap:round;stroke-linejoin:round;stroke-miterlimit:10;stroke-dasharray:none;stroke-opacity:1"
       inkscape:connector-curvature="0" />
    <text
       id="text127"
       y="21.726562"
       x="0"
       transform="rotate(90,207.75993,384.23986)"
       style="font-style:normal;font-variant:normal;font-weight:700;font-size:24px;line-height:125%;font-family:Arial;text-align:start;letter-spacing:0px;word-spacing:0px;text-anchor:start;fill:#000000;fill-opacity:1;stroke:none"
       xml:space="preserve"><tspan
         id="tspan125"
         y="21.726562"
         x="0"
         sodipodi:role="line"><tspan
           id="tspan123"
           style="font-style:normal;font-variant:normal;font-weight:700;font-size:24px;font-family:Arial;fill:#000000"
           dy="0"
           dx="0">BD_SAR</tspan></tspan></text>
    <path
       id="path129"
       d="m 609.75978,162.55994 v 0 m -5.76,0 h 11.36"
       style="fill:none;stroke:#ff0000;stroke-width:3.83999872px;stroke-linecap:round;stroke-linejoin:round;stroke-miterlimit:10;stroke-dasharray:none;stroke-opacity:1"
       inkscape:connector-curvature="0" />
    <path
       id="path131"
       d="m 603.99978,162.55994 v 0 h 5.76 5.6 v 0 h -5.6 z m 5.76,0 v 23.03999 m -5.76,0 h 11.36"
       style="fill:#ff0000;fill-opacity:1;fill-rule:evenodd;stroke:#ff0000;stroke-width:3.83999872px;stroke-linecap:round;stroke-linejoin:round;stroke-miterlimit:10;stroke-dasharray:none;stroke-opacity:1"
       inkscape:connector-curvature="0" />
    <text
       id="text137"
       y="21.726562"
       x="0"
       transform="rotate(90,257.83991,387.59986)"
       style="font-style:normal;font-variant:normal;font-weight:700;font-size:24px;line-height:125%;font-family:Arial;text-align:start;letter-spacing:0px;word-spacing:0px;text-anchor:start;fill:#000000;fill-opacity:1;stroke:none"
       xml:space="preserve"><tspan
         id="tspan135"
         y="21.726562"
         x="0"
         sodipodi:role="line"><tspan
           id="tspan133"
           style="font-style:normal;font-variant:normal;font-weight:700;font-size:24px;font-family:Arial;fill:#ff0000"
           dy="0"
           dx="0">IG_SAR</tspan></tspan></text>
    <path
       id="path139"
       d="m 663.19976,162.55994 v 0 m -5.75999,0 h 11.35999"
       style="fill:none;stroke:#008000;stroke-width:3.83999872px;stroke-linecap:round;stroke-linejoin:round;stroke-miterlimit:10;stroke-dasharray:none;stroke-opacity:1"
       inkscape:connector-curvature="0" />
    <path
       id="path141"
       d="m 657.43977,162.55994 v 0 h 5.75999 5.6 v 0 h -5.6 z m 5.75999,0 v 23.03999 m -5.75999,0 h 11.35999"
       style="fill:#008000;fill-opacity:1;fill-rule:evenodd;stroke:#008000;stroke-width:3.83999872px;stroke-linecap:round;stroke-linejoin:round;stroke-miterlimit:10;stroke-dasharray:none;stroke-opacity:1"
       inkscape:connector-curvature="0" />
    <text
       id="text147"
       y="21.726562"
       x="0"
       transform="rotate(90,284.2399,414.63985)"
       style="font-style:normal;font-variant:normal;font-weight:700;font-size:24px;line-height:125%;font-family:Arial;text-align:start;letter-spacing:0px;word-spacing:0px;text-anchor:start;fill:#000000;fill-opacity:1;stroke:none"
       xml:space="preserve"><tspan
         id="tspan145"
         y="21.726562"
         x="0"
         sodipodi:role="line"><tspan
           id="tspan143"
           style="font-style:normal;font-variant:normal;font-weight:700;font-size:24px;font-family:Arial;fill:#008000"
           dy="0"
           dx="0">IB_SAR</tspan></tspan></text>
    <text
       id="text153"
       y="16.973877"
       x="0"
       transform="translate(420.79985)"
       style="font-style:normal;font-variant:normal;font-weight:700;font-size:18.75px;line-height:125%;font-family:Arial;text-align:start;letter-spacing:0px;word-spacing:0px;text-anchor:start;fill:#000000;fill-opacity:1;stroke:none"
       xml:space="preserve"><tspan
         id="tspan151"
         y="16.973877"
         x="0"
         sodipodi:role="line"><tspan
           id="tspan149"
           style="font-style:normal;font-variant:normal;font-weight:700;font-size:18.75px;font-family:Arial;fill:#000000"
           dy="0"
           dx="0">5</tspan></tspan></text>
  </g>
</svg>
