<?xml version="1.0" encoding="UTF-8" standalone="no"?>
<svg
   xmlns:dc="http://purl.org/dc/elements/1.1/"
   xmlns:cc="http://creativecommons.org/ns#"
   xmlns:rdf="http://www.w3.org/1999/02/22-rdf-syntax-ns#"
   xmlns:svg="http://www.w3.org/2000/svg"
   xmlns="http://www.w3.org/2000/svg"
   xmlns:sodipodi="http://sodipodi.sourceforge.net/DTD/sodipodi-0.dtd"
   xmlns:inkscape="http://www.inkscape.org/namespaces/inkscape"
   version="1.0"
   width="229.00999mm"
   height="166.00999mm"
   id="svg115"
   sodipodi:docname="GridLMM_gxe_cov_cis001_rotated.svg"
   inkscape:version="0.92.4 (5da689c313, 2019-01-14)"
   inkscape:export-filename="C:\Users\James\Documents\GitHub\sar_qtl\figures\qtl_ci_linkage_map\img\gxe_qtl_linkage_cov_rotated.png"
   inkscape:export-xdpi="600"
   inkscape:export-ydpi="600">
  <metadata
     id="metadata119">
    <rdf:RDF>
      <cc:Work
         rdf:about="">
        <dc:format>image/svg+xml</dc:format>
        <dc:type
           rdf:resource="http://purl.org/dc/dcmitype/StillImage" />
        <dc:title></dc:title>
      </cc:Work>
    </rdf:RDF>
  </metadata>
  <sodipodi:namedview
     pagecolor="#ffffff"
     bordercolor="#666666"
     borderopacity="1"
     objecttolerance="10"
     gridtolerance="10"
     guidetolerance="10"
     inkscape:pageopacity="0"
     inkscape:pageshadow="2"
     inkscape:window-width="2560"
     inkscape:window-height="1387"
     id="namedview117"
     showgrid="false"
     inkscape:zoom="0.34660059"
     inkscape:cx="432.77479"
     inkscape:cy="313.71967"
     inkscape:window-x="-8"
     inkscape:window-y="-8"
     inkscape:window-maximized="1"
     inkscape:current-layer="svg115" />
  <defs
     id="defs3">
    <pattern
       id="EMFhbasepattern"
       patternUnits="userSpaceOnUse"
       width="6"
       height="6"
       x="0"
       y="0" />
  </defs>
  <g
     id="g176"
     transform="rotate(-90,361.31292,280.5599)">
    <path
       id="path5"
       d="m 2.0799993,0 m 0,0 m 0,0 m 0,111.35996 c 0,-3.09279 2.5072045,-5.6 5.599998,-5.6 h 0.1599999 c 3.0927938,0 5.5999978,2.50721 5.5999978,5.6 V 553.5998 c 0,3.0928 -2.507204,5.6 -5.5999978,5.6 H 7.6799973 c -3.0927935,0 -5.599998,-2.5072 -5.599998,-5.6 z m 0,0 m 3.8399986,0 h 7.5199971 m -11.3599957,2.24 m 3.8399986,0 h 7.5199971 m -11.3599957,2.4 m 3.8399986,0 h 7.5199971 m -11.3599957,1.92 m 3.8399986,0 h 7.5199971 m -11.3599957,2.72 m 3.8399986,0 h 7.5199971 m -11.3599957,0.32 m 3.8399986,0 h 7.5199971 m -11.3599957,4.64 m 3.8399986,0 h 7.5199971 m -11.3599957,2.23999 m 3.8399986,0 h 7.5199971 m -11.3599957,0.8 m 3.8399986,0 h 7.5199971 m -11.3599957,2.4 m 3.8399986,0 h 7.5199971 m -11.3599957,1.92 m 3.8399986,0 h 7.5199971 m -11.3599957,3.04 m 3.8399986,0 h 7.5199971 m -11.3599957,2.24 m 3.8399986,0 h 7.5199971 m -11.3599957,0.8 m 3.8399986,0 h 7.5199971 m -11.3599957,2.24 m 3.8399986,0 h 7.5199971 m -11.3599957,0.8 m 3.8399986,0 h 7.5199971 m -11.3599957,0.8 m 3.8399986,0 h 7.5199971 m -11.3599957,1.92 m 3.8399986,0 h 7.5199971 m -11.3599957,1.92 m 3.8399986,0 h 7.5199971 m -11.3599957,3.04 m 3.8399986,0 h 7.5199971 m -11.3599957,0.48 m 3.8399986,0 h 7.5199971 m -11.3599957,0.32 m 3.8399986,0 h 7.5199971 m -11.3599957,1.92 m 3.8399986,0 h 7.5199971 m -11.3599957,4.31999 m 3.8399986,0 h 7.5199971 m -11.3599957,0.32 m 3.8399986,0 h 7.5199971 m -11.3599957,0.8 m 3.8399986,0 h 7.5199971 m -11.3599957,2.72 m 3.8399986,0 h 7.5199971 m -11.3599957,4.16 m 3.8399986,0 h 7.5199971 m -11.3599957,1.92 m 3.8399986,0 h 7.5199971 m -11.3599957,4.64 m 3.8399986,0 h 7.5199971 m -11.3599957,3.04 m 3.8399986,0 h 7.5199971 m -11.3599957,2.4 m 3.8399986,0 h 7.5199971 m -11.3599957,3.36 m 3.8399986,0 h 7.5199971 m -11.3599957,2.71999 m 3.8399986,0 h 7.5199971 m -11.3599957,1.92 m 3.8399986,0 h 7.5199971 m -11.3599957,1.92 m 3.8399986,0 h 7.5199971 m -11.3599957,1.12 m 3.8399986,0 h 7.5199971 m -11.3599957,1.92 m 3.8399986,0 h 7.5199971 m -11.3599957,1.12 m 3.8399986,0 h 7.5199971 m -11.3599957,2.4 m 3.8399986,0 h 7.5199971 m -11.3599957,0.32 m 3.8399986,0 h 7.5199971 m -11.3599957,1.6 m 3.8399986,0 h 7.5199971 m -11.3599957,3.84 m 3.8399986,0 h 7.5199971 m -11.3599957,2.24 m 3.8399986,0 h 7.5199971 m -11.3599957,5.12 m 3.8399986,0 h 7.5199971 m -11.3599957,1.12 m 3.8399986,0 h 7.5199971 m -11.3599957,1.92 m 3.8399986,0 h 7.5199971 m -11.3599957,4.63999 m 3.8399986,0 h 7.5199971 m -11.3599957,6.56 m 3.8399986,0 h 7.5199971 m -11.3599957,3.04 m 3.8399986,0 h 7.5199971 m -11.3599957,2.24 m 3.8399986,0 h 7.5199971 m -11.3599957,1.92 m 3.8399986,0 h 7.5199971 m -11.3599957,3.04 m 3.8399986,0 h 7.5199971 m -11.3599957,0.48 m 3.8399986,0 h 7.5199971 m -11.3599957,1.92 m 3.8399986,0 h 7.5199971 m -11.3599957,0.32 m 3.8399986,0 h 7.5199971 m -11.3599957,2.4 m 3.8399986,0 h 7.5199971 m -11.3599957,2.23999 m 3.8399986,0 h 7.5199971 m -11.3599957,3.52 m 3.8399986,0 h 7.5199971 m -11.3599957,4.16 m 3.8399986,0 h 7.5199971 m -11.3599957,5.76 m 3.8399986,0 h 7.5199971 m -11.3599957,2.4 m 3.8399986,0 h 7.5199971 m -11.3599957,4.16 m 3.8399986,0 h 7.5199971 m -11.3599957,1.12 m 3.8399986,0 h 7.5199971 m -11.3599957,1.92 m 3.8399986,0 H 13.439995 M 2.0799993,268.9599 m 3.8399986,0 h 7.5199971 m -11.3599957,1.92 m 3.8399986,0 h 7.5199971 m -11.3599957,3.2 m 3.8399986,0 h 7.5199971 m -11.3599957,0.64 m 3.8399986,0 h 7.5199971 m -11.3599957,1.28 m 3.8399986,0 h 7.5199971 m -11.3599957,1.92 m 3.8399986,0 h 7.5199971 m -11.3599957,2.56 m 3.8399986,0 h 7.5199971 m -11.3599957,2.72 m 3.8399986,0 h 7.5199971 m -11.3599957,1.12 m 3.8399986,0 h 7.5199971 m -11.3599957,0.8 m 3.8399986,0 h 7.5199971 m -11.3599957,0.8 m 3.8399986,0 h 7.5199971 m -11.3599957,2.72 m 3.8399986,0 h 7.5199971 m -11.3599957,1.6 m 3.8399986,0 h 7.5199971 m -11.3599957,2.24 m 3.8399986,0 h 7.5199971 m -11.3599957,4.15999 m 3.8399986,0 h 7.5199971 m -11.3599957,6.56 m 3.8399986,0 h 7.5199971 m -11.3599957,11.2 m 3.8399986,0 h 7.5199971 m -11.3599957,4.64 m 3.8399986,0 h 7.5199971 m -11.3599957,1.12 m 3.8399986,0 h 7.5199971 m -11.3599957,3.03999 m 3.8399986,0 h 7.5199971 m -11.3599957,0.8 m 3.8399986,0 h 7.5199971 m -11.3599957,1.12 m 3.8399986,0 h 7.5199971 m -11.3599957,0.8 m 3.8399986,0 h 7.5199971 m -11.3599957,1.6 m 3.8399986,0 h 7.5199971 m -11.3599957,0.64 m 3.8399986,0 h 7.5199971 m -11.3599957,0.48 m 3.8399986,0 h 7.5199971 m -11.3599957,0.8 m 3.8399986,0 h 7.5199971 m -11.3599957,3.36 m 3.8399986,0 h 7.5199971 m -11.3599957,4.64 m 3.8399986,0 h 7.5199971 m -11.3599957,4.96 m 3.8399986,0 h 7.5199971 m -11.3599957,2.4 m 3.8399986,0 h 7.5199971 m -11.3599957,3.36 m 3.8399986,0 h 7.5199971 m -11.3599957,3.51999 m 3.8399986,0 h 7.5199971 m -11.3599957,1.92 m 3.8399986,0 h 7.5199971 m -11.3599957,3.04 m 3.8399986,0 h 7.5199971 m -11.3599957,5.76 m 3.8399986,0 h 7.5199971 m -11.3599957,1.28 m 3.8399986,0 h 7.5199971 m -11.3599957,1.12 m 3.8399986,0 h 7.5199971 m -11.3599957,1.92 m 3.8399986,0 h 7.5199971 m -11.3599957,3.84 m 3.8399986,0 h 7.5199971 m -11.3599957,1.12 m 3.8399986,0 h 7.5199971 m -11.3599957,2.24 m 3.8399986,0 h 7.5199971 m -11.3599957,2.72 m 3.8399986,0 h 7.5199971 m -11.3599957,4.63999 m 3.8399986,0 h 7.5199971 m -11.3599957,1.12 m 3.8399986,0 h 7.5199971 m -11.3599957,3.2 m 3.8399986,0 h 7.5199971 m -11.3599957,1.12 m 3.8399986,0 h 7.5199971 m -11.3599957,1.12 m 3.8399986,0 h 7.5199971 m -11.3599957,3.84 m 3.8399986,0 h 7.5199971 m -11.3599957,0.8 m 3.8399986,0 h 7.5199971 m -11.3599957,3.36 m 3.8399986,0 h 7.5199971 m -11.3599957,1.6 m 3.8399986,0 h 7.5199971 m -11.3599957,3.04 m 3.8399986,0 h 7.5199971 m -11.3599957,1.92 m 3.8399986,0 h 7.5199971 m -11.3599957,1.92 m 3.8399986,0 h 7.5199971 m -11.3599957,1.6 m 3.8399986,0 h 7.5199971 m -11.3599957,0.32 m 3.8399986,0 h 7.5199971 m -11.3599957,1.59999 m 3.8399986,0 h 7.5199971 m -11.3599957,1.92 m 3.8399986,0 h 7.5199971 m -11.3599957,3.84 m 3.8399986,0 h 7.5199971 m -11.3599957,1.6 m 3.8399986,0 h 7.5199971 m -11.3599957,3.36 m 3.8399986,0 h 7.5199971 m -11.3599957,0.8 m 3.8399986,0 h 7.5199971 m -11.3599957,0.32 m 3.8399986,0 h 7.5199971 m -11.3599957,0.8 m 3.8399986,0 h 7.5199971 m -11.3599957,0.8 m 3.8399986,0 h 7.5199971 m -11.3599957,1.6 m 3.8399986,0 h 7.5199971 m -11.3599957,1.92 m 3.8399986,0 h 7.5199971 m -11.3599957,1.44 m 3.8399986,0 h 7.5199971 m -11.3599957,2.72 m 3.8399986,0 h 7.5199971 m -11.3599957,6.55999 m 3.8399986,0 h 7.5199971 m -11.3599957,2.24 m 3.8399986,0 h 7.5199971 m -11.3599957,3.52 m 3.8399986,0 h 7.5199971 m -11.3599957,2.24 m 3.8399986,0 h 7.5199971 m -11.3599957,1.6 m 3.8399986,0 h 7.5199971 m -11.3599957,1.12 m 3.8399986,0 h 7.5199971 m -11.3599957,2.4 m 3.8399986,0 h 7.5199971 m -11.3599957,0.32 m 3.8399986,0 h 7.5199971 m -11.3599957,0.8 m 3.8399986,0 h 7.5199971 m -11.3599957,0.8 m 3.8399986,0 h 7.5199971 m -11.3599957,1.12 m 3.8399986,0 h 7.5199971 m -11.3599957,1.6 m 3.8399986,0 h 7.5199971 m -11.3599957,1.12 m 3.8399986,0 h 7.5199971 m -11.3599957,4.64 m 3.8399986,0 h 7.5199971 m -11.3599957,0.32 m 3.8399986,0 h 7.5199971 m -11.3599957,3.83999 m 3.8399986,0 h 7.5199971 m -11.3599957,5.44 m 3.8399986,0 h 7.5199971 m -11.3599957,4.96 m 3.8399986,0 h 7.5199971 m -11.3599957,3.84 m 3.8399986,0 h 7.5199971 m -11.3599957,1.12 m 3.8399986,0 h 7.5199971 m -11.3599957,4.32 m 3.8399986,0 h 7.5199971 m -11.3599957,0.32 m 3.8399986,0 h 7.5199971 m -11.3599957,3.04 m 3.8399986,0 h 7.5199971 m -11.3599957,1.12 m 3.8399986,0 h 7.5199971 m -11.3599957,0.8 m 3.8399986,0 h 7.5199971 m -11.3599957,2.71999 m 3.8399986,0 h 7.5199971 m -11.3599957,0.8 m 3.8399986,0 h 7.5199971 m -11.3599957,1.44 m 3.8399986,0 h 7.5199971 m -11.3599957,2.4 m 3.8399986,0 h 7.5199971 m -11.3599957,5.76 m 3.8399986,0 h 7.5199971 m -11.3599957,8.48 m 3.8399986,0 h 7.5199971 m -11.3599957,1.12 m 3.8399986,0 h 7.5199971 m -11.3599957,0.8 m 3.8399986,0 h 7.5199971 m -11.3599957,1.12 m 3.8399986,0 h 7.5199971 m -11.3599957,3.04 m 3.8399986,0 h 7.5199971 m -11.3599957,0.48 m 3.8399986,0 h 7.5199971 m -11.3599957,1.92 m 3.8399986,0 h 7.5199971 m -11.3599957,1.91999 m 3.8399986,0 h 7.5199971 m -11.3599957,0.8 m 3.8399986,0 h 7.5199971 m -11.3599957,1.92 m 3.8399986,0 h 7.5199971 m -11.3599957,3.36 m 3.8399986,0 h 7.5199971 m -11.3599957,0.48 m 3.8399986,0 h 7.5199971 m -11.3599957,3.84 m 3.8399986,0 h 7.5199971 m -11.3599957,2.56 m 3.8399986,0 h 7.5199971 m -11.3599957,2.72 m 3.8399986,0 h 7.5199971 m -11.3599957,2.72 m 3.8399986,0 h 7.5199971 m -11.3599957,1.92 m 3.8399986,0 h 7.5199971 m -11.3599957,1.92 m 3.8399986,0 H 13.439995 M 2.0799993,550.0798 m 3.8399986,0 h 7.5199971 m -11.3599957,1.6 m 3.8399986,0 h 7.5199971 m -11.3599957,1.12 m 3.8399986,0 h 7.5199971 m -11.3599957,0.32 m 3.8399986,0 h 7.5199971 m -11.3599957,0.48 m 3.8399986,0 h 7.5199971"
       style="fill:none;stroke:#000000;stroke-width:3.83999872px;stroke-linecap:round;stroke-linejoin:round;stroke-miterlimit:10;stroke-dasharray:none;stroke-opacity:1"
       inkscape:connector-curvature="0" />
    <text
       id="text11"
       y="16.973877"
       x="0"
       transform="translate(2.559999)"
       style="font-style:normal;font-variant:normal;font-weight:700;font-size:18.75px;line-height:125%;font-family:Arial;text-align:start;letter-spacing:0px;word-spacing:0px;text-anchor:start;fill:#000000;fill-opacity:1;stroke:none"
       xml:space="preserve"><tspan
         id="tspan9"
         y="16.973877"
         x="0"
         sodipodi:role="line"><tspan
           id="tspan7"
           style="font-style:normal;font-variant:normal;font-weight:700;font-size:18.75px;font-family:Arial;fill:#000000"
           dy="0"
           dx="0">1</tspan></tspan></text>
    <path
       id="path13"
       d="M 12.959995,0 M 2.0799993,0 M 88.959968,0 m 0,111.35996 c 0,-3.09279 2.507205,-5.6 5.599998,-5.6 h 0.16 c 3.092794,0 5.599994,2.50721 5.599994,5.6 v 284.9599 c 0,3.09279 -2.5072,5.6 -5.599994,5.6 h -0.16 c -3.092793,0 -5.599998,-2.50721 -5.599998,-5.6 z m 0,0 m 3.839999,0 h 7.519993 m -11.359992,3.52 m 3.839999,0 h 7.519993 m -11.359992,0.64 m 3.839999,0 h 7.519993 m -11.359992,3.84 m 3.839999,0 h 7.519993 m -11.359992,1.92 m 3.839999,0 h 7.519993 m -11.359992,2.72 m 3.839999,0 h 7.519993 m -11.359992,0.8 m 3.839999,0 h 7.519993 m -11.359992,1.91999 m 3.839999,0 h 7.519993 m -11.359992,0.8 m 3.839999,0 h 7.519993 m -11.359992,2.24 m 3.839999,0 h 7.519993 m -11.359992,3.52 m 3.839999,0 h 7.519993 m -11.359992,5.76 m 3.839999,0 h 7.519993 m -11.359992,1.12 m 3.839999,0 h 7.519993 m -11.359992,1.12 m 3.839999,0 h 7.519993 m -11.359992,1.28 m 3.839999,0 h 7.519993 m -11.359992,1.12 m 3.839999,0 h 7.519993 m -11.359992,2.72 m 3.839999,0 h 7.519993 m -11.359992,6.88 m 3.839999,0 h 7.519993 m -11.359992,0.8 m 3.839999,0 h 7.519993 m -11.359992,0.79999 m 3.839999,0 h 7.519993 m -11.359992,1.44 m 3.839999,0 h 7.519993 m -11.359992,0.48 m 3.839999,0 h 7.519993 m -11.359992,1.44 m 3.839999,0 h 7.519993 m -11.359992,1.6 m 3.839999,0 h 7.519993 m -11.359992,1.44 m 3.839999,0 h 7.519993 m -11.359992,1.6 m 3.839999,0 h 7.519993 m -11.359992,2.24 m 3.839999,0 h 7.519993 m -11.359992,0.8 m 3.839999,0 h 7.519993 m -11.359992,5.12 m 3.839999,0 h 7.519993 m -11.359992,3.36 m 3.839999,0 h 7.519993 m -11.359992,4.96 m 3.839999,0 h 7.519993 m -11.359992,0.48 m 3.839999,0 h 7.519993 m -11.359992,1.44 m 3.839999,0 h 7.519993 m -11.359992,9.27999 m 3.839999,0 h 7.519993 m -11.359992,6.24 m 3.839999,0 h 7.519993 m -11.359992,3.04 m 3.839999,0 h 7.519993 m -11.359992,2.72 m 3.839999,0 h 7.519993 m -11.359992,3.04 m 3.839999,0 h 7.519993 m -11.359992,6.87999 m 3.839999,0 h 7.519993 m -11.359992,1.6 m 3.839999,0 h 7.519993 m -11.359992,1.12 m 3.839999,0 h 7.519993 m -11.359992,1.92 m 3.839999,0 h 7.519993 m -11.359992,2.72 m 3.839999,0 h 7.519993 m -11.359992,2.72 m 3.839999,0 h 7.519993 m -11.359992,0.32 m 3.839999,0 h 7.519993 m -11.359992,1.92 m 3.839999,0 h 7.519993 m -11.359992,1.92 m 3.839999,0 h 7.519993 m -11.359992,3.52 m 3.839999,0 h 7.519993 m -11.359992,1.92 m 3.839999,0 h 7.519993 m -11.359992,2.24 m 3.839999,0 h 7.519993 m -11.359992,2.24 m 3.839999,0 h 7.519993 m -11.359992,7.03999 m 3.839999,0 h 7.519993 m -11.359992,3.84 m 3.839999,0 h 7.519993 m -11.359992,3.04 m 3.839999,0 h 7.519993 m -11.359992,4.96 m 3.839999,0 h 7.519993 m -11.359992,4.96 m 3.839999,0 h 7.519993 m -11.359992,0.8 m 3.839999,0 h 7.519993 m -11.359992,2.4 m 3.839999,0 h 7.519993 m -11.359992,2.24 m 3.839999,0 h 7.519993 m -11.359992,1.11999 m 3.839999,0 h 7.519993 m -11.359992,0.8 m 3.839999,0 h 7.519993 m -11.359992,1.12 m 3.839999,0 h 7.519993 m -11.359992,3.52 m 3.839999,0 h 7.519993 m -11.359992,6.56 m 3.839999,0 h 7.519993 m -11.359992,1.44 m 3.839999,0 h 7.519993 m -11.359992,1.6 m 3.839999,0 h 7.519993 m -11.359992,1.92 m 3.839999,0 h 7.519993 m -11.359992,5.76 m 3.839999,0 h 7.519993 m -11.359992,0.8 m 3.839999,0 h 7.519993 m -11.359992,3.52 m 3.839999,0 h 7.519993 m -11.359992,1.11999 m 3.839999,0 h 7.519993 m -11.359992,1.44 m 3.839999,0 h 7.519993 m -11.359992,0.8 m 3.839999,0 h 7.519993 m -11.359992,5.44 m 3.839999,0 h 7.519993 m -11.359992,2.72 m 3.839999,0 h 7.519993 m -11.359992,0.64 m 3.839999,0 h 7.519993 m -11.359992,2.4 m 3.839999,0 h 7.519993 m -11.359992,0.8 m 3.839999,0 h 7.519993 m -11.359992,0.64 m 3.839999,0 h 7.519993 m -11.359992,0.48 m 3.839999,0 h 7.519993 m -11.359992,1.12 m 3.839999,0 h 7.519993 m -11.359992,0.8 m 3.839999,0 h 7.519993 m -11.359992,0.32 m 3.839999,0 h 7.519993 m -11.359992,0.8 m 3.839999,0 h 7.519993 m -11.359992,1.6 m 3.839999,0 h 7.519993 m -11.359992,2.24 m 3.839999,0 h 7.519993 m -11.359992,1.12 m 3.839999,0 h 7.519993 m -11.359992,7.35999 m 3.839999,0 h 7.519993 m -11.359992,1.92 m 3.839999,0 h 7.519993 m -11.359992,0.32 m 3.839999,0 h 7.519993 m -11.359992,4.32 m 3.839999,0 h 7.519993 m -11.359992,1.12 m 3.839999,0 h 7.519993 m -11.359992,4.96 m 3.839999,0 h 7.519993 m -11.359992,4.64 m 3.839999,0 h 7.519993 m -11.359992,4.64 m 3.839999,0 h 7.519993 m -11.359992,2.24 m 3.839999,0 h 7.519993 m -11.359992,2.71999 m 3.839999,0 h 7.519993 m -11.359992,3.04 m 3.839999,0 h 7.519993 m -11.359992,0.48 m 3.839999,0 h 7.519993 m -11.359992,1.92 m 3.839999,0 h 7.519993 m -11.359992,1.92 m 3.839999,0 h 7.519993 m -11.359992,0.32 m 3.839999,0 h 7.519993 m -11.359992,2.4 m 3.839999,0 h 7.519993 m -11.359992,0.32 m 3.839999,0 h 7.519993 m -11.359992,1.92 m 3.839999,0 h 7.519993 m -11.359992,2.72 m 3.839999,0 h 7.519993 m -11.359992,2.72 m 3.839999,0 h 7.519993 m -11.359992,0.8 m 3.839999,0 h 7.519993 m -11.359992,2.24 m 3.839999,0 h 7.519993 m -11.359992,3.04 m 3.839999,0 h 7.519993 m -11.359992,1.6 m 3.839999,0 h 7.519993 m -11.359992,1.91999 m 3.839999,0 h 7.519993 m -11.359992,2.24 m 3.839999,0 h 7.519993 m -11.359992,5.76 m 3.839999,0 h 7.519993 m -11.359992,3.2 m 3.839999,0 h 7.519993 m -11.359992,0.32 m 3.839999,0 h 7.519993 m -11.359992,3.04 m 3.839999,0 h 7.519993 m -11.359992,1.6 m 3.839999,0 h 7.519993"
       style="fill:none;stroke:#000000;stroke-width:3.83999872px;stroke-linecap:round;stroke-linejoin:round;stroke-miterlimit:10;stroke-dasharray:none;stroke-opacity:1"
       inkscape:connector-curvature="0" />
    <path
       id="path15"
       d="m 121.91996,268.9599 v 0 m -9.6,0 h 18.87999"
       style="fill:none;stroke:#ff0000;stroke-width:3.83999872px;stroke-linecap:round;stroke-linejoin:round;stroke-miterlimit:10;stroke-dasharray:none;stroke-opacity:1"
       inkscape:connector-curvature="0" />
    <path
       id="path17"
       d="m 112.31996,268.9599 v 0 h 9.6 9.27999 v 0 h -9.27999 z m 9.6,0 v 13.12 m -9.6,0 h 18.87999"
       style="fill:#ff0000;fill-opacity:1;fill-rule:evenodd;stroke:#ff0000;stroke-width:3.83999872px;stroke-linecap:round;stroke-linejoin:round;stroke-miterlimit:10;stroke-dasharray:none;stroke-opacity:1"
       inkscape:connector-curvature="0" />
    <text
       id="text23"
       y="21.726562"
       x="0"
       transform="rotate(90,-34.959987,196.23993)"
       style="font-style:normal;font-variant:normal;font-weight:700;font-size:24px;line-height:125%;font-family:Arial;text-align:start;letter-spacing:0px;word-spacing:0px;text-anchor:start;fill:#000000;fill-opacity:1;stroke:none"
       xml:space="preserve"><tspan
         id="tspan21"
         y="21.726562"
         x="0"
         sodipodi:role="line"><tspan
           id="tspan19"
           style="font-style:normal;font-variant:normal;font-weight:700;font-size:24px;font-family:Arial;fill:#ff0000"
           dy="0"
           dx="0">IG_SAR</tspan></tspan></text>
    <text
       id="text29"
       y="16.973877"
       x="0"
       transform="translate(89.439968)"
       style="font-style:normal;font-variant:normal;font-weight:700;font-size:18.75px;line-height:125%;font-family:Arial;text-align:start;letter-spacing:0px;word-spacing:0px;text-anchor:start;fill:#000000;fill-opacity:1;stroke:none"
       xml:space="preserve"><tspan
         id="tspan27"
         y="16.973877"
         x="0"
         sodipodi:role="line"><tspan
           id="tspan25"
           style="font-style:normal;font-variant:normal;font-weight:700;font-size:18.75px;font-family:Arial;fill:#000000"
           dy="0"
           dx="0">2</tspan></tspan></text>
    <path
       id="path31"
       d="M 99.839964,0 M 2.0799993,0 M 236.79992,0 m 0,111.35996 c 0,-3.09279 2.5072,-5.6 5.59999,-5.6 h 0.16 c 3.0928,0 5.6,2.50721 5.6,5.6 v 313.43989 c 0,3.09279 -2.5072,5.6 -5.6,5.6 h -0.16 c -3.09279,0 -5.59999,-2.50721 -5.59999,-5.6 z m 0,0 m 3.83999,0 h 7.52 m -11.35999,0.8 m 3.83999,0 h 7.52 m -11.35999,2.72 m 3.83999,0 h 7.52 m -11.35999,1.12 m 3.83999,0 h 7.52 m -11.35999,1.92 m 3.83999,0 h 7.52 m -11.35999,1.12 m 3.83999,0 h 7.52 m -11.35999,0.32 m 3.83999,0 h 7.52 m -11.35999,0.8 m 3.83999,0 h 7.52 m -11.35999,1.12 m 3.83999,0 h 7.52 m -11.35999,2.72 m 3.83999,0 h 7.52 m -11.35999,0.8 m 3.83999,0 h 7.52 m -11.35999,3.51999 m 3.83999,0 h 7.52 m -11.35999,1.44 m 3.83999,0 h 7.52 m -11.35999,2.72 m 3.83999,0 h 7.52 m -11.35999,2.4 m 3.83999,0 h 7.52 m -11.35999,1.44 m 3.83999,0 h 7.52 m -11.35999,4.32 m 3.83999,0 h 7.52 m -11.35999,1.12 m 3.83999,0 h 7.52 m -11.35999,0.8 m 3.83999,0 h 7.52 m -11.35999,1.12 m 3.83999,0 h 7.52 m -11.35999,2.24 m 3.83999,0 h 7.52 m -11.35999,1.6 m 3.83999,0 h 7.52 m -11.35999,2.72 m 3.83999,0 h 7.52 m -11.35999,0.32 m 3.83999,0 h 7.52 m -11.35999,3.04 m 3.83999,0 h 7.52 m -11.35999,1.91999 m 3.83999,0 h 7.52 m -11.35999,0.8 m 3.83999,0 h 7.52 m -11.35999,0.48 m 3.83999,0 h 7.52 m -11.35999,2.56 m 3.83999,0 h 7.52 m -11.35999,0.8 m 3.83999,0 h 7.52 m -11.35999,1.92 m 3.83999,0 h 7.52 m -11.35999,1.6 m 3.83999,0 h 7.52 m -11.35999,1.92 m 3.83999,0 h 7.52 m -11.35999,1.12 m 3.83999,0 h 7.52 m -11.35999,1.6 m 3.83999,0 h 7.52 m -11.35999,3.36 m 3.83999,0 h 7.52 m -11.35999,0.8 m 3.83999,0 h 7.52 m -11.35999,1.6 m 3.83999,0 h 7.52 m -11.35999,2.24 m 3.83999,0 h 7.52 m -11.35999,1.12 m 3.83999,0 h 7.52 m -11.35999,1.92 m 3.83999,0 h 7.52 m -11.35999,1.28 m 3.83999,0 h 7.52 m -11.35999,0.64 m 3.83999,0 h 7.52 m -11.35999,1.91999 m 3.83999,0 h 7.52 m -11.35999,0.8 m 3.83999,0 h 7.52 m -11.35999,0.8 m 3.83999,0 h 7.52 m -11.35999,1.92 m 3.83999,0 h 7.52 m -11.35999,1.12 m 3.83999,0 h 7.52 m -11.35999,1.6 m 3.83999,0 h 7.52 m -11.35999,1.12 m 3.83999,0 h 7.52 m -11.35999,1.12 m 3.83999,0 h 7.52 m -11.35999,1.12 m 3.83999,0 h 7.52 m -11.35999,0.48 m 3.83999,0 h 7.52 m -11.35999,3.04 m 3.83999,0 h 7.52 m -11.35999,3.04 m 3.83999,0 h 7.52 m -11.35999,1.28 m 3.83999,0 h 7.52 m -11.35999,1.12 m 3.83999,0 h 7.52 m -11.35999,0.32 m 3.83999,0 h 7.52 m -11.35999,10.07999 m 3.83999,0 h 7.52 m -11.35999,0.64 m 3.83999,0 h 7.52 m -11.35999,3.52 m 3.83999,0 h 7.52 m -11.35999,4.32 m 3.83999,0 h 7.52 m -11.35999,1.12 m 3.83999,0 h 7.52 m -11.35999,4.64 m 3.83999,0 h 7.52 m -11.35999,0.64 m 3.83999,0 h 7.52 m -11.35999,9.6 m 3.83999,0 h 7.52 m -11.35999,4.31999 m 3.83999,0 h 7.52 m -11.35999,1.12 m 3.83999,0 h 7.52 m -11.35999,1.6 m 3.83999,0 h 7.52 m -11.35999,3.04 m 3.83999,0 h 7.52 m -11.35999,2.24 m 3.83999,0 h 7.52 m -11.35999,1.92 m 3.83999,0 h 7.52 m -11.35999,3.52 m 3.83999,0 h 7.52 m -11.35999,2.24 m 3.83999,0 h 7.52 m -11.35999,0.8 m 3.83999,0 h 7.52 m -11.35999,4.96 m 3.83999,0 h 7.52 m -11.35999,1.28 m 3.83999,0 h 7.52 m -11.35999,13.75999 m 3.83999,0 h 7.52 m -11.35999,6.88 m 3.83999,0 h 7.52 m -11.35999,2.72 m 3.83999,0 h 7.52 m -11.35999,1.92 m 3.83999,0 h 7.52 m -11.35999,1.92 m 3.83999,0 h 7.52 m -11.35999,8.15999 m 3.83999,0 h 7.52 m -11.35999,1.92 m 3.83999,0 h 7.52 m -11.35999,0.32 m 3.83999,0 h 7.52 m -11.35999,0.48 m 3.83999,0 h 7.52 m -11.35999,0.32 m 3.83999,0 h 7.52 m -11.35999,1.92 m 3.83999,0 h 7.52 m -11.35999,1.12 m 3.83999,0 h 7.52 m -11.35999,0.8 m 3.83999,0 h 7.52 m -11.35999,0.32 m 3.83999,0 h 7.52 m -11.35999,1.6 m 3.83999,0 h 7.52 m -11.35999,2.72 m 3.83999,0 h 7.52 m -11.35999,0.32 m 3.83999,0 h 7.52 m -11.35999,3.52 m 3.83999,0 h 7.52 m -11.35999,3.04 m 3.83999,0 h 7.52 m -11.35999,1.6 m 3.83999,0 h 7.52 m -11.35999,4.63999 m 3.83999,0 h 7.52 m -11.35999,9.6 m 3.83999,0 h 7.52 m -11.35999,2.72 m 3.83999,0 h 7.52 m -11.35999,2.56 m 3.83999,0 h 7.52 m -11.35999,0.8 m 3.83999,0 h 7.52 m -11.35999,1.6 m 3.83999,0 h 7.52 m -11.35999,0.8 m 3.83999,0 h 7.52 m -11.35999,0.64 m 3.83999,0 h 7.52 m -11.35999,1.28 m 3.83999,0 h 7.52 m -11.35999,4.48 m 3.83999,0 h 7.52 m -11.35999,0.48 m 3.83999,0 h 7.52 m -11.35999,0.32 m 3.83999,0 h 7.52 m -11.35999,0.8 m 3.83999,0 h 7.52 m -11.35999,4.95999 m 3.83999,0 h 7.52 m -11.35999,0.8 m 3.83999,0 h 7.52 m -11.35999,8.48 m 3.83999,0 h 7.52 m -11.35999,2.72 m 3.83999,0 h 7.52 m -11.35999,0.32 m 3.83999,0 h 7.52 m -11.35999,3.04 m 3.83999,0 h 7.52 m -11.35999,1.92 m 3.83999,0 h 7.52 m -11.35999,2.72 m 3.83999,0 h 7.52 m -11.35999,0.48 m 3.83999,0 h 7.52 m -11.35999,3.35999 m 3.83999,0 h 7.52 m -11.35999,1.12 m 3.83999,0 h 7.52 m -11.35999,2.72 m 3.83999,0 h 7.52 m -11.35999,1.28 m 3.83999,0 h 7.52 m -11.35999,2.56 m 3.83999,0 h 7.52 m -11.35999,1.28 m 3.83999,0 h 7.52 m -11.35999,1.12 m 3.83999,0 h 7.52 m -11.35999,5.76 m 3.83999,0 h 7.52 m -11.35999,2.24 m 3.83999,0 h 7.52 m -11.35999,4.32 m 3.83999,0 h 7.52 m -11.35999,0.32 m 3.83999,0 h 7.52 m -11.35999,1.92 m 3.83999,0 h 7.52 m -11.35999,3.83999 m 3.83999,0 h 7.52 m -11.35999,0.8 m 3.83999,0 h 7.52 m -11.35999,1.92 m 3.83999,0 h 7.52 m -11.35999,0.32 m 3.83999,0 h 7.52 m -11.35999,7.36 m 3.83999,0 h 7.52 m -11.35999,1.6 m 3.83999,0 h 7.52 m -11.35999,0.32 m 3.83999,0 h 7.52 m -11.35999,0.8 m 3.83999,0 h 7.52 m -11.35999,3.04 m 3.83999,0 h 7.52 m -11.35999,0.32 m 3.83999,0 h 7.52 m -11.35999,1.28 m 3.83999,0 h 7.52"
       style="fill:none;stroke:#000000;stroke-width:3.83999872px;stroke-linecap:round;stroke-linejoin:round;stroke-miterlimit:10;stroke-dasharray:none;stroke-opacity:1"
       inkscape:connector-curvature="0" />
    <text
       id="text37"
       y="16.973877"
       x="0"
       transform="translate(237.27991)"
       style="font-style:normal;font-variant:normal;font-weight:700;font-size:18.75px;line-height:125%;font-family:Arial;text-align:start;letter-spacing:0px;word-spacing:0px;text-anchor:start;fill:#000000;fill-opacity:1;stroke:none"
       xml:space="preserve"><tspan
         id="tspan35"
         y="16.973877"
         x="0"
         sodipodi:role="line"><tspan
           id="tspan33"
           style="font-style:normal;font-variant:normal;font-weight:700;font-size:18.75px;font-family:Arial;fill:#000000"
           dy="0"
           dx="0">3</tspan></tspan></text>
    <path
       id="path39"
       d="M 247.67991,0 M 2.0799993,0 M 323.67988,0 m 0,111.35996 c 0,-3.09279 2.50721,-5.6 5.6,-5.6 h 0.16 c 3.0928,0 5.6,2.50721 5.6,5.6 v 279.5199 c 0,3.09279 -2.5072,5.6 -5.6,5.6 h -0.16 c -3.09279,0 -5.6,-2.50721 -5.6,-5.6 z m 0,0 m 3.84,0 h 7.52 m -11.36,1.12 m 3.84,0 h 7.52 m -11.36,8.48 m 3.84,0 h 7.52 m -11.36,1.6 m 3.84,0 h 7.52 m -11.36,6.55999 m 3.84,0 h 7.52 m -11.36,2.24 m 3.84,0 h 7.52 m -11.36,2.72 m 3.84,0 h 7.52 m -11.36,2.72 m 3.84,0 h 7.52 m -11.36,0.32 m 3.84,0 h 7.52 m -11.36,1.6 m 3.84,0 h 7.52 m -11.36,1.92 m 3.84,0 h 7.52 m -11.36,0.32 m 3.84,0 h 7.52 m -11.36,5.44 m 3.84,0 h 7.52 m -11.36,2.24 m 3.84,0 h 7.52 m -11.36,5.44 m 3.84,0 h 7.52 m -11.36,0.31999 m 3.84,0 h 7.52 m -11.36,0.8 m 3.84,0 h 7.52 m -11.36,0.32 m 3.84,0 h 7.52 m -11.36,0.8 m 3.84,0 h 7.52 m -11.36,1.92 m 3.84,0 h 7.52 m -11.36,1.12 m 3.84,0 h 7.52 m -11.36,1.28 m 3.84,0 h 7.52 m -11.36,1.92 m 3.84,0 h 7.52 m -11.36,7.2 m 3.84,0 h 7.52 m -11.36,5.12 m 3.84,0 h 7.52 m -11.36,3.36 m 3.84,0 h 7.52 m -11.36,6.87999 m 3.84,0 h 7.52 m -11.36,3.2 m 3.84,0 h 7.52 m -11.36,2.56 m 3.84,0 h 7.52 m -11.36,1.28 m 3.84,0 h 7.52 m -11.36,9.92 m 3.84,0 h 7.52 m -11.36,8.79999 m 3.84,0 h 7.52 m -11.36,3.52 m 3.84,0 h 7.52 m -11.36,4.32 m 3.84,0 h 7.52 m -11.36,1.44 m 3.84,0 h 7.52 m -11.36,9.28 m 3.84,0 h 7.52 m -11.36,5.76 m 3.84,0 h 7.52 m -11.36,3.83999 m 3.84,0 h 7.52 m -11.36,1.12 m 3.84,0 h 7.52 m -11.36,2.72 m 3.84,0 h 7.52 m -11.36,3.04 m 3.84,0 h 7.52 m -11.36,0.48 m 3.84,0 h 7.52 m -11.36,2.24 m 3.84,0 h 7.52 m -11.36,2.24 m 3.84,0 h 7.52 m -11.36,1.28 m 3.84,0 h 7.52 m -11.36,1.44 m 3.84,0 h 7.52 m -11.36,2.4 m 3.84,0 h 7.52 m -11.36,1.12 m 3.84,0 h 7.52 m -11.36,3.36 m 3.84,0 h 7.52 m -11.36,1.28 m 3.84,0 h 7.52 m -11.36,1.44 m 3.84,0 h 7.52 m -11.36,0.8 m 3.84,0 h 7.52 m -11.36,3.51999 m 3.84,0 h 7.52 m -11.36,0.32 m 3.84,0 h 7.52 m -11.36,2.4 m 3.84,0 h 7.52 m -11.36,5.76 m 3.84,0 h 7.52 m -11.36,1.92 m 3.84,0 h 7.52 m -11.36,1.44 m 3.84,0 h 7.52 m -11.36,1.92 m 3.84,0 h 7.52 m -11.36,0.48 m 3.84,0 h 7.52 m -11.36,2.24 m 3.84,0 h 7.52 m -11.36,0.32 m 3.84,0 h 7.52 m -11.36,2.4 m 3.84,0 h 7.52 m -11.36,9.27999 m 3.84,0 h 7.52 m -11.36,1.12 m 3.84,0 h 7.52 m -11.36,6.08 m 3.84,0 h 7.52 m -11.36,0.8 m 3.84,0 h 7.52 m -11.36,4.16 m 3.84,0 h 7.52 m -11.36,2.72 m 3.84,0 h 7.52 m -11.36,1.6 m 3.84,0 h 7.52 m -11.36,2.72 m 3.84,0 h 7.52 m -11.36,4.64 m 3.84,0 h 7.52 m -11.36,2.24 m 3.84,0 h 7.52 m -11.36,0.31999 m 3.84,0 h 7.52 m -11.36,2.72 m 3.84,0 h 7.52 m -11.36,2.4 m 3.84,0 h 7.52 m -11.36,2.24 m 3.84,0 h 7.52 m -11.36,0.8 m 3.84,0 h 7.52 m -11.36,0.32 m 3.84,0 h 7.52 m -11.36,1.6 m 3.84,0 h 7.52 m -11.36,4.16 m 3.84,0 h 7.52 m -11.36,4.32 m 3.84,0 h 7.52 m -11.36,0.8 m 3.84,0 h 7.52 m -11.36,0.32 m 3.84,0 h 7.52 m -11.36,1.12 m 3.84,0 h 7.52 m -11.36,2.72 m 3.84,0 h 7.52 m -11.36,1.12 m 3.84,0 h 7.52 m -11.36,1.6 m 3.84,0 h 7.52 m -11.36,1.91999 m 3.84,0 h 7.52 m -11.36,1.12 m 3.84,0 h 7.52 m -11.36,1.12 m 3.84,0 h 7.52 m -11.36,3.04 m 3.84,0 h 7.52 m -11.36,1.6 m 3.84,0 h 7.52 m -11.36,3.04 m 3.84,0 h 7.52 m -11.36,3.84 m 3.84,0 h 7.52 m -11.36,2.4 m 3.84,0 h 7.52 m -11.36,1.44 m 3.84,0 h 7.52 m -11.36,1.92 m 3.84,0 h 7.52 m -11.36,1.92 m 3.84,0 h 7.52 m -11.36,0.8 m 3.84,0 h 7.52 m -11.36,3.52 m 3.84,0 h 7.52 m -11.36,0.8 m 3.84,0 h 7.52 m -11.36,10.39999 m 3.84,0 h 7.52 m -11.36,0.32 m 3.84,0 h 7.52 m -11.36,0.8 m 3.84,0 h 7.52 m -11.36,1.44 m 3.84,0 h 7.52 m -11.36,0.8 m 3.84,0 h 7.52"
       style="fill:none;stroke:#000000;stroke-width:3.83999872px;stroke-linecap:round;stroke-linejoin:round;stroke-miterlimit:10;stroke-dasharray:none;stroke-opacity:1"
       inkscape:connector-curvature="0" />
    <path
       id="path41"
       d="m 356.63987,111.35996 v 0 m -9.59999,0 h 18.87999"
       style="fill:none;stroke:#000000;stroke-width:3.83999872px;stroke-linecap:round;stroke-linejoin:round;stroke-miterlimit:10;stroke-dasharray:none;stroke-opacity:1"
       inkscape:connector-curvature="0" />
    <path
       id="path43"
       d="m 347.03988,111.35996 v 0 h 9.59999 9.28 v 0 h -9.28 z m 9.59999,0 v 9.6 m -9.59999,0 h 18.87999"
       style="fill:#000000;fill-opacity:1;fill-rule:evenodd;stroke:#000000;stroke-width:3.83999872px;stroke-linecap:round;stroke-linejoin:round;stroke-miterlimit:10;stroke-dasharray:none;stroke-opacity:1"
       inkscape:connector-curvature="0" />
    <text
       id="text49"
       y="21.726562"
       x="0"
       transform="rotate(90,164.39994,231.59992)"
       style="font-style:normal;font-variant:normal;font-weight:700;font-size:24px;line-height:125%;font-family:Arial;text-align:start;letter-spacing:0px;word-spacing:0px;text-anchor:start;fill:#000000;fill-opacity:1;stroke:none"
       xml:space="preserve"><tspan
         id="tspan47"
         y="21.726562"
         x="0"
         sodipodi:role="line"><tspan
           id="tspan45"
           style="font-style:normal;font-variant:normal;font-weight:700;font-size:24px;font-family:Arial;fill:#000000"
           dy="0"
           dx="0">BD_SAR</tspan></tspan></text>
    <path
       id="path51"
       d="m 356.63987,240.15991 v 0 m -9.59999,0 h 18.87999"
       style="fill:none;stroke:#000000;stroke-width:3.83999872px;stroke-linecap:round;stroke-linejoin:round;stroke-miterlimit:10;stroke-dasharray:none;stroke-opacity:1"
       inkscape:connector-curvature="0" />
    <path
       id="path53"
       d="m 347.03988,240.15991 v 0 h 9.59999 9.28 v 0 h -9.28 z m 9.59999,0 v 35.83999 m -9.59999,0 h 18.87999"
       style="fill:#000000;fill-opacity:1;fill-rule:evenodd;stroke:#000000;stroke-width:3.83999872px;stroke-linecap:round;stroke-linejoin:round;stroke-miterlimit:10;stroke-dasharray:none;stroke-opacity:1"
       inkscape:connector-curvature="0" />
    <text
       id="text59"
       y="21.726562"
       x="0"
       transform="rotate(90,93.439967,302.55989)"
       style="font-style:normal;font-variant:normal;font-weight:700;font-size:24px;line-height:125%;font-family:Arial;text-align:start;letter-spacing:0px;word-spacing:0px;text-anchor:start;fill:#000000;fill-opacity:1;stroke:none"
       xml:space="preserve"><tspan
         id="tspan57"
         y="21.726562"
         x="0"
         sodipodi:role="line"><tspan
           id="tspan55"
           style="font-style:normal;font-variant:normal;font-weight:700;font-size:24px;font-family:Arial;fill:#000000"
           dy="0"
           dx="0">BD_SAR</tspan></tspan></text>
    <path
       id="path61"
       d="m 417.59985,111.35996 v 0 m -9.6,0 h 18.88"
       style="fill:none;stroke:#000080;stroke-width:3.83999872px;stroke-linecap:round;stroke-linejoin:round;stroke-miterlimit:10;stroke-dasharray:none;stroke-opacity:1"
       inkscape:connector-curvature="0" />
    <path
       id="path63"
       d="m 407.99985,111.35996 v 0 h 9.6 9.28 v 0 h -9.28 z m 9.6,0 v 17.75999 m -9.6,0 h 18.88"
       style="fill:#000080;fill-opacity:1;fill-rule:evenodd;stroke:#000080;stroke-width:3.83999872px;stroke-linecap:round;stroke-linejoin:round;stroke-miterlimit:10;stroke-dasharray:none;stroke-opacity:1"
       inkscape:connector-curvature="0" />
    <text
       id="text69"
       y="21.726562"
       x="0"
       transform="rotate(90,192.87993,264.07991)"
       style="font-style:normal;font-variant:normal;font-weight:700;font-size:24px;line-height:125%;font-family:Arial;text-align:start;letter-spacing:0px;word-spacing:0px;text-anchor:start;fill:#000000;fill-opacity:1;stroke:none"
       xml:space="preserve"><tspan
         id="tspan67"
         y="21.726562"
         x="0"
         sodipodi:role="line"><tspan
           id="tspan65"
           style="font-style:normal;font-variant:normal;font-weight:700;font-size:24px;font-family:Arial;fill:#000080"
           dy="0"
           dx="0">RB_SAR</tspan></tspan></text>
    <text
       id="text75"
       y="16.973877"
       x="0"
       transform="translate(324.15988)"
       style="font-style:normal;font-variant:normal;font-weight:700;font-size:18.75px;line-height:125%;font-family:Arial;text-align:start;letter-spacing:0px;word-spacing:0px;text-anchor:start;fill:#000000;fill-opacity:1;stroke:none"
       xml:space="preserve"><tspan
         id="tspan73"
         y="16.973877"
         x="0"
         sodipodi:role="line"><tspan
           id="tspan71"
           style="font-style:normal;font-variant:normal;font-weight:700;font-size:18.75px;font-family:Arial;fill:#000000"
           dy="0"
           dx="0">4</tspan></tspan></text>
    <path
       id="path77"
       d="M 334.55988,0 M 2.0799993,0 M 532.47981,0 m 0,111.35996 c 0,-3.09279 2.5072,-5.6 5.6,-5.6 h 0.16 c 3.09279,0 5.6,2.50721 5.6,5.6 v 411.83985 c 0,3.0928 -2.50721,5.6 -5.6,5.6 h -0.16 c -3.0928,0 -5.6,-2.5072 -5.6,-5.6 z m 0,0 m 3.84,0 h 7.52 m -11.36,0.8 m 3.84,0 h 7.52 m -11.36,3.36 m 3.84,0 h 7.52 m -11.36,7.04 m 3.84,0 h 7.52 m -11.36,0.32 m 3.84,0 h 7.52 m -11.36,3.51999 m 3.84,0 h 7.52 m -11.36,1.92 m 3.84,0 h 7.52 m -11.36,3.84 m 3.84,0 h 7.52 m -11.36,2.72 m 3.84,0 h 7.52 m -11.36,2.24 m 3.84,0 h 7.52 m -11.36,0.8 m 3.84,0 h 7.52 m -11.36,5.76 m 3.84,0 h 7.52 m -11.36,0.8 m 3.84,0 h 7.52 m -11.36,2.24 m 3.84,0 h 7.52 m -11.36,2.4 m 3.84,0 h 7.52 m -11.36,1.44 m 3.84,0 h 7.52 m -11.36,0.8 m 3.84,0 h 7.52 m -11.36,1.12 m 3.84,0 h 7.52 m -11.36,1.12 m 3.84,0 h 7.52 m -11.36,0.79999 m 3.84,0 h 7.52 m -11.36,1.12 m 3.84,0 h 7.52 m -11.36,1.6 m 3.84,0 h 7.52 m -11.36,1.92 m 3.84,0 h 7.52 m -11.36,1.92 m 3.84,0 h 7.52 m -11.36,1.6 m 3.84,0 h 7.52 m -11.36,6.88 m 3.84,0 h 7.52 m -11.36,0.8 m 3.84,0 h 7.52 m -11.36,0.8 m 3.84,0 h 7.52 m -11.36,0.32 m 3.84,0 h 7.52 m -11.36,4.16 m 3.84,0 h 7.52 m -11.36,1.92 m 3.84,0 h 7.52 m -11.36,4.64 m 3.84,0 h 7.52 m -11.36,1.59999 m 3.84,0 h 7.52 m -11.36,1.92 m 3.84,0 h 7.52 m -11.36,1.92 m 3.84,0 h 7.52 m -11.36,1.92 m 3.84,0 h 7.52 m -11.36,3.04 m 3.84,0 h 7.52 m -11.36,1.92 m 3.84,0 h 7.52 m -11.36,4.32 m 3.84,0 h 7.52 m -11.36,3.36 m 3.84,0 h 7.52 m -11.36,2.72 m 3.84,0 h 7.52 m -11.36,0.32 m 3.84,0 h 7.52 m -11.36,4.32 m 3.84,0 h 7.52 m -11.36,5.75999 m 3.84,0 h 7.52 m -11.36,3.04 m 3.84,0 h 7.52 m -11.36,3.84 m 3.84,0 h 7.52 m -11.36,1.6 m 3.84,0 h 7.52 m -11.36,1.92 m 3.84,0 h 7.52 m -11.36,3.36 m 3.84,0 h 7.52 m -11.36,2.4 m 3.84,0 h 7.52 m -11.36,5.28 m 3.84,0 h 7.52 m -11.36,4.63999 m 3.84,0 h 7.52 m -11.36,7.04 m 3.84,0 h 7.52 m -11.36,2.24 m 3.84,0 h 7.52 m -11.36,1.6 m 3.84,0 h 7.52 m -11.36,0.64 m 3.84,0 h 7.52 m -11.36,2.72 m 3.84,0 h 7.52 m -11.36,3.04 m 3.84,0 h 7.52 m -11.36,8.95999 m 3.84,0 h 7.52 m -11.36,1.12 m 3.84,0 h 7.52 m -11.36,3.84 m 3.84,0 h 7.52 m -11.36,7.36 m 3.84,0 h 7.52 m -11.36,8 m 3.84,0 h 7.52 m -11.36,1.92 m 3.84,0 h 7.52 m -11.36,3.84 m 3.84,0 h 7.52 m -11.36,0.48 m 3.84,0 h 7.52 m -11.36,1.91999 m 3.84,0 h 7.52 m -11.36,0.32 m 3.84,0 h 7.52 m -11.36,0.32 m 3.84,0 h 7.52 m -11.36,2.4 m 3.84,0 h 7.52 m -11.36,2.72 m 3.84,0 h 7.52 m -11.36,2.56 m 3.84,0 h 7.52 m -11.36,1.6 m 3.84,0 h 7.52 m -11.36,5.44 m 3.84,0 h 7.52 m -11.36,0.32 m 3.84,0 h 7.52 m -11.36,3.84 m 3.84,0 h 7.52 m -11.36,4.96 m 3.84,0 h 7.52 m -11.36,2.71999 m 3.84,0 h 7.52 m -11.36,3.52 m 3.84,0 h 7.52 m -11.36,1.44 m 3.84,0 h 7.52 m -11.36,1.6 m 3.84,0 h 7.52 m -11.36,1.6 m 3.84,0 h 7.52 m -11.36,1.44 m 3.84,0 h 7.52 m -11.36,3.2 m 3.84,0 h 7.52 m -11.36,1.12 m 3.84,0 h 7.52 m -11.36,4.16 m 3.84,0 h 7.52 m -11.36,0.8 m 3.84,0 h 7.52 m -11.36,1.12 m 3.84,0 h 7.52 m -11.36,1.92 m 3.84,0 h 7.52 m -11.36,1.92 m 3.84,0 h 7.52 m -11.36,2.72 m 3.84,0 h 7.52 m -11.36,3.83999 m 3.84,0 h 7.52 m -11.36,0.8 m 3.84,0 h 7.52 m -11.36,3.84 m 3.84,0 h 7.52 m -11.36,1.92 m 3.84,0 h 7.52 m -11.36,2.72 m 3.84,0 h 7.52 m -11.36,1.92 m 3.84,0 h 7.52 m -11.36,0.32 m 3.84,0 h 7.52 m -11.36,5.76 m 3.84,0 h 7.52 m -11.36,0.8 m 3.84,0 h 7.52 m -11.36,1.12 m 3.84,0 h 7.52 m -11.36,0.48 m 3.84,0 h 7.52 m -11.36,1.44 m 3.84,0 h 7.52 m -11.36,1.92 m 3.84,0 h 7.52 m -11.36,0.8 m 3.84,0 h 7.52 m -11.36,0.8 m 3.84,0 h 7.52 m -11.36,2.23999 m 3.84,0 h 7.52 m -11.36,2.4 m 3.84,0 h 7.52 m -11.36,1.12 m 3.84,0 h 7.52 m -11.36,4.16 m 3.84,0 h 7.52 m -11.36,3.84 m 3.84,0 h 7.52 m -11.36,3.2 m 3.84,0 h 7.52 m -11.36,3.04 m 3.84,0 h 7.52 m -11.36,0.8 m 3.84,0 h 7.52 m -11.36,1.12 m 3.84,0 h 7.52 m -11.36,1.44 m 3.84,0 h 7.52 m -11.36,0.8 m 3.84,0 h 7.52 m -11.36,0.8 m 3.84,0 h 7.52 m -11.36,1.12 m 3.84,0 h 7.52 m -11.36,1.6 m 3.84,0 h 7.52 m -11.36,7.67999 m 3.84,0 h 7.52 m -11.36,1.12 m 3.84,0 h 7.52 m -11.36,3.52 m 3.84,0 h 7.52 m -11.36,2.24 m 3.84,0 h 7.52 m -11.36,1.92 m 3.84,0 h 7.52 m -11.36,0.48 m 3.84,0 h 7.52 m -11.36,0.64 m 3.84,0 h 7.52 m -11.36,3.2 m 3.84,0 h 7.52 m -11.36,1.44 m 3.84,0 h 7.52 m -11.36,3.52 m 3.84,0 h 7.52 m -11.36,0.8 m 3.84,0 h 7.52 m -11.36,1.44 m 3.84,0 h 7.52 m -11.36,2.39999 m 3.84,0 h 7.52 m -11.36,8 m 3.84,0 h 7.52 m -11.36,3.52 m 3.84,0 h 7.52 m -11.36,1.44 m 3.84,0 h 7.52 m -11.36,2.72 m 3.84,0 h 7.52 m -11.36,1.28 m 3.84,0 h 7.52 m -11.36,1.12 m 3.84,0 h 7.52 m -11.36,4.96 m 3.84,0 h 7.52 m -11.36,4.63999 m 3.84,0 h 7.52 m -11.36,1.12 m 3.84,0 h 7.52 m -11.36,0.32 m 3.84,0 h 7.52 m -11.36,1.92 m 3.84,0 h 7.52 m -11.36,0.8 m 3.84,0 h 7.52 m -11.36,1.92 m 3.84,0 h 7.52 m -11.36,1.6 m 3.84,0 h 7.52 m -11.36,3.04 m 3.84,0 h 7.52 m -11.36,1.92 m 3.84,0 h 7.52 m -11.36,1.6 m 3.84,0 h 7.52 m -11.36,4.16 m 3.84,0 h 7.52 m -11.36,1.6 m 3.84,0 h 7.52 m -11.36,0.8 m 3.84,0 h 7.52 m -11.36,9.59999 m 3.84,0 h 7.52 m -11.36,1.12 m 3.84,0 h 7.52 m -11.36,4.16 m 3.84,0 h 7.52 m -11.36,1.92 m 3.84,0 h 7.52 m -11.36,1.28 m 3.84,0 h 7.52 m -11.36,4.48 m 3.84,0 h 7.52 m -11.36,4.64 m 3.84,0 h 7.52 m -11.36,5.76 m 3.84,0 h 7.52 m -11.36,2.39999 m 3.84,0 h 7.52 m -11.36,1.12 m 3.84,0 h 7.52 m -11.36,1.12 m 3.84,0 h 7.52 m -11.36,0.8 m 3.84,0 h 7.52"
       style="fill:none;stroke:#000000;stroke-width:3.83999872px;stroke-linecap:round;stroke-linejoin:round;stroke-miterlimit:10;stroke-dasharray:none;stroke-opacity:1"
       inkscape:connector-curvature="0" />
    <path
       id="path79"
       d="m 565.4398,162.55994 v 0 m -9.6,0 h 18.87999"
       style="fill:none;stroke:#000000;stroke-width:3.83999872px;stroke-linecap:round;stroke-linejoin:round;stroke-miterlimit:10;stroke-dasharray:none;stroke-opacity:1"
       inkscape:connector-curvature="0" />
    <path
       id="path81"
       d="m 555.8398,162.55994 v 0 h 9.6 9.27999 v 0 h -9.27999 z m 9.6,0 v 6.88 m -9.6,0 h 18.87999"
       style="fill:#000000;fill-opacity:1;fill-rule:evenodd;stroke:#000000;stroke-width:3.83999872px;stroke-linecap:round;stroke-linejoin:round;stroke-miterlimit:10;stroke-dasharray:none;stroke-opacity:1"
       inkscape:connector-curvature="0" />
    <text
       id="text87"
       y="21.726562"
       x="0"
       transform="rotate(90,243.91991,360.87987)"
       style="font-style:normal;font-variant:normal;font-weight:700;font-size:24px;line-height:125%;font-family:Arial;text-align:start;letter-spacing:0px;word-spacing:0px;text-anchor:start;fill:#000000;fill-opacity:1;stroke:none"
       xml:space="preserve"><tspan
         id="tspan85"
         y="21.726562"
         x="0"
         sodipodi:role="line"><tspan
           id="tspan83"
           style="font-style:normal;font-variant:normal;font-weight:700;font-size:24px;font-family:Arial;fill:#000000"
           dy="0"
           dx="0">BD_SAR</tspan></tspan></text>
    <path
       id="path89"
       d="m 626.39978,162.55994 v 0 m -9.6,0 h 18.87999"
       style="fill:none;stroke:#ff0000;stroke-width:3.83999872px;stroke-linecap:round;stroke-linejoin:round;stroke-miterlimit:10;stroke-dasharray:none;stroke-opacity:1"
       inkscape:connector-curvature="0" />
    <path
       id="path91"
       d="m 616.79978,162.55994 v 0 h 9.6 9.27999 v 0 h -9.27999 z m 9.6,0 v 21.11999 m -9.6,0 h 18.87999"
       style="fill:#ff0000;fill-opacity:1;fill-rule:evenodd;stroke:#ff0000;stroke-width:3.83999872px;stroke-linecap:round;stroke-linejoin:round;stroke-miterlimit:10;stroke-dasharray:none;stroke-opacity:1"
       inkscape:connector-curvature="0" />
    <text
       id="text97"
       y="21.726562"
       x="0"
       transform="rotate(90,268.4799,397.27986)"
       style="font-style:normal;font-variant:normal;font-weight:700;font-size:24px;line-height:125%;font-family:Arial;text-align:start;letter-spacing:0px;word-spacing:0px;text-anchor:start;fill:#000000;fill-opacity:1;stroke:none"
       xml:space="preserve"><tspan
         id="tspan95"
         y="21.726562"
         x="0"
         sodipodi:role="line"><tspan
           id="tspan93"
           style="font-style:normal;font-variant:normal;font-weight:700;font-size:24px;font-family:Arial;fill:#ff0000"
           dy="0"
           dx="0">IG_SAR</tspan></tspan></text>
    <path
       id="path99"
       d="m 687.35975,162.55994 v 0 m -9.59999,0 h 18.87999"
       style="fill:none;stroke:#008000;stroke-width:3.83999872px;stroke-linecap:round;stroke-linejoin:round;stroke-miterlimit:10;stroke-dasharray:none;stroke-opacity:1"
       inkscape:connector-curvature="0" />
    <path
       id="path101"
       d="m 677.75976,162.55994 v 0 h 9.59999 9.28 v 0 h -9.28 z m 9.59999,0 v 23.03999 m -9.59999,0 h 18.87999"
       style="fill:#008000;fill-opacity:1;fill-rule:evenodd;stroke:#008000;stroke-width:3.83999872px;stroke-linecap:round;stroke-linejoin:round;stroke-miterlimit:10;stroke-dasharray:none;stroke-opacity:1"
       inkscape:connector-curvature="0" />
    <text
       id="text107"
       y="21.726562"
       x="0"
       transform="rotate(90,298.15989,428.55985)"
       style="font-style:normal;font-variant:normal;font-weight:700;font-size:24px;line-height:125%;font-family:Arial;text-align:start;letter-spacing:0px;word-spacing:0px;text-anchor:start;fill:#000000;fill-opacity:1;stroke:none"
       xml:space="preserve"><tspan
         id="tspan105"
         y="21.726562"
         x="0"
         sodipodi:role="line"><tspan
           id="tspan103"
           style="font-style:normal;font-variant:normal;font-weight:700;font-size:24px;font-family:Arial;fill:#008000"
           dy="0"
           dx="0">IB_SAR</tspan></tspan></text>
    <text
       id="text113"
       y="16.973877"
       x="0"
       transform="translate(532.95981)"
       style="font-style:normal;font-variant:normal;font-weight:700;font-size:18.75px;line-height:125%;font-family:Arial;text-align:start;letter-spacing:0px;word-spacing:0px;text-anchor:start;fill:#000000;fill-opacity:1;stroke:none"
       xml:space="preserve"><tspan
         id="tspan111"
         y="16.973877"
         x="0"
         sodipodi:role="line"><tspan
           id="tspan109"
           style="font-style:normal;font-variant:normal;font-weight:700;font-size:18.75px;font-family:Arial;fill:#000000"
           dy="0"
           dx="0">5</tspan></tspan></text>
  </g>
</svg>
