<?xml version="1.0" encoding="UTF-8" standalone="no"?>
<svg
   xmlns:dc="http://purl.org/dc/elements/1.1/"
   xmlns:cc="http://creativecommons.org/ns#"
   xmlns:rdf="http://www.w3.org/1999/02/22-rdf-syntax-ns#"
   xmlns:svg="http://www.w3.org/2000/svg"
   xmlns="http://www.w3.org/2000/svg"
   xmlns:sodipodi="http://sodipodi.sourceforge.net/DTD/sodipodi-0.dtd"
   xmlns:inkscape="http://www.inkscape.org/namespaces/inkscape"
   version="1.0"
   width="229.00999mm"
   height="166.00999mm"
   id="svg155"
   sodipodi:docname="GridLMM_gxe_no_cov_cis001.svg"
   inkscape:export-filename="C:\Users\James\Documents\GitHub\sar_qtl\figures\qtl_ci_linkage_map\gxe_qtl_linkage_no_cov_rotated.png"
   inkscape:export-xdpi="600"
   inkscape:export-ydpi="600"
   inkscape:version="0.92.4 (5da689c313, 2019-01-14)">
  <metadata
     id="metadata159">
    <rdf:RDF>
      <cc:Work
         rdf:about="">
        <dc:format>image/svg+xml</dc:format>
        <dc:type
           rdf:resource="http://purl.org/dc/dcmitype/StillImage" />
        <dc:title></dc:title>
      </cc:Work>
    </rdf:RDF>
  </metadata>
  <sodipodi:namedview
     pagecolor="#ffffff"
     bordercolor="#666666"
     borderopacity="1"
     objecttolerance="10"
     gridtolerance="10"
     guidetolerance="10"
     inkscape:pageopacity="0"
     inkscape:pageshadow="2"
     inkscape:window-width="2560"
     inkscape:window-height="1387"
     id="namedview157"
     showgrid="false"
     inkscape:zoom="0.34660059"
     inkscape:cx="432.77479"
     inkscape:cy="313.71967"
     inkscape:window-x="-8"
     inkscape:window-y="-8"
     inkscape:window-maximized="1"
     inkscape:current-layer="svg155" />
  <defs
     id="defs3">
    <pattern
       id="EMFhbasepattern"
       patternUnits="userSpaceOnUse"
       width="6"
       height="6"
       x="0"
       y="0" />
  </defs>
  <g
     id="g236"
     transform="rotate(-90,314.31346,307.71627)">
    <path
       id="path5"
       d="m 2.2398977,0 m 0,0 m 0,0 m 0,111.03493 c 0,-3.00429 2.4354597,-5.43975 5.4397515,-5.43975 h 0.3199854 c 3.0042914,0 5.4397514,2.43546 5.4397514,5.43975 v 442.2198 c 0,3.00429 -2.43546,5.43975 -5.4397514,5.43975 H 7.6796492 c -3.0042918,0 -5.4397515,-2.43546 -5.4397515,-5.43975 z m 0,0 m 3.8398246,0 h 7.3596637 m -11.1994883,2.2399 m 3.8398246,0 h 7.3596637 m -11.1994883,2.23989 m 3.8398246,0 h 7.3596637 m -11.1994883,1.91992 m 3.8398246,0 H 13.439386 M 2.2398977,120.3145 m 3.8398246,0 h 7.3596637 m -11.1994883,0.31999 m 3.8398246,0 h 7.3596637 m -11.1994883,4.47979 m 3.8398246,0 h 7.3596637 m -11.1994883,2.55989 m 3.8398246,0 h 7.3596637 m -11.1994883,0.63997 m 3.8398246,0 h 7.3596637 m -11.1994883,2.2399 m 3.8398246,0 h 7.3596637 m -11.1994883,1.91991 m 3.8398246,0 H 13.439386 M 2.2398977,135.6738 m 3.8398246,0 h 7.3596637 m -11.1994883,2.2399 m 3.8398246,0 h 7.3596637 m -11.1994883,0.95996 m 3.8398246,0 h 7.3596637 m -11.1994883,2.23989 m 3.8398246,0 h 7.3596637 m -11.1994883,0.63997 m 3.8398246,0 h 7.3596637 m -11.1994883,0.95996 m 3.8398246,0 h 7.3596637 m -11.1994883,1.91991 m 3.8398246,0 h 7.3596637 m -11.1994883,1.91992 m 3.8398246,0 h 7.3596637 m -11.1994883,2.87986 m 3.8398246,0 h 7.3596637 m -11.1994883,0.31999 m 3.8398246,0 h 7.3596637 m -11.1994883,0.63997 m 3.8398246,0 h 7.3596637 m -11.1994883,1.91991 m 3.8398246,0 h 7.3596637 m -11.1994883,4.15981 m 3.8398246,0 h 7.3596637 m -11.1994883,0.31999 m 3.8398246,0 h 7.3596637 m -11.1994883,0.63997 m 3.8398246,0 h 7.3596637 m -11.1994883,2.87987 m 3.8398246,0 h 7.3596637 m -11.1994883,4.15981 m 3.8398246,0 H 13.439386 M 2.2398977,166.3924 m 3.8398246,0 h 7.3596637 m -11.1994883,4.47979 m 3.8398246,0 h 7.3596637 m -11.1994883,3.19986 m 3.8398246,0 h 7.3596637 m -11.1994883,2.2399 m 3.8398246,0 h 7.3596637 m -11.1994883,3.51983 m 3.8398246,0 h 7.3596637 m -11.1994883,2.87987 m 3.8398246,0 h 7.3596637 m -11.1994883,1.91992 m 3.8398246,0 h 7.3596637 m -11.1994883,1.91991 m 3.8398246,0 h 7.3596637 m -11.1994883,0.95995 m 3.8398246,0 h 7.3596637 m -11.1994883,1.91992 m 3.8398246,0 h 7.3596637 m -11.1994883,1.27994 m 3.8398246,0 h 7.3596637 m -11.1994883,2.2399 m 3.8398246,0 h 7.3596637 m -11.1994883,0.31998 m 3.8398246,0 H 13.439386 M 2.2398977,194.8711 m 3.8398246,0 h 7.3596637 m -11.1994883,3.83982 m 3.8398246,0 h 7.3596637 m -11.1994883,2.2399 m 3.8398246,0 h 7.3596637 m -11.1994883,5.11977 m 3.8398246,0 h 7.3596637 m -11.1994883,0.95995 m 3.8398246,0 h 7.3596637 m -11.1994883,1.91991 m 3.8398246,0 h 7.3596637 m -11.1994883,4.79979 m 3.8398246,0 h 7.3596637 m -11.1994883,6.3997 m 3.8398246,0 H 13.439386 M 2.2398977,223.3498 m 3.8398246,0 h 7.3596637 m -11.1994883,2.23989 m 3.8398246,0 h 7.3596637 m -11.1994883,1.91992 m 3.8398246,0 h 7.3596637 m -11.1994883,3.19985 m 3.8398246,0 h 7.3596637 m -11.1994883,0.31999 m 3.8398246,0 h 7.3596637 m -11.1994883,1.91991 m 3.8398246,0 h 7.3596637 m -11.1994883,0.31998 m 3.8398246,0 h 7.3596637 m -11.1994883,2.2399 m 3.8398246,0 h 7.3596637 m -11.1994883,2.55988 m 3.8398246,0 h 7.3596637 m -11.1994883,3.19986 m 3.8398246,0 h 7.3596637 m -11.1994883,4.47979 m 3.8398246,0 h 7.3596637 m -11.1994883,5.75974 m 3.8398246,0 h 7.3596637 m -11.1994883,2.2399 m 3.8398246,0 h 7.3596637 m -11.1994883,4.15981 m 3.8398246,0 h 7.3596637 m -11.1994883,1.27994 m 3.8398246,0 h 7.3596637 m -11.1994883,1.91991 m 3.8398246,0 h 7.3596637 m -11.1994883,7.67965 m 3.8398246,0 h 7.3596637 m -11.1994883,1.91991 m 3.8398246,0 H 13.439386 M 2.2398977,273.5875 m 3.8398246,0 h 7.3596637 m -11.1994883,0.95996 m 3.8398246,0 h 7.3596637 m -11.1994883,0.95995 m 3.8398246,0 h 7.3596637 m -11.1994883,1.91992 m 3.8398246,0 H 13.439386 M 2.2398977,280.3072 m 3.8398246,0 h 7.3596637 m -11.1994883,2.55988 m 3.8398246,0 h 7.3596637 m -11.1994883,1.27994 m 3.8398246,0 h 7.3596637 m -11.1994883,0.63997 m 3.8398246,0 h 7.3596637 m -11.1994883,0.95996 m 3.8398246,0 h 7.3596637 m -11.1994883,2.55988 m 3.8398246,0 h 7.3596637 m -11.1994883,1.59993 m 3.8398246,0 h 7.3596637 m -11.1994883,2.23989 m 3.8398246,0 h 7.3596637 m -11.1994883,4.15981 m 3.8398246,0 h 7.3596637 m -11.1994883,6.7197 m 3.8398246,0 h 7.3596637 m -11.1994883,10.8795 m 3.8398246,0 h 7.3596637 m -11.1994883,4.79978 m 3.8398246,0 H 13.439386 M 2.2398977,319.6654 m 3.8398246,0 h 7.3596637 m -11.1994883,3.19985 m 3.8398246,0 h 7.3596637 m -11.1994883,0.95996 m 3.8398246,0 h 7.3596637 m -11.1994883,0.95995 m 3.8398246,0 h 7.3596637 m -11.1994883,0.95996 m 3.8398246,0 h 7.3596637 m -11.1994883,1.27994 m 3.8398246,0 h 7.3596637 m -11.1994883,0.95996 m 3.8398246,0 H 13.439386 M 2.2398977,328.305 m 3.8398246,0 h 7.3596637 m -11.1994883,0.63997 m 3.8398246,0 h 7.3596637 m -11.1994883,3.51984 m 3.8398246,0 h 7.3596637 m -11.1994883,4.79978 m 3.8398246,0 h 7.3596637 m -11.1994883,4.79978 m 3.8398246,0 h 7.3596637 m -11.1994883,2.2399 m 3.8398246,0 h 7.3596637 m -11.1994883,3.51984 m 3.8398246,0 h 7.3596637 m -11.1994883,3.51984 m 3.8398246,0 h 7.3596637 m -11.1994883,1.91991 m 3.8398246,0 h 7.3596637 m -11.1994883,3.19986 m 3.8398246,0 h 7.3596637 m -11.1994883,5.75973 m 3.8398246,0 h 7.3596637 m -11.1994883,0.95996 m 3.8398246,0 h 7.3596637 m -11.1994883,1.27994 m 3.8398246,0 h 7.3596637 m -11.1994883,1.91991 m 3.8398246,0 h 7.3596637 m -11.1994883,3.83983 m 3.8398246,0 h 7.3596637 m -11.1994883,1.27994 m 3.8398246,0 h 7.3596637 m -11.1994883,2.2399 m 3.8398246,0 h 7.3596637 m -11.1994883,2.55988 m 3.8398246,0 h 7.3596637 m -11.1994883,4.79978 m 3.8398246,0 h 7.3596637 m -11.1994883,0.95996 m 3.8398246,0 H 13.439386 M 2.2398977,385.2624 m 3.8398246,0 h 7.3596637 m -11.1994883,0.95996 m 3.8398246,0 H 13.439386 M 2.2398977,387.5023 m 3.8398246,0 h 7.3596637 m -11.1994883,3.83982 m 3.8398246,0 h 7.3596637 m -11.1994883,0.63997 m 3.8398246,0 h 7.3596637 m -11.1994883,3.51984 m 3.8398246,0 h 7.3596637 m -11.1994883,1.59993 m 3.8398246,0 h 7.3596637 m -11.1994883,3.19985 m 3.8398246,0 h 7.3596637 m -11.1994883,1.91992 m 3.8398246,0 h 7.3596637 m -11.1994883,1.91991 m 3.8398246,0 h 7.3596637 m -11.1994883,1.27994 m 3.8398246,0 h 7.3596637 m -11.1994883,0.63997 m 3.8398246,0 h 7.3596637 m -11.1994883,1.27994 m 3.8398246,0 H 13.439386 M 2.2398977,409.2613 m 3.8398246,0 h 7.3596637 m -11.1994883,3.83983 m 3.8398246,0 h 7.3596637 m -11.1994883,1.59993 m 3.8398246,0 h 7.3596637 m -11.1994883,3.51983 m 3.8398246,0 h 7.3596637 m -11.1994883,0.95996 m 3.8398246,0 h 7.3596637 m -11.1994883,0.31999 m 3.8398246,0 h 7.3596637 m -11.1994883,0.63997 m 3.8398246,0 h 7.3596637 m -11.1994883,0.95995 m 3.8398246,0 H 13.439386 M 2.2398977,422.3807 m 3.8398246,0 h 7.3596637 m -11.1994883,1.91992 m 3.8398246,0 h 7.3596637 m -11.1994883,1.59992 m 3.8398246,0 h 7.3596637 m -11.1994883,2.87987 m 3.8398246,0 h 7.3596637 m -11.1994883,6.39971 m 3.8398246,0 h 7.3596637 m -11.1994883,2.2399 m 3.8398246,0 h 7.3596637 m -11.1994883,3.51984 m 3.8398246,0 h 7.3596637 m -11.1994883,2.23989 m 3.8398246,0 h 7.3596637 m -11.1994883,1.59993 m 3.8398246,0 h 7.3596637 m -11.1994883,1.27994 m 3.8398246,0 h 7.3596637 m -11.1994883,2.2399 m 3.8398246,0 h 7.3596637 m -11.1994883,0.31999 m 3.8398246,0 h 7.3596637 m -11.1994883,0.63997 m 3.8398246,0 h 7.3596637 m -11.1994883,0.95995 m 3.8398246,0 h 7.3596637 m -11.1994883,0.95996 m 3.8398246,0 h 7.3596637 m -11.1994883,1.59993 m 3.8398246,0 h 7.3596637 m -11.1994883,1.27994 m 3.8398246,0 h 7.3596637 m -11.1994883,4.47979 m 3.8398246,0 h 7.3596637 m -11.1994883,0.31999 m 3.8398246,0 h 7.3596637 m -11.1994883,4.15981 m 3.8398246,0 h 7.3596637 m -11.1994883,5.11976 m 3.8398246,0 h 7.3596637 m -11.1994883,5.11977 m 3.8398246,0 h 7.3596637 m -11.1994883,3.83983 m 3.8398246,0 h 7.3596637 m -11.1994883,1.27994 m 3.8398246,0 h 7.3596637 m -11.1994883,4.15981 m 3.8398246,0 h 7.3596637 m -11.1994883,0.31998 m 3.8398246,0 H 13.439386 M 2.2398977,486.0578 m 3.8398246,0 h 7.3596637 m -11.1994883,0.95995 m 3.8398246,0 h 7.3596637 m -11.1994883,0.95996 m 3.8398246,0 h 7.3596637 m -11.1994883,2.55988 m 3.8398246,0 h 7.3596637 m -11.1994883,0.63997 m 3.8398246,0 h 7.3596637 m -11.1994883,1.59993 m 3.8398246,0 h 7.3596637 m -11.1994883,2.2399 m 3.8398246,0 h 7.3596637 m -11.1994883,5.75973 m 3.8398246,0 h 7.3596637 m -11.1994883,8.63961 m 3.8398246,0 h 7.3596637 m -11.1994883,1.27994 m 3.8398246,0 h 7.3596637 m -11.1994883,0.63997 m 3.8398246,0 h 7.3596637 m -11.1994883,1.27994 m 3.8398246,0 h 7.3596637 m -11.1994883,2.87987 m 3.8398246,0 h 7.3596637 m -11.1994883,0.31999 m 3.8398246,0 h 7.3596637 m -11.1994883,1.91991 m 3.8398246,0 h 7.3596637 m -11.1994883,1.91991 m 3.8398246,0 h 7.3596637 m -11.1994883,0.95996 m 3.8398246,0 h 7.3596637 m -11.1994883,1.91991 m 3.8398246,0 h 7.3596637 m -11.1994883,3.51984 m 3.8398246,0 h 7.3596637 m -11.1994883,0.31998 m 3.8398246,0 h 7.3596637 m -11.1994883,3.83983 m 3.8398246,0 h 7.3596637 m -11.1994883,2.55988 m 3.8398246,0 h 7.3596637 m -11.1994883,2.87987 m 3.8398246,0 h 7.3596637 m -11.1994883,2.55988 m 3.8398246,0 h 7.3596637 m -11.1994883,1.91992 m 3.8398246,0 h 7.3596637 m -11.1994883,1.91991 m 3.8398246,0 h 7.3596637 m -11.1994883,7.67965 m 3.8398246,0 h 7.3596637 m -11.1994883,1.59992 m 3.8398246,0 h 7.3596637 m -11.1994883,0.95996 m 3.8398246,0 h 7.3596637 m -11.1994883,0.63997 m 3.8398246,0 h 7.3596637 m -11.1994883,0.31999 m 3.8398246,0 h 7.3596637"
       style="fill:none;stroke:#000000;stroke-width:3.83982468px;stroke-linecap:round;stroke-linejoin:round;stroke-miterlimit:10;stroke-dasharray:none;stroke-opacity:1"
       inkscape:connector-curvature="0" />
    <text
       id="text11"
       y="16.804138"
       x="0"
       transform="translate(2.559883)"
       style="font-style:normal;font-variant:normal;font-weight:700;font-size:18.5625px;line-height:125%;font-family:Arial;text-align:start;letter-spacing:0px;word-spacing:0px;text-anchor:start;fill:#000000;fill-opacity:1;stroke:none"
       xml:space="preserve"><tspan
         id="tspan9"
         y="16.804138"
         x="0"
         sodipodi:role="line"><tspan
           id="tspan7"
           style="font-style:normal;font-variant:normal;font-weight:700;font-size:18.5625px;font-family:Arial;fill:#000000"
           dy="0"
           dx="0">1</tspan></tspan></text>
    <path
       id="path13"
       d="M 12.799415,0 M 2.2398977,0 M 88.955936,0 m 0,111.03493 c 0,-3.00429 2.43546,-5.43975 5.439752,-5.43975 h 0.319985 c 3.004292,0 5.439747,2.43546 5.439747,5.43975 v 284.78699 c 0,3.00429 -2.435455,5.43975 -5.439747,5.43975 h -0.319985 c -3.004292,0 -5.439752,-2.43546 -5.439752,-5.43975 z m 0,0 m 3.839825,0 h 7.359659 m -11.199484,3.51984 m 3.839825,0 h 7.359659 m -11.199484,0.63997 m 3.839825,0 h 7.359659 m -11.199484,3.83982 m 3.839825,0 h 7.359659 m -11.199484,1.91991 m 3.839825,0 h 7.359659 m -11.199484,2.87987 m 3.839825,0 h 7.359659 m -11.199484,0.63997 m 3.839825,0 h 7.359659 m -11.199484,1.91992 m 3.839825,0 h 7.359659 m -11.199484,0.63997 m 3.839825,0 h 7.359659 m -11.199484,2.55988 m 3.839825,0 h 7.359659 m -11.199484,3.19985 m 3.839825,0 h 7.359659 m -11.199484,6.07973 m 3.839825,0 h 7.359659 m -11.199484,0.95995 m 3.839825,0 h 7.359659 m -11.199484,1.27994 m 3.839825,0 h 7.359659 m -11.199484,0.95996 m 3.839825,0 h 7.359659 m -11.199484,1.27994 m 3.839825,0 h 7.359659 m -11.199484,2.55988 m 3.839825,0 h 7.359659 m -11.199484,7.03968 m 3.839825,0 h 7.359659 m -11.199484,0.63997 m 3.839825,0 h 7.359659 m -11.199484,0.95996 m 3.839825,0 h 7.359659 m -11.199484,1.59993 m 3.839825,0 h 7.359659 m -11.199484,0.31998 m 3.839825,0 h 7.359659 m -11.199484,1.59993 m 3.839825,0 h 7.359659 m -11.199484,1.27994 m 3.839825,0 h 7.359659 m -11.199484,1.59993 m 3.839825,0 h 7.359659 m -11.199484,1.59992 m 3.839825,0 h 7.359659 m -11.199484,2.2399 m 3.839825,0 h 7.359659 m -11.199484,0.95996 m 3.839825,0 h 7.359659 m -11.199484,4.79978 m 3.839825,0 h 7.359659 m -11.199484,3.51984 m 3.839825,0 h 7.359659 m -11.199484,5.11976 m 3.839825,0 h 7.359659 m -11.199484,0.31999 m 3.839825,0 h 7.359659 m -11.199484,1.59993 m 3.839825,0 h 7.359659 m -11.199484,9.27957 m 3.839825,0 h 7.359659 m -11.199484,6.07972 m 3.839825,0 h 7.359659 m -11.199484,2.87987 m 3.839825,0 h 7.359659 m -11.199484,2.87987 m 3.839825,0 h 7.359659 m -11.199484,2.87987 m 3.839825,0 h 7.359659 m -11.199484,7.03968 m 3.839825,0 h 7.359659 m -11.199484,1.59993 m 3.839825,0 h 7.359659 m -11.199484,0.95995 m 3.839825,0 h 7.359659 m -11.199484,1.91991 m 3.839825,0 h 7.359659 m -11.199484,2.87987 m 3.839825,0 h 7.359659 m -11.199484,2.55989 m 3.839825,0 h 7.359659 m -11.199484,0.31998 m 3.839825,0 h 7.359659 m -11.199484,1.91991 m 3.839825,0 h 7.359659 m -11.199484,1.91992 m 3.839825,0 h 7.359659 m -11.199484,3.51983 m 3.839825,0 h 7.359659 m -11.199484,1.91992 m 3.839825,0 h 7.359659 m -11.199484,2.55988 m 3.839825,0 h 7.359659 m -11.199484,2.2399 m 3.839825,0 h 7.359659 m -11.199484,6.71969 m 3.839825,0 h 7.359659 m -11.199484,3.83983 m 3.839825,0 h 7.359659 m -11.199484,3.19985 m 3.839825,0 h 7.359659 m -11.199484,5.11977 m 3.839825,0 h 7.359659 m -11.199484,4.79978 m 3.839825,0 h 7.359659 m -11.199484,0.95995 m 3.839825,0 h 7.359659 m -11.199484,2.2399 m 3.839825,0 h 7.359659 m -11.199484,2.2399 m 3.839825,0 h 7.359659 m -11.199484,1.27994 m 3.839825,0 h 7.359659 m -11.199484,0.63997 m 3.839825,0 h 7.359659 m -11.199484,1.27994 m 3.839825,0 h 7.359659 m -11.199484,3.19986 m 3.839825,0 h 7.359659 m -11.199484,6.71969 m 3.839825,0 h 7.359659 m -11.199484,1.59993 m 3.839825,0 h 7.359659 m -11.199484,1.59992 m 3.839825,0 h 7.359659 m -11.199484,1.91991 m 3.839825,0 h 7.359659 m -11.199484,5.75974 m 3.839825,0 h 7.359659 m -11.199484,0.63997 m 3.839825,0 h 7.359659 m -11.199484,3.51984 m 3.839825,0 h 7.359659 m -11.199484,0.95996 m 3.839825,0 h 7.359659 m -11.199484,1.59992 m 3.839825,0 h 7.359659 m -11.199484,0.95996 m 3.839825,0 h 7.359659 m -11.199484,5.11977 m 3.839825,0 h 7.359659 m -11.199484,2.87986 m 3.839825,0 h 7.359659 m -11.199484,0.63998 m 3.839825,0 h 7.359659 m -11.199484,2.23989 m 3.839825,0 h 7.359659 m -11.199484,0.95996 m 3.839825,0 h 7.359659 m -11.199484,0.63997 m 3.839825,0 h 7.359659 m -11.199484,0.31999 m 3.839825,0 h 7.359659 m -11.199484,1.27994 m 3.839825,0 h 7.359659 m -11.199484,0.63997 m 3.839825,0 h 7.359659 m -11.199484,0.63997 m 3.839825,0 h 7.359659 m -11.199484,0.63997 m 3.839825,0 h 7.359659 m -11.199484,1.59993 m 3.839825,0 h 7.359659 m -11.199484,2.23989 m 3.839825,0 h 7.359659 m -11.199484,1.27995 m 3.839825,0 h 7.359659 m -11.199484,7.35966 m 3.839825,0 h 7.359659 m -11.199484,1.91991 m 3.839825,0 h 7.359659 m -11.199484,0.31999 m 3.839825,0 h 7.359659 m -11.199484,4.15981 m 3.839825,0 h 7.359659 m -11.199484,1.27994 m 3.839825,0 h 7.359659 m -11.199484,4.79978 m 3.839825,0 h 7.359659 m -11.199484,4.79978 m 3.839825,0 h 7.359659 m -11.199484,4.4798 m 3.839825,0 h 7.359659 m -11.199484,2.23989 m 3.839825,0 h 7.359659 m -11.199484,2.87987 m 3.839825,0 h 7.359659 m -11.199484,2.87987 m 3.839825,0 h 7.359659 m -11.199484,0.31999 m 3.839825,0 h 7.359659 m -11.199484,1.91991 m 3.839825,0 h 7.359659 m -11.199484,1.91991 m 3.839825,0 h 7.359659 m -11.199484,0.63997 m 3.839825,0 h 7.359659 m -11.199484,2.2399 m 3.839825,0 h 7.359659 m -11.199484,0.31998 m 3.839825,0 h 7.359659 m -11.199484,1.91992 m 3.839825,0 h 7.359659 m -11.199484,2.55988 m 3.839825,0 h 7.359659 m -11.199484,2.87987 m 3.839825,0 h 7.359659 m -11.199484,0.63997 m 3.839825,0 h 7.359659 m -11.199484,2.55988 m 3.839825,0 h 7.359659 m -11.199484,2.87987 m 3.839825,0 h 7.359659 m -11.199484,1.59993 m 3.839825,0 h 7.359659 m -11.199484,1.91991 m 3.839825,0 h 7.359659 m -11.199484,2.2399 m 3.839825,0 h 7.359659 m -11.199484,5.75973 m 3.839825,0 h 7.359659 m -11.199484,3.19986 m 3.839825,0 h 7.359659 m -11.199484,0.31998 m 3.839825,0 h 7.359659 m -11.199484,3.19986 m 3.839825,0 h 7.359659 m -11.199484,1.27994 m 3.839825,0 h 7.359659"
       style="fill:none;stroke:#000000;stroke-width:3.83982468px;stroke-linecap:round;stroke-linejoin:round;stroke-miterlimit:10;stroke-dasharray:none;stroke-opacity:1"
       inkscape:connector-curvature="0" />
    <path
       id="path15"
       d="m 121.91443,268.78772 v 0 m -9.59956,0 h 18.87914"
       style="fill:none;stroke:#ff0000;stroke-width:3.83982468px;stroke-linecap:round;stroke-linejoin:round;stroke-miterlimit:10;stroke-dasharray:none;stroke-opacity:1"
       inkscape:connector-curvature="0" />
    <path
       id="path17"
       d="m 112.31487,268.78772 v 0 h 9.59956 9.27958 v 0 h -9.27958 z m 9.59956,0 v 15.03931 m -9.59956,0 h 18.87914"
       style="fill:#ff0000;fill-opacity:1;fill-rule:evenodd;stroke:#ff0000;stroke-width:3.83982468px;stroke-linecap:round;stroke-linejoin:round;stroke-miterlimit:10;stroke-dasharray:none;stroke-opacity:1"
       inkscape:connector-curvature="0" />
    <text
       id="text23"
       y="21.726562"
       x="0"
       transform="rotate(90,-43.358019,204.63065)"
       style="font-style:normal;font-variant:normal;font-weight:700;font-size:24px;line-height:125%;font-family:Arial;text-align:start;letter-spacing:0px;word-spacing:0px;text-anchor:start;fill:#000000;fill-opacity:1;stroke:none"
       xml:space="preserve"><tspan
         id="tspan21"
         y="21.726562"
         x="0"
         sodipodi:role="line"><tspan
           id="tspan19"
           style="font-style:normal;font-variant:normal;font-weight:700;font-size:24px;font-family:Arial;fill:#ff0000"
           dy="0"
           dx="0">h3h1</tspan></tspan></text>
    <text
       id="text29"
       y="16.804138"
       x="0"
       transform="translate(89.275922)"
       style="font-style:normal;font-variant:normal;font-weight:700;font-size:18.5625px;line-height:125%;font-family:Arial;text-align:start;letter-spacing:0px;word-spacing:0px;text-anchor:start;fill:#000000;fill-opacity:1;stroke:none"
       xml:space="preserve"><tspan
         id="tspan27"
         y="16.804138"
         x="0"
         sodipodi:role="line"><tspan
           id="tspan25"
           style="font-style:normal;font-variant:normal;font-weight:700;font-size:18.5625px;font-family:Arial;fill:#000000"
           dy="0"
           dx="0">2</tspan></tspan></text>
    <path
       id="path31"
       d="M 99.515454,0 M 2.2398977,0 M 236.78918,0 m 0,111.03493 c 0,-3.00429 2.43546,-5.43975 5.43975,-5.43975 h 0.31999 c 3.00429,0 5.43975,2.43546 5.43975,5.43975 v 313.26569 c 0,3.00429 -2.43546,5.43975 -5.43975,5.43975 h -0.31999 c -3.00429,0 -5.43975,-2.43546 -5.43975,-5.43975 z m 0,0 m 3.83983,0 h 7.35966 m -11.19949,0.63997 m 3.83983,0 h 7.35966 m -11.19949,2.87987 m 3.83983,0 h 7.35966 m -11.19949,0.95995 m 3.83983,0 h 7.35966 m -11.19949,1.91992 m 3.83983,0 h 7.35966 m -11.19949,1.27994 m 3.83983,0 h 7.35966 m -11.19949,0.31998 m 3.83983,0 h 7.35966 m -11.19949,0.95996 m 3.83983,0 h 7.35966 m -11.19949,0.95995 m 3.83983,0 h 7.35966 m -11.19949,2.87987 m 3.83983,0 h 7.35966 m -11.19949,0.63997 m 3.83983,0 h 7.35966 m -11.19949,3.51984 m 3.83983,0 h 7.35966 m -11.19949,1.59993 m 3.83983,0 h 7.35966 m -11.19949,2.55988 m 3.83983,0 h 7.35966 m -11.19949,2.2399 m 3.83983,0 h 7.35966 m -11.19949,1.59993 m 3.83983,0 h 7.35966 m -11.19949,4.15981 m 3.83983,0 h 7.35966 m -11.19949,1.27994 m 3.83983,0 h 7.35966 m -11.19949,0.63997 m 3.83983,0 h 7.35966 m -11.19949,1.27994 m 3.83983,0 h 7.35966 m -11.19949,2.2399 m 3.83983,0 h 7.35966 m -11.19949,1.59993 m 3.83983,0 h 7.35966 m -11.19949,2.55988 m 3.83983,0 h 7.35966 m -11.19949,0.63997 m 3.83983,0 h 7.35966 m -11.19949,2.87987 m 3.83983,0 h 7.35966 m -11.19949,1.91991 m 3.83983,0 h 7.35966 m -11.19949,0.95996 m 3.83983,0 h 7.35966 m -11.19949,0.31998 m 3.83983,0 h 7.35966 m -11.19949,2.55989 m 3.83983,0 h 7.35966 m -11.19949,0.95995 m 3.83983,0 h 7.35966 m -11.19949,1.91991 m 3.83983,0 h 7.35966 m -11.19949,1.27995 m 3.83983,0 h 7.35966 m -11.19949,1.91991 m 3.83983,0 h 7.35966 m -11.19949,1.27994 m 3.83983,0 h 7.35966 m -11.19949,1.59993 m 3.83983,0 h 7.35966 m -11.19949,3.51984 m 3.83983,0 h 7.35966 m -11.19949,0.63997 m 3.83983,0 h 7.35966 m -11.19949,1.59992 m 3.83983,0 h 7.35966 m -11.19949,2.2399 m 3.83983,0 h 7.35966 m -11.19949,1.27994 m 3.83983,0 h 7.35966 m -11.19949,1.91991 m 3.83983,0 h 7.35966 m -11.19949,0.95996 m 3.83983,0 h 7.35966 m -11.19949,0.95996 m 3.83983,0 h 7.35966 m -11.19949,1.91991 m 3.83983,0 h 7.35966 m -11.19949,0.63997 m 3.83983,0 h 7.35966 m -11.19949,0.95996 m 3.83983,0 h 7.35966 m -11.19949,1.91991 m 3.83983,0 h 7.35966 m -11.19949,0.95995 m 3.83983,0 h 7.35966 m -11.19949,1.59993 m 3.83983,0 h 7.35966 m -11.19949,1.27994 m 3.83983,0 h 7.35966 m -11.19949,0.95996 m 3.83983,0 h 7.35966 m -11.19949,1.27994 m 3.83983,0 h 7.35966 m -11.19949,0.31999 m 3.83983,0 h 7.35966 m -11.19949,3.19985 m 3.83983,0 h 7.35966 m -11.19949,2.87987 m 3.83983,0 h 7.35966 m -11.19949,1.27994 m 3.83983,0 h 7.35966 m -11.19949,0.95996 m 3.83983,0 h 7.35966 m -11.19949,0.63997 m 3.83983,0 h 7.35966 m -11.19949,9.91954 m 3.83983,0 h 7.35966 m -11.19949,0.63997 m 3.83983,0 h 7.35966 m -11.19949,3.51984 m 3.83983,0 h 7.35966 m -11.19949,4.15981 m 3.83983,0 h 7.35966 m -11.19949,1.27994 m 3.83983,0 h 7.35966 m -11.19949,4.4798 m 3.83983,0 h 7.35966 m -11.19949,0.95996 m 3.83983,0 h 7.35966 m -11.19949,9.59956 m 3.83983,0 h 7.35966 m -11.19949,4.15981 m 3.83983,0 h 7.35966 m -11.19949,1.27994 m 3.83983,0 h 7.35966 m -11.19949,1.27994 m 3.83983,0 h 7.35966 m -11.19949,3.19985 m 3.83983,0 h 7.35966 m -11.19949,2.2399 m 3.83983,0 h 7.35966 m -11.19949,1.91991 m 3.83983,0 h 7.35966 m -11.19949,3.51984 m 3.83983,0 h 7.35966 m -11.19949,2.2399 m 3.83983,0 h 7.35966 m -11.19949,0.95996 m 3.83983,0 h 7.35966 m -11.19949,4.79978 m 3.83983,0 h 7.35966 m -11.19949,1.27994 m 3.83983,0 h 7.35966 m -11.19949,13.75937 m 3.83983,0 h 7.35966 m -11.19949,7.03968 m 3.83983,0 h 7.35966 m -11.19949,2.55988 m 3.83983,0 h 7.35966 m -11.19949,1.91992 m 3.83983,0 h 7.35966 m -11.19949,1.91991 m 3.83983,0 h 7.35966 m -11.19949,7.99963 m 3.83983,0 h 7.35966 m -11.19949,1.91991 m 3.83983,0 h 7.35966 m -11.19949,0.63997 m 3.83983,0 h 7.35966 m -11.19949,0.31999 m 3.83983,0 h 7.35966 m -11.19949,0.31999 m 3.83983,0 h 7.35966 m -11.19949,1.91991 m 3.83983,0 h 7.35966 m -11.19949,1.27994 m 3.83983,0 h 7.35966 m -11.19949,0.63997 m 3.83983,0 h 7.35966 m -11.19949,0.31999 m 3.83983,0 h 7.35966 m -11.19949,1.59992 m 3.83983,0 h 7.35966 m -11.19949,2.55989 m 3.83983,0 h 7.35966 m -11.19949,0.63997 m 3.83983,0 h 7.35966 m -11.19949,3.19985 m 3.83983,0 h 7.35966 m -11.19949,3.19985 m 3.83983,0 h 7.35966 m -11.19949,1.59993 m 3.83983,0 h 7.35966 m -11.19949,4.4798 m 3.83983,0 h 7.35966 m -11.19949,9.59956 m 3.83983,0 h 7.35966 m -11.19949,2.87987 m 3.83983,0 h 7.35966 m -11.19949,2.55988 m 3.83983,0 h 7.35966 m -11.19949,0.95996 m 3.83983,0 h 7.35966 m -11.19949,1.27994 m 3.83983,0 h 7.35966 m -11.19949,0.95995 m 3.83983,0 h 7.35966 m -11.19949,0.63997 m 3.83983,0 h 7.35966 m -11.19949,1.27995 m 3.83983,0 h 7.35966 m -11.19949,4.47979 m 3.83983,0 h 7.35966 m -11.19949,0.31999 m 3.83983,0 h 7.35966 m -11.19949,0.63997 m 3.83983,0 h 7.35966 m -11.19949,0.63997 m 3.83983,0 h 7.35966 m -11.19949,5.11976 m 3.83983,0 h 7.35966 m -11.19949,0.63997 m 3.83983,0 h 7.35966 m -11.19949,8.31962 m 3.83983,0 h 7.35966 m -11.19949,2.87987 m 3.83983,0 h 7.35966 m -11.19949,0.31999 m 3.83983,0 h 7.35966 m -11.19949,3.19985 m 3.83983,0 h 7.35966 m -11.19949,1.91991 m 3.83983,0 h 7.35966 m -11.19949,2.55989 m 3.83983,0 h 7.35966 m -11.19949,0.31998 m 3.83983,0 h 7.35966 m -11.19949,3.51984 m 3.83983,0 h 7.35966 m -11.19949,1.27994 m 3.83983,0 h 7.35966 m -11.19949,2.55989 m 3.83983,0 h 7.35966 m -11.19949,1.27994 m 3.83983,0 h 7.35966 m -11.19949,2.55988 m 3.83983,0 h 7.35966 m -11.19949,1.27994 m 3.83983,0 h 7.35966 m -11.19949,0.95996 m 3.83983,0 h 7.35966 m -11.19949,5.75974 m 3.83983,0 h 7.35966 m -11.19949,2.55988 m 3.83983,0 h 7.35966 m -11.19949,4.15981 m 3.83983,0 h 7.35966 m -11.19949,0.31998 m 3.83983,0 h 7.35966 m -11.19949,1.91992 m 3.83983,0 h 7.35966 m -11.19949,3.83982 m 3.83983,0 h 7.35966 m -11.19949,0.63997 m 3.83983,0 h 7.35966 m -11.19949,1.91991 m 3.83983,0 h 7.35966 m -11.19949,0.63998 m 3.83983,0 h 7.35966 m -11.19949,7.35966 m 3.83983,0 h 7.35966 m -11.19949,1.27994 m 3.83983,0 h 7.35966 m -11.19949,0.63997 m 3.83983,0 h 7.35966 m -11.19949,0.63997 m 3.83983,0 h 7.35966 m -11.19949,3.19986 m 3.83983,0 h 7.35966 m -11.19949,0.31998 m 3.83983,0 h 7.35966 m -11.19949,0.95996 m 3.83983,0 h 7.35966"
       style="fill:none;stroke:#000000;stroke-width:3.83982468px;stroke-linecap:round;stroke-linejoin:round;stroke-miterlimit:10;stroke-dasharray:none;stroke-opacity:1"
       inkscape:connector-curvature="0" />
    <text
       id="text37"
       y="16.804138"
       x="0"
       transform="translate(237.10917)"
       style="font-style:normal;font-variant:normal;font-weight:700;font-size:18.5625px;line-height:125%;font-family:Arial;text-align:start;letter-spacing:0px;word-spacing:0px;text-anchor:start;fill:#000000;fill-opacity:1;stroke:none"
       xml:space="preserve"><tspan
         id="tspan35"
         y="16.804138"
         x="0"
         sodipodi:role="line"><tspan
           id="tspan33"
           style="font-style:normal;font-variant:normal;font-weight:700;font-size:18.5625px;font-family:Arial;fill:#000000"
           dy="0"
           dx="0">3</tspan></tspan></text>
    <path
       id="path39"
       d="M 247.3487,0 M 2.2398977,0 M 323.50522,0 m 0,111.03493 c 0,-3.00429 2.43546,-5.43975 5.43975,-5.43975 h 0.31999 c 3.00429,0 5.43975,2.43546 5.43975,5.43975 v 279.66722 c 0,3.00429 -2.43546,5.43975 -5.43975,5.43975 h -0.31999 c -3.00429,0 -5.43975,-2.43546 -5.43975,-5.43975 z m 0,0 m 3.83983,0 h 7.35966 m -11.19949,1.27994 m 3.83983,0 h 7.35966 m -11.19949,8.31962 m 3.83983,0 h 7.35966 m -11.19949,1.59993 m 3.83983,0 h 7.35966 m -11.19949,6.3997 m 3.83983,0 h 7.35966 m -11.19949,2.2399 m 3.83983,0 h 7.35966 m -11.19949,2.87987 m 3.83983,0 h 7.35966 m -11.19949,2.55988 m 3.83983,0 h 7.35966 m -11.19949,0.63997 m 3.83983,0 h 7.35966 m -11.19949,1.27995 m 3.83983,0 h 7.35966 m -11.19949,1.91991 m 3.83983,0 h 7.35966 m -11.19949,0.63997 m 3.83983,0 h 7.35966 m -11.19949,5.11976 m 3.83983,0 h 7.35966 m -11.19949,2.55989 m 3.83983,0 h 7.35966 m -11.19949,5.11976 m 3.83983,0 h 7.35966 m -11.19949,0.63997 m 3.83983,0 h 7.35966 m -11.19949,0.63998 m 3.83983,0 h 7.35966 m -11.19949,0.31998 m 3.83983,0 h 7.35966 m -11.19949,0.95996 m 3.83983,0 h 7.35966 m -11.19949,1.91991 m 3.83983,0 h 7.35966 m -11.19949,0.95996 m 3.83983,0 h 7.35966 m -11.19949,1.27994 m 3.83983,0 h 7.35966 m -11.19949,1.91991 m 3.83983,0 h 7.35966 m -11.19949,7.35966 m 3.83983,0 h 7.35966 m -11.19949,4.79978 m 3.83983,0 h 7.35966 m -11.19949,3.51984 m 3.83983,0 h 7.35966 m -11.19949,7.03968 m 3.83983,0 h 7.35966 m -11.19949,2.87987 m 3.83983,0 h 7.35966 m -11.19949,2.87987 m 3.83983,0 h 7.35966 m -11.19949,0.95995 m 3.83983,0 h 7.35966 m -11.19949,10.23954 m 3.83983,0 h 7.35966 m -11.19949,8.6396 m 3.83983,0 h 7.35966 m -11.19949,3.51984 m 3.83983,0 h 7.35966 m -11.19949,4.15981 m 3.83983,0 h 7.35966 m -11.19949,1.59993 m 3.83983,0 h 7.35966 m -11.19949,9.27957 m 3.83983,0 h 7.35966 m -11.19949,5.75974 m 3.83983,0 h 7.35966 m -11.19949,3.83983 m 3.83983,0 h 7.35966 m -11.19949,1.27994 m 3.83983,0 h 7.35966 m -11.19949,2.55988 m 3.83983,0 h 7.35966 m -11.19949,3.19985 m 3.83983,0 h 7.35966 m -11.19949,0.31999 m 3.83983,0 h 7.35966 m -11.19949,2.2399 m 3.83983,0 h 7.35966 m -11.19949,2.23989 m 3.83983,0 h 7.35966 m -11.19949,1.27995 m 3.83983,0 h 7.35966 m -11.19949,1.59992 m 3.83983,0 h 7.35966 m -11.19949,2.2399 m 3.83983,0 h 7.35966 m -11.19949,0.95996 m 3.83983,0 h 7.35966 m -11.19949,3.51984 m 3.83983,0 h 7.35966 m -11.19949,1.27994 m 3.83983,0 h 7.35966 m -11.19949,1.59992 m 3.83983,0 h 7.35966 m -11.19949,0.63998 m 3.83983,0 h 7.35966 m -11.19949,3.51983 m 3.83983,0 h 7.35966 m -11.19949,0.31999 m 3.83983,0 h 7.35966 m -11.19949,2.2399 m 3.83983,0 h 7.35966 m -11.19949,5.75973 m 3.83983,0 h 7.35966 m -11.19949,1.91992 m 3.83983,0 h 7.35966 m -11.19949,1.59992 m 3.83983,0 h 7.35966 m -11.19949,1.91992 m 3.83983,0 h 7.35966 m -11.19949,0.31998 m 3.83983,0 h 7.35966 m -11.19949,2.55988 m 3.83983,0 h 7.35966 m -11.19949,0.31999 m 3.83983,0 h 7.35966 m -11.19949,2.2399 m 3.83983,0 h 7.35966 m -11.19949,9.27957 m 3.83983,0 h 7.35966 m -11.19949,0.95996 m 3.83983,0 h 7.35966 m -11.19949,6.39971 m 3.83983,0 h 7.35966 m -11.19949,0.63997 m 3.83983,0 h 7.35966 m -11.19949,4.15981 m 3.83983,0 h 7.35966 m -11.19949,2.87987 m 3.83983,0 h 7.35966 m -11.19949,1.27994 m 3.83983,0 h 7.35966 m -11.19949,2.87987 m 3.83983,0 h 7.35966 m -11.19949,4.47979 m 3.83983,0 h 7.35966 m -11.19949,2.55988 m 3.83983,0 h 7.35966 m -11.19949,0.31999 m 3.83983,0 h 7.35966 m -11.19949,2.55988 m 3.83983,0 h 7.35966 m -11.19949,2.2399 m 3.83983,0 h 7.35966 m -11.19949,2.55988 m 3.83983,0 h 7.35966 m -11.19949,0.63997 m 3.83983,0 h 7.35966 m -11.19949,0.31999 m 3.83983,0 h 7.35966 m -11.19949,1.59993 m 3.83983,0 h 7.35966 m -11.19949,4.15981 m 3.83983,0 h 7.35966 m -11.19949,4.15981 m 3.83983,0 h 7.35966 m -11.19949,0.95995 m 3.83983,0 h 7.35966 m -11.19949,0.31999 m 3.83983,0 h 7.35966 m -11.19949,1.27994 m 3.83983,0 h 7.35966 m -11.19949,2.55988 m 3.83983,0 h 7.35966 m -11.19949,1.27994 m 3.83983,0 h 7.35966 m -11.19949,1.27995 m 3.83983,0 h 7.35966 m -11.19949,1.91991 m 3.83983,0 h 7.35966 m -11.19949,1.27994 m 3.83983,0 h 7.35966 m -11.19949,1.27994 m 3.83983,0 h 7.35966 m -11.19949,2.87987 m 3.83983,0 h 7.35966 m -11.19949,1.59993 m 3.83983,0 h 7.35966 m -11.19949,3.19985 m 3.83983,0 h 7.35966 m -11.19949,3.83983 m 3.83983,0 h 7.35966 m -11.19949,2.23989 m 3.83983,0 h 7.35966 m -11.19949,1.59993 m 3.83983,0 h 7.35966 m -11.19949,1.91991 m 3.83983,0 h 7.35966 m -11.19949,1.91991 m 3.83983,0 h 7.35966 m -11.19949,0.63998 m 3.83983,0 h 7.35966 m -11.19949,3.51983 m 3.83983,0 h 7.35966 m -11.19949,0.63998 m 3.83983,0 h 7.35966 m -11.19949,10.55951 m 3.83983,0 h 7.35966 m -11.19949,0.31999 m 3.83983,0 h 7.35966 m -11.19949,0.63997 m 3.83983,0 h 7.35966 m -11.19949,1.59993 m 3.83983,0 h 7.35966 m -11.19949,0.95995 m 3.83983,0 h 7.35966"
       style="fill:none;stroke:#000000;stroke-width:3.83982468px;stroke-linecap:round;stroke-linejoin:round;stroke-miterlimit:10;stroke-dasharray:none;stroke-opacity:1"
       inkscape:connector-curvature="0" />
    <path
       id="path41"
       d="m 356.46372,111.03493 v 0 m -9.59957,0 h 18.87914"
       style="fill:none;stroke:#000000;stroke-width:3.83982468px;stroke-linecap:round;stroke-linejoin:round;stroke-miterlimit:10;stroke-dasharray:none;stroke-opacity:1"
       inkscape:connector-curvature="0" />
    <path
       id="path43"
       d="m 346.86415,111.03493 v 0 h 9.59957 9.27957 v 0 h -9.27957 z m 9.59957,0 v 9.59956 m -9.59957,0 h 18.87914"
       style="fill:#000000;fill-opacity:1;fill-rule:evenodd;stroke:#000000;stroke-width:3.83982468px;stroke-linecap:round;stroke-linejoin:round;stroke-miterlimit:10;stroke-dasharray:none;stroke-opacity:1"
       inkscape:connector-curvature="0" />
    <text
       id="text49"
       y="21.726562"
       x="0"
       transform="rotate(90,147.35327,248.46865)"
       style="font-style:normal;font-variant:normal;font-weight:700;font-size:24px;line-height:125%;font-family:Arial;text-align:start;letter-spacing:0px;word-spacing:0px;text-anchor:start;fill:#000000;fill-opacity:1;stroke:none"
       xml:space="preserve"><tspan
         id="tspan47"
         y="21.726562"
         x="0"
         sodipodi:role="line"><tspan
           id="tspan45"
           style="font-style:normal;font-variant:normal;font-weight:700;font-size:24px;font-family:Arial;fill:#000000"
           dy="0"
           dx="0">bd</tspan></tspan></text>
    <path
       id="path51"
       d="m 356.46372,239.98904 v 0 m -9.59957,0 h 18.87914"
       style="fill:none;stroke:#000000;stroke-width:3.83982468px;stroke-linecap:round;stroke-linejoin:round;stroke-miterlimit:10;stroke-dasharray:none;stroke-opacity:1"
       inkscape:connector-curvature="0" />
    <path
       id="path53"
       d="m 346.86415,239.98904 v 0 h 9.59957 9.27957 v 0 h -9.27957 z m 9.59957,0 v 35.51837 m -9.59957,0 h 18.87914"
       style="fill:#000000;fill-opacity:1;fill-rule:evenodd;stroke:#000000;stroke-width:3.83982468px;stroke-linecap:round;stroke-linejoin:round;stroke-miterlimit:10;stroke-dasharray:none;stroke-opacity:1"
       inkscape:connector-curvature="0" />
    <text
       id="text59"
       y="21.726562"
       x="0"
       transform="rotate(90,76.636499,319.18542)"
       style="font-style:normal;font-variant:normal;font-weight:700;font-size:24px;line-height:125%;font-family:Arial;text-align:start;letter-spacing:0px;word-spacing:0px;text-anchor:start;fill:#000000;fill-opacity:1;stroke:none"
       xml:space="preserve"><tspan
         id="tspan57"
         y="21.726562"
         x="0"
         sodipodi:role="line"><tspan
           id="tspan55"
           style="font-style:normal;font-variant:normal;font-weight:700;font-size:24px;font-family:Arial;fill:#000000"
           dy="0"
           dx="0">bd</tspan></tspan></text>
    <path
       id="path61"
       d="m 417.58092,111.03493 v 0 m -9.59956,0 h 18.87914"
       style="fill:none;stroke:#008000;stroke-width:3.83982468px;stroke-linecap:round;stroke-linejoin:round;stroke-miterlimit:10;stroke-dasharray:none;stroke-opacity:1"
       inkscape:connector-curvature="0" />
    <path
       id="path63"
       d="m 407.98136,111.03493 v 0 h 9.59956 9.27958 v 0 h -9.27958 z m 9.59956,0 v 9.59956 m -9.59956,0 h 18.87914"
       style="fill:#008000;fill-opacity:1;fill-rule:evenodd;stroke:#008000;stroke-width:3.83982468px;stroke-linecap:round;stroke-linejoin:round;stroke-miterlimit:10;stroke-dasharray:none;stroke-opacity:1"
       inkscape:connector-curvature="0" />
    <text
       id="text69"
       y="21.726562"
       x="0"
       transform="rotate(90,181.27172,275.66741)"
       style="font-style:normal;font-variant:normal;font-weight:700;font-size:24px;line-height:125%;font-family:Arial;text-align:start;letter-spacing:0px;word-spacing:0px;text-anchor:start;fill:#000000;fill-opacity:1;stroke:none"
       xml:space="preserve"><tspan
         id="tspan67"
         y="21.726562"
         x="0"
         sodipodi:role="line"><tspan
           id="tspan65"
           style="font-style:normal;font-variant:normal;font-weight:700;font-size:24px;font-family:Arial;fill:#008000"
           dy="0"
           dx="0">idry</tspan></tspan></text>
    <path
       id="path71"
       d="m 478.69813,111.03493 v 0 m -9.59956,0 h 18.87914"
       style="fill:none;stroke:#000080;stroke-width:3.83982468px;stroke-linecap:round;stroke-linejoin:round;stroke-miterlimit:10;stroke-dasharray:none;stroke-opacity:1"
       inkscape:connector-curvature="0" />
    <path
       id="path73"
       d="m 469.09857,111.03493 v 0 h 9.59956 9.27958 v 0 h -9.27958 z m 9.59956,0 v 9.59956 m -9.59956,0 h 18.87914"
       style="fill:#000080;fill-opacity:1;fill-rule:evenodd;stroke:#000080;stroke-width:3.83982468px;stroke-linecap:round;stroke-linejoin:round;stroke-miterlimit:10;stroke-dasharray:none;stroke-opacity:1"
       inkscape:connector-curvature="0" />
    <text
       id="text79"
       y="21.726562"
       x="0"
       transform="rotate(90,212.47029,305.58604)"
       style="font-style:normal;font-variant:normal;font-weight:700;font-size:24px;line-height:125%;font-family:Arial;text-align:start;letter-spacing:0px;word-spacing:0px;text-anchor:start;fill:#000000;fill-opacity:1;stroke:none"
       xml:space="preserve"><tspan
         id="tspan77"
         y="21.726562"
         x="0"
         sodipodi:role="line"><tspan
           id="tspan75"
           style="font-style:normal;font-variant:normal;font-weight:700;font-size:24px;font-family:Arial;fill:#000080"
           dy="0"
           dx="0">rdry</tspan></tspan></text>
    <path
       id="path81"
       d="m 478.69813,248.30866 v 0 m -9.59956,0 h 18.87914"
       style="fill:none;stroke:#000080;stroke-width:3.83982468px;stroke-linecap:round;stroke-linejoin:round;stroke-miterlimit:10;stroke-dasharray:none;stroke-opacity:1"
       inkscape:connector-curvature="0" />
    <path
       id="path83"
       d="m 469.09857,248.30866 v 0 h 9.59956 9.27958 v 0 h -9.27958 z m 9.59956,0 v 14.71932 m -9.59956,0 h 18.87914"
       style="fill:#000080;fill-opacity:1;fill-rule:evenodd;stroke:#000080;stroke-width:3.83982468px;stroke-linecap:round;stroke-linejoin:round;stroke-miterlimit:10;stroke-dasharray:none;stroke-opacity:1"
       inkscape:connector-curvature="0" />
    <text
       id="text89"
       y="21.726562"
       x="0"
       transform="rotate(90,142.71348,375.34285)"
       style="font-style:normal;font-variant:normal;font-weight:700;font-size:24px;line-height:125%;font-family:Arial;text-align:start;letter-spacing:0px;word-spacing:0px;text-anchor:start;fill:#000000;fill-opacity:1;stroke:none"
       xml:space="preserve"><tspan
         id="tspan87"
         y="21.726562"
         x="0"
         sodipodi:role="line"><tspan
           id="tspan85"
           style="font-style:normal;font-variant:normal;font-weight:700;font-size:24px;font-family:Arial;fill:#000080"
           dy="0"
           dx="0">rdry</tspan></tspan></text>
    <text
       id="text95"
       y="16.804138"
       x="0"
       transform="translate(323.82521)"
       style="font-style:normal;font-variant:normal;font-weight:700;font-size:18.5625px;line-height:125%;font-family:Arial;text-align:start;letter-spacing:0px;word-spacing:0px;text-anchor:start;fill:#000000;fill-opacity:1;stroke:none"
       xml:space="preserve"><tspan
         id="tspan93"
         y="16.804138"
         x="0"
         sodipodi:role="line"><tspan
           id="tspan91"
           style="font-style:normal;font-variant:normal;font-weight:700;font-size:18.5625px;font-family:Arial;fill:#000000"
           dy="0"
           dx="0">4</tspan></tspan></text>
    <path
       id="path97"
       d="M 334.06474,0 M 2.2398977,0 M 593.57288,0 m 0,111.03493 c 0,-3.00429 2.43546,-5.43975 5.43976,-5.43975 h 0.31998 c 3.00429,0 5.43975,2.43546 5.43975,5.43975 v 411.82119 c 0,3.00429 -2.43546,5.43975 -5.43975,5.43975 h -0.31998 c -3.0043,0 -5.43976,-2.43546 -5.43976,-5.43975 z m 0,0 m 3.83983,0 h 7.35966 m -11.19949,0.63997 m 3.83983,0 h 7.35966 m -11.19949,3.51984 m 3.83983,0 h 7.35966 m -11.19949,7.03968 m 3.83983,0 h 7.35966 m -11.19949,0.31998 m 3.83983,0 h 7.35966 m -11.19949,3.51984 m 3.83983,0 h 7.35966 m -11.19949,1.91991 m 3.83983,0 h 7.35966 m -11.19949,3.83983 m 3.83983,0 h 7.35966 m -11.19949,2.55988 m 3.83983,0 h 7.35966 m -11.19949,2.55988 m 3.83983,0 h 7.35966 m -11.19949,0.63997 m 3.83983,0 h 7.35966 m -11.19949,5.75974 m 3.83983,0 h 7.35966 m -11.19949,0.63997 m 3.83983,0 h 7.35966 m -11.19949,2.55989 m 3.83983,0 h 7.35966 m -11.19949,2.23989 m 3.83983,0 h 7.35966 m -11.19949,1.59993 m 3.83983,0 h 7.35966 m -11.19949,0.63997 m 3.83983,0 h 7.35966 m -11.19949,1.27994 m 3.83983,0 h 7.35966 m -11.19949,0.95996 m 3.83983,0 h 7.35966 m -11.19949,0.95995 m 3.83983,0 h 7.35966 m -11.19949,0.95996 m 3.83983,0 h 7.35966 m -11.19949,1.59993 m 3.83983,0 h 7.35966 m -11.19949,1.91991 m 3.83983,0 h 7.35966 m -11.19949,1.91991 m 3.83983,0 h 7.35966 m -11.19949,1.59993 m 3.83983,0 h 7.35966 m -11.19949,6.71969 m 3.83983,0 h 7.35966 m -11.19949,0.95996 m 3.83983,0 h 7.35966 m -11.19949,0.63997 m 3.83983,0 h 7.35966 m -11.19949,0.31998 m 3.83983,0 h 7.35966 m -11.19949,4.4798 m 3.83983,0 h 7.35966 m -11.19949,1.91991 m 3.83983,0 h 7.35966 m -11.19949,4.4798 m 3.83983,0 h 7.35966 m -11.19949,1.59992 m 3.83983,0 h 7.35966 m -11.19949,1.91992 m 3.83983,0 h 7.35966 m -11.19949,1.91991 m 3.83983,0 h 7.35966 m -11.19949,1.91991 m 3.83983,0 h 7.35966 m -11.19949,3.19985 m 3.83983,0 h 7.35966 m -11.19949,1.91992 m 3.83983,0 h 7.35966 m -11.19949,4.15981 m 3.83983,0 h 7.35966 m -11.19949,3.51984 m 3.83983,0 h 7.35966 m -11.19949,2.55988 m 3.83983,0 h 7.35966 m -11.19949,0.31998 m 3.83983,0 h 7.35966 m -11.19949,4.15981 m 3.83983,0 h 7.35966 m -11.19949,5.75974 m 3.83983,0 h 7.35966 m -11.19949,3.19986 m 3.83983,0 h 7.35966 m -11.19949,3.83982 m 3.83983,0 h 7.35966 m -11.19949,1.59993 m 3.83983,0 h 7.35966 m -11.19949,1.91991 m 3.83983,0 h 7.35966 m -11.19949,3.51984 m 3.83983,0 h 7.35966 m -11.19949,2.2399 m 3.83983,0 h 7.35966 m -11.19949,5.43975 m 3.83983,0 h 7.35966 m -11.19949,4.47979 m 3.83983,0 h 7.35966 m -11.19949,7.03968 m 3.83983,0 h 7.35966 m -11.19949,2.2399 m 3.83983,0 h 7.35966 m -11.19949,1.59993 m 3.83983,0 h 7.35966 m -11.19949,0.63997 m 3.83983,0 h 7.35966 m -11.19949,2.87987 m 3.83983,0 h 7.35966 m -11.19949,2.87986 m 3.83983,0 h 7.35966 m -11.19949,8.95959 m 3.83983,0 h 7.35966 m -11.19949,0.95996 m 3.83983,0 h 7.35966 m -11.19949,3.83983 m 3.83983,0 h 7.35966 m -11.19949,7.35966 m 3.83983,0 h 7.35966 m -11.19949,8.31962 m 3.83983,0 h 7.35966 m -11.19949,1.91991 m 3.83983,0 h 7.35966 m -11.19949,3.83983 m 3.83983,0 h 7.35966 m -11.19949,0.31998 m 3.83983,0 h 7.35966 m -11.19949,1.91991 m 3.83983,0 h 7.35966 m -11.19949,0.31999 m 3.83983,0 h 7.35966 m -11.19949,0.31998 m 3.83983,0 h 7.35966 m -11.19949,2.2399 m 3.83983,0 h 7.35966 m -11.19949,2.87987 m 3.83983,0 h 7.35966 m -11.19949,2.55988 m 3.83983,0 h 7.35966 m -11.19949,1.59993 m 3.83983,0 h 7.35966 m -11.19949,5.43975 m 3.83983,0 h 7.35966 m -11.19949,0.31999 m 3.83983,0 h 7.35966 m -11.19949,3.83982 m 3.83983,0 h 7.35966 m -11.19949,5.11977 m 3.83983,0 h 7.35966 m -11.19949,2.55988 m 3.83983,0 h 7.35966 m -11.19949,3.51984 m 3.83983,0 h 7.35966 m -11.19949,1.59993 m 3.83983,0 h 7.35966 m -11.19949,1.59992 m 3.83983,0 h 7.35966 m -11.19949,1.27995 m 3.83983,0 h 7.35966 m -11.19949,1.59992 m 3.83983,0 h 7.35966 m -11.19949,3.19986 m 3.83983,0 h 7.35966 m -11.19949,0.95995 m 3.83983,0 h 7.35966 m -11.19949,4.4798 m 3.83983,0 h 7.35966 m -11.19949,0.63997 m 3.83983,0 h 7.35966 m -11.19949,1.27994 m 3.83983,0 h 7.35966 m -11.19949,1.91991 m 3.83983,0 h 7.35966 m -11.19949,1.91991 m 3.83983,0 h 7.35966 m -11.19949,2.55989 m 3.83983,0 h 7.35966 m -11.19949,3.83982 m 3.83983,0 h 7.35966 m -11.19949,0.63997 m 3.83983,0 h 7.35966 m -11.19949,3.83983 m 3.83983,0 h 7.35966 m -11.19949,1.91991 m 3.83983,0 h 7.35966 m -11.19949,2.87987 m 3.83983,0 h 7.35966 m -11.19949,1.91991 m 3.83983,0 h 7.35966 m -11.19949,0.31999 m 3.83983,0 h 7.35966 m -11.19949,5.75973 m 3.83983,0 h 7.35966 m -11.19949,0.95996 m 3.83983,0 h 7.35966 m -11.19949,0.95996 m 3.83983,0 h 7.35966 m -11.19949,0.31998 m 3.83983,0 h 7.35966 m -11.19949,1.59993 m 3.83983,0 h 7.35966 m -11.19949,1.91991 m 3.83983,0 h 7.35966 m -11.19949,0.95996 m 3.83983,0 h 7.35966 m -11.19949,0.63997 m 3.83983,0 h 7.35966 m -11.19949,2.23989 m 3.83983,0 h 7.35966 m -11.19949,2.2399 m 3.83983,0 h 7.35966 m -11.19949,1.27994 m 3.83983,0 h 7.35966 m -11.19949,4.15981 m 3.83983,0 h 7.35966 m -11.19949,3.83983 m 3.83983,0 h 7.35966 m -11.19949,3.19985 m 3.83983,0 h 7.35966 m -11.19949,2.87987 m 3.83983,0 h 7.35966 m -11.19949,0.95996 m 3.83983,0 h 7.35966 m -11.19949,0.95995 m 3.83983,0 h 7.35966 m -11.19949,1.59993 m 3.83983,0 h 7.35966 m -11.19949,0.95996 m 3.83983,0 h 7.35966 m -11.19949,0.63997 m 3.83983,0 h 7.35966 m -11.19949,1.27994 m 3.83983,0 h 7.35966 m -11.19949,1.27994 m 3.83983,0 h 7.35966 m -11.19949,7.67965 m 3.83983,0 h 7.35966 m -11.19949,1.27994 m 3.83983,0 h 7.35966 m -11.19949,3.51984 m 3.83983,0 h 7.35966 m -11.19949,2.2399 m 3.83983,0 h 7.35966 m -11.19949,1.91991 m 3.83983,0 h 7.35966 m -11.19949,0.31998 m 3.83983,0 h 7.35966 m -11.19949,0.95996 m 3.83983,0 h 7.35966 m -11.19949,2.87987 m 3.83983,0 h 7.35966 m -11.19949,1.59993 m 3.83983,0 h 7.35966 m -11.19949,3.51984 m 3.83983,0 h 7.35966 m -11.19949,0.63997 m 3.83983,0 h 7.35966 m -11.19949,1.59992 m 3.83983,0 h 7.35966 m -11.19949,2.2399 m 3.83983,0 h 7.35966 m -11.19949,8.31962 m 3.83983,0 h 7.35966 m -11.19949,3.19985 m 3.83983,0 h 7.35966 m -11.19949,1.59993 m 3.83983,0 h 7.35966 m -11.19949,2.87987 m 3.83983,0 h 7.35966 m -11.19949,0.95996 m 3.83983,0 h 7.35966 m -11.19949,1.27994 m 3.83983,0 h 7.35966 m -11.19949,4.79978 m 3.83983,0 h 7.35966 m -11.19949,4.79978 m 3.83983,0 h 7.35966 m -11.19949,1.27994 m 3.83983,0 h 7.35966 m -11.19949,0.31999 m 3.83983,0 h 7.35966 m -11.19949,1.91991 m 3.83983,0 h 7.35966 m -11.19949,0.63997 m 3.83983,0 h 7.35966 m -11.19949,1.91991 m 3.83983,0 h 7.35966 m -11.19949,1.59993 m 3.83983,0 h 7.35966 m -11.19949,3.19985 m 3.83983,0 h 7.35966 m -11.19949,1.91991 m 3.83983,0 h 7.35966 m -11.19949,1.27995 m 3.83983,0 h 7.35966 m -11.19949,4.47979 m 3.83983,0 h 7.35966 m -11.19949,1.27994 m 3.83983,0 h 7.35966 m -11.19949,0.95996 m 3.83983,0 h 7.35966 m -11.19949,9.59956 m 3.83983,0 h 7.35966 m -11.19949,0.95996 m 3.83983,0 h 7.35966 m -11.19949,4.47979 m 3.83983,0 h 7.35966 m -11.19949,1.91991 m 3.83983,0 h 7.35966 m -11.19949,0.95996 m 3.83983,0 h 7.35966 m -11.19949,4.79978 m 3.83983,0 h 7.35966 m -11.19949,4.4798 m 3.83983,0 h 7.35966 m -11.19949,5.75973 m 3.83983,0 h 7.35966 m -11.19949,2.2399 m 3.83983,0 h 7.35966 m -11.19949,1.27994 m 3.83983,0 h 7.35966 m -11.19949,1.27994 m 3.83983,0 h 7.35966 m -11.19949,0.63998 m 3.83983,0 h 7.35966"
       style="fill:none;stroke:#000000;stroke-width:3.83982468px;stroke-linecap:round;stroke-linejoin:round;stroke-miterlimit:10;stroke-dasharray:none;stroke-opacity:1"
       inkscape:connector-curvature="0" />
    <path
       id="path99"
       d="m 626.53138,162.23259 v 0 m -9.59956,0 h 18.87914"
       style="fill:none;stroke:#000000;stroke-width:3.83982468px;stroke-linecap:round;stroke-linejoin:round;stroke-miterlimit:10;stroke-dasharray:none;stroke-opacity:1"
       inkscape:connector-curvature="0" />
    <path
       id="path101"
       d="m 616.93182,162.23259 v 0 h 9.59956 9.27958 v 0 h -9.27958 z m 9.59956,0 v 6.71969 m -9.59956,0 h 18.87914"
       style="fill:#000000;fill-opacity:1;fill-rule:evenodd;stroke:#000000;stroke-width:3.83982468px;stroke-linecap:round;stroke-linejoin:round;stroke-miterlimit:10;stroke-dasharray:none;stroke-opacity:1"
       inkscape:connector-curvature="0" />
    <text
       id="text107"
       y="21.726562"
       x="0"
       transform="rotate(90,257.42824,408.46134)"
       style="font-style:normal;font-variant:normal;font-weight:700;font-size:24px;line-height:125%;font-family:Arial;text-align:start;letter-spacing:0px;word-spacing:0px;text-anchor:start;fill:#000000;fill-opacity:1;stroke:none"
       xml:space="preserve"><tspan
         id="tspan105"
         y="21.726562"
         x="0"
         sodipodi:role="line"><tspan
           id="tspan103"
           style="font-style:normal;font-variant:normal;font-weight:700;font-size:24px;font-family:Arial;fill:#000000"
           dy="0"
           dx="0">bd</tspan></tspan></text>
    <path
       id="path109"
       d="m 687.64859,162.23259 v 0 m -9.59956,0 h 18.87913"
       style="fill:none;stroke:#ff0000;stroke-width:3.83982468px;stroke-linecap:round;stroke-linejoin:round;stroke-miterlimit:10;stroke-dasharray:none;stroke-opacity:1"
       inkscape:connector-curvature="0" />
    <path
       id="path111"
       d="m 678.04903,162.23259 v 0 h 9.59956 9.27957 v 0 h -9.27957 z m 9.59956,0 v 21.11903 m -9.59956,0 h 18.87913"
       style="fill:#ff0000;fill-opacity:1;fill-rule:evenodd;stroke:#ff0000;stroke-width:3.83982468px;stroke-linecap:round;stroke-linejoin:round;stroke-miterlimit:10;stroke-dasharray:none;stroke-opacity:1"
       inkscape:connector-curvature="0" />
    <text
       id="text117"
       y="21.726562"
       x="0"
       transform="rotate(90,291.1867,435.82009)"
       style="font-style:normal;font-variant:normal;font-weight:700;font-size:24px;line-height:125%;font-family:Arial;text-align:start;letter-spacing:0px;word-spacing:0px;text-anchor:start;fill:#000000;fill-opacity:1;stroke:none"
       xml:space="preserve"><tspan
         id="tspan115"
         y="21.726562"
         x="0"
         sodipodi:role="line"><tspan
           id="tspan113"
           style="font-style:normal;font-variant:normal;font-weight:700;font-size:24px;font-family:Arial;fill:#ff0000"
           dy="0"
           dx="0">h3h1</tspan></tspan></text>
    <path
       id="path119"
       d="m 748.7658,162.23259 v 0 m -9.59957,0 h 18.87914"
       style="fill:none;stroke:#008000;stroke-width:3.83982468px;stroke-linecap:round;stroke-linejoin:round;stroke-miterlimit:10;stroke-dasharray:none;stroke-opacity:1"
       inkscape:connector-curvature="0" />
    <path
       id="path121"
       d="m 739.16623,162.23259 v 0 h 9.59957 9.27957 v 0 h -9.27957 z m 9.59957,0 v 19.51911 m -9.59957,0 h 18.87914"
       style="fill:#008000;fill-opacity:1;fill-rule:evenodd;stroke:#008000;stroke-width:3.83982468px;stroke-linecap:round;stroke-linejoin:round;stroke-miterlimit:10;stroke-dasharray:none;stroke-opacity:1"
       inkscape:connector-curvature="0" />
    <text
       id="text127"
       y="21.726562"
       x="0"
       transform="rotate(90,318.86543,469.25856)"
       style="font-style:normal;font-variant:normal;font-weight:700;font-size:24px;line-height:125%;font-family:Arial;text-align:start;letter-spacing:0px;word-spacing:0px;text-anchor:start;fill:#000000;fill-opacity:1;stroke:none"
       xml:space="preserve"><tspan
         id="tspan125"
         y="21.726562"
         x="0"
         sodipodi:role="line"><tspan
           id="tspan123"
           style="font-style:normal;font-variant:normal;font-weight:700;font-size:24px;font-family:Arial;fill:#008000"
           dy="0"
           dx="0">idry</tspan></tspan></text>
    <path
       id="path129"
       d="m 748.7658,501.41709 v 0 m -9.59957,0 h 18.87914"
       style="fill:none;stroke:#000080;stroke-width:3.83982468px;stroke-linecap:round;stroke-linejoin:round;stroke-miterlimit:10;stroke-dasharray:none;stroke-opacity:1"
       inkscape:connector-curvature="0" />
    <path
       id="path131"
       d="m 739.16623,501.41709 v 0 h 9.59957 9.27957 v 0 h -9.27957 z m 9.59957,0 v 10.23954 m -9.59957,0 h 18.87914"
       style="fill:#000080;fill-opacity:1;fill-rule:evenodd;stroke:#000080;stroke-width:3.83982468px;stroke-linecap:round;stroke-linejoin:round;stroke-miterlimit:10;stroke-dasharray:none;stroke-opacity:1"
       inkscape:connector-curvature="0" />
    <text
       id="text137"
       y="21.726562"
       x="0"
       transform="rotate(90,152.31304,635.81096)"
       style="font-style:normal;font-variant:normal;font-weight:700;font-size:24px;line-height:125%;font-family:Arial;text-align:start;letter-spacing:0px;word-spacing:0px;text-anchor:start;fill:#000000;fill-opacity:1;stroke:none"
       xml:space="preserve"><tspan
         id="tspan135"
         y="21.726562"
         x="0"
         sodipodi:role="line"><tspan
           id="tspan133"
           style="font-style:normal;font-variant:normal;font-weight:700;font-size:24px;font-family:Arial;fill:#000080"
           dy="0"
           dx="0">rdry</tspan></tspan></text>
    <path
       id="path139"
       d="m 809.883,152.31304 v 0 m -9.59956,0 h 18.87914"
       style="fill:none;stroke:#000080;stroke-width:3.83982468px;stroke-linecap:round;stroke-linejoin:round;stroke-miterlimit:10;stroke-dasharray:none;stroke-opacity:1"
       inkscape:connector-curvature="0" />
    <path
       id="path141"
       d="m 800.28344,152.31304 v 0 h 9.59956 9.27958 v 0 H 809.883 Z m 9.59956,0 v 23.03895 m -9.59956,0 h 18.87914"
       style="fill:#000080;fill-opacity:1;fill-rule:evenodd;stroke:#000080;stroke-width:3.83982468px;stroke-linecap:round;stroke-linejoin:round;stroke-miterlimit:10;stroke-dasharray:none;stroke-opacity:1"
       inkscape:connector-curvature="0" />
    <text
       id="text147"
       y="21.726562"
       x="0"
       transform="rotate(90,354.06383,495.17738)"
       style="font-style:normal;font-variant:normal;font-weight:700;font-size:24px;line-height:125%;font-family:Arial;text-align:start;letter-spacing:0px;word-spacing:0px;text-anchor:start;fill:#000000;fill-opacity:1;stroke:none"
       xml:space="preserve"><tspan
         id="tspan145"
         y="21.726562"
         x="0"
         sodipodi:role="line"><tspan
           id="tspan143"
           style="font-style:normal;font-variant:normal;font-weight:700;font-size:24px;font-family:Arial;fill:#000080"
           dy="0"
           dx="0">rdry</tspan></tspan></text>
    <text
       id="text153"
       y="16.804138"
       x="0"
       transform="translate(593.89287)"
       style="font-style:normal;font-variant:normal;font-weight:700;font-size:18.5625px;line-height:125%;font-family:Arial;text-align:start;letter-spacing:0px;word-spacing:0px;text-anchor:start;fill:#000000;fill-opacity:1;stroke:none"
       xml:space="preserve"><tspan
         id="tspan151"
         y="16.804138"
         x="0"
         sodipodi:role="line"><tspan
           id="tspan149"
           style="font-style:normal;font-variant:normal;font-weight:700;font-size:18.5625px;font-family:Arial;fill:#000000"
           dy="0"
           dx="0">5</tspan></tspan></text>
  </g>
</svg>
